<?xml version="1.0" standalone="no"?>
<!DOCTYPE svg PUBLIC "-//W3C//DTD SVG 1.1//EN" "http://www.w3.org/Graphics/SVG/1.1/DTD/svg11.dtd" >
<svg xmlns="http://www.w3.org/2000/svg">
<metadata>Generated by IcoMoon</metadata>
<defs>
<font id="mail" horiz-adv-x="1024">
<font-face units-per-em="1024" ascent="960" descent="-64" />
<missing-glyph horiz-adv-x="1024" />
<glyph unicode="&#x20;" d="" horiz-adv-x="512" />
<glyph unicode="&#xe000;" d="M870.4 768h-716.8c-28.262 0-51.2-22.938-51.2-51.2v-512c0-28.262 22.938-51.2 51.2-51.2h716.8c28.262 0 51.2 22.938 51.2 51.2v512c0 28.262-22.938 51.2-51.2 51.2zM870.4 665.6l-358.4-256-358.4 256v51.2h716.8v-51.2z" />
<glyph unicode="&#xe001;" d="M511.846 844.8c-226.099 0-409.446-157.85-409.446-384s183.347-384 409.446-384c226.304 0 409.754 157.85 409.754 384 0 226.15-183.45 384-409.754 384zM512 204.8c-153.6 0-256 102.4-256 256h512c0-153.6-102.4-256-256-256zM486.4 614.4c0-42.394-22.938-76.8-51.2-76.8s-51.2 34.406-51.2 76.8 22.938 76.8 51.2 76.8 51.2-34.406 51.2-76.8zM640 614.4c0-42.394-22.938-76.8-51.2-76.8s-51.2 34.406-51.2 76.8 22.938 76.8 51.2 76.8 51.2-34.406 51.2-76.8z" />
<glyph unicode="&#xe002;" d="M768.051 870.4h-614.502c-28.109 0-51.149-23.040-51.149-51.149v-716.851c0-28.16 23.040-51.149 51.149-51.149h614.451c28.16 0 51.2 22.989 51.2 51.149v716.851c0 28.109-23.040 51.149-51.149 51.149zM716.8 204.851l-511.949-0.051v48.128c0 0-3.379 31.078 64.358 59.136 33.434 13.875 72.909 40.448 143.718 48.896-21.811 15.309-31.334 46.899-49.92 90.778-0.307 0.666-0.563 1.434-0.819 2.15-4.25-0.717-8.653-0.717-11.776 1.126-8.602 4.966-13.824 32.205-13.978 45.466-0.205 19.866 10.496 17.92 10.496 17.92s0.358 0.102 0.87 0.205c-0.102 1.536-0.205 3.123-0.205 4.659 0 18.637-3.84 48.589 1.178 65.075 7.68 25.446 16.947 53.555 37.427 53.555 18.995 0 6.093 21.965 29.338 29.338 24.013 7.578 63.488-5.734 71.475-5.734 11.52 0 40.55-8.346 60.518-28.006 14.131-13.875 12.544-23.398 20.275-48.947 5.12-16.896 1.178-47.258 1.178-65.229 0-1.587-0.102-3.174-0.154-4.71 0.307-0.051 0.563-0.102 0.563-0.102s10.701 1.946 10.445-17.92c-0.102-13.261-5.325-40.499-13.978-45.466-3.072-1.792-7.322-1.843-11.418-1.178-0.256-0.614-0.563-1.331-0.717-1.946-18.432-43.52-28.57-75.315-50.176-90.726 71.526-8.243 111.258-35.072 144.845-48.947 68.096-28.16 68.403-55.347 68.403-55.347v-52.122zM921.6 306.125v-101.325c0-14.285-11.264-25.6-25.6-25.6h-51.2v153.6h50.842c14.336 0 25.958-12.39 25.958-26.675zM921.6 510.925v-101.325c0-14.285-11.264-25.6-25.6-25.6h-51.2v153.6h50.842c14.336 0 25.958-12.39 25.958-26.675zM921.6 715.725v-101.325c0-14.285-11.264-25.6-25.6-25.6h-51.2v153.6h50.842c14.336 0 25.958-12.39 25.958-26.675z" />
<glyph unicode="&#xe003;" d="M523.776 263.424c-7.168-14.387-16.794-26.419-28.826-36.045-12.032-9.677-25.907-17.050-41.574-22.067-15.667-5.018-32.051-7.526-49.101-7.526-19.661 0-37.683 2.867-53.862 8.499-16.179 5.683-29.952 13.926-41.318 24.781-11.366 10.854-20.173 24.166-26.317 39.834-6.195 15.718-9.062 33.741-8.704 54.118h67.635c0.307-9.318 1.843-18.278 4.454-26.778 2.662-8.55 6.554-15.872 11.52-22.067 5.018-6.195 11.264-11.11 18.842-14.797 7.526-3.686 16.435-5.53 26.778-5.53 16.026 0 29.542 4.966 40.602 14.797 11.059 9.83 16.538 23.296 16.538 40.346 0 13.363-2.611 23.552-7.782 30.515-5.171 7.014-11.776 12.134-19.814 15.309-7.987 3.174-16.742 5.018-26.266 5.53-9.523 0.512-18.637 0.768-27.341 0.768v50.125c7.68-0.666 15.872-0.666 24.525 0 8.704 0.666 16.794 2.56 24.32 5.734 7.578 3.174 13.722 7.782 18.586 13.773 4.813 6.042 7.219 14.029 7.219 24.064 0 15.002-5.018 26.522-15.002 34.56-10.035 8.090-21.606 12.083-34.611 12.083-18.022 0-31.642-5.939-40.858-17.766-9.165-11.878-13.619-26.829-13.261-44.851h-67.635c0.666 18.022 3.891 34.458 9.728 49.357 5.888 14.899 14.029 27.648 24.576 38.349 10.496 10.701 23.091 18.944 37.837 24.832 14.746 5.837 31.078 8.755 49.101 8.755 14.080 0 28.109-2.099 42.086-6.246 14.080-4.198 26.675-10.445 37.837-18.79 11.162-8.346 20.275-18.534 27.341-30.566 7.014-12.032 10.496-25.856 10.496-41.574 0-16.998-4.096-32.051-12.288-45.056-8.192-13.056-20.48-21.914-36.864-26.573v-1.024c19.405-4.352 34.611-13.722 45.619-28.058 11.059-14.387 16.538-31.59 16.538-51.61 0-18.483-3.584-34.867-10.752-49.203zM716.8 204.288h-71.117v227.482h-82.483v53.658c12.339-0.307 18.586 0.614 30.054 2.765 11.52 2.202 21.862 5.99 31.078 11.52 9.165 5.478 16.947 12.8 23.296 21.811 6.349 9.011 10.547 20.224 12.544 33.536h56.627v-350.771zM870.4 819.2h-102.4v25.6c0 14.131-11.469 25.6-25.6 25.6h-51.2c-14.131 0-25.6-11.469-25.6-25.6v-25.6h-307.2v25.6c0 14.131-11.469 25.6-25.6 25.6h-51.2c-14.131 0-25.6-11.469-25.6-25.6v-25.6h-102.4c-28.262 0-51.2-22.938-51.2-51.2v-665.6c0-28.262 22.938-51.2 51.2-51.2h716.8c28.262 0 51.2 22.938 51.2 51.2v665.6c0 28.262-22.938 51.2-51.2 51.2zM870.4 102.4h-716.8v563.2h716.8v-563.2z" />
<glyph unicode="&#xe004;" d="M614.4 51.2h204.8c28.16 0 51.2 23.040 51.2 51.2v204.8l-256-256zM819.2 870.4h-614.4c-28.16 0-51.2-23.040-51.2-51.2v-716.8c0-28.16 23.040-51.2 51.2-51.2h409.6v204.8c0 28.262 22.938 51.2 51.2 51.2h204.8v512c0 28.16-23.040 51.2-51.2 51.2zM281.6 140.8c-21.197 0-38.4 17.203-38.4 38.4s17.203 38.4 38.4 38.4c21.197 0 38.4-17.203 38.4-38.4 0-21.197-17.203-38.4-38.4-38.4zM281.6 332.8c-21.197 0-38.4 17.203-38.4 38.4s17.203 38.4 38.4 38.4c21.197 0 38.4-17.203 38.4-38.4 0-21.197-17.203-38.4-38.4-38.4zM281.6 512c-21.197 0-38.4 17.203-38.4 38.4s17.203 38.4 38.4 38.4c21.197 0 38.4-17.203 38.4-38.4 0-21.197-17.203-38.4-38.4-38.4zM281.6 704c-21.197 0-38.4 17.203-38.4 38.4s17.203 38.4 38.4 38.4c21.197 0 38.4-17.203 38.4-38.4 0-21.197-17.203-38.4-38.4-38.4z" />
<glyph unicode="&#xe005;" d="M921.6 536.115h-51.302c-11.162 0-51.302 7.014-66.15 46.797-14.848 39.731 5.99 68.864 14.746 77.619 6.195 6.195 36.301 36.301 36.301 36.301l-107.059 107.162c0 0-28.416-28.416-36.301-36.301s-40.806-31.437-79.411-13.824c-38.605 17.613-44.032 52.89-44.032 65.229 0 12.339 0 51.354 0 51.354h-153.242c0 0 0-40.192 0-51.302 0-11.162-6.195-51.354-45.978-66.15-39.782-14.848-68.454 5.99-77.158 14.746 0 0-36.096 36.301-36.096 36.301l-107.622-107.162 36.045-36.557c11.366-11.469 31.539-40.96 13.978-79.411-17.562-38.451-52.429-43.469-64.87-43.52 0-0.051-51.046 0-51.046 0v-154.47c0 0 40.192 0 51.302 0 11.162 0 50.79-5.786 65.638-45.517 14.848-39.731-5.376-67.021-14.797-76.339l-36.25-36.557 107.52-106.957c0 0 28.467 28.467 36.352 36.352s40.55 31.488 79.155 13.875c38.605-17.613 43.776-52.838 43.776-65.178s0-51.354 0-51.354h153.19c0 0 0 40.192 0 51.302 0 11.162 6.502 51.354 46.234 66.15 39.731 14.848 68.608-5.99 77.312-14.746 0 0 0 0 0 0l36.25-36.301 107.315 107.11-36.045 36.301c-7.782 8.038-31.539 41.165-13.978 79.616 17.562 38.502 52.582 43.571 65.024 43.622h51.2v151.808zM512 307.2c-84.838 0-153.6 68.762-153.6 153.6s68.762 153.6 153.6 153.6c84.838 0 153.6-68.762 153.6-153.6 0-84.838-68.762-153.6-153.6-153.6z" />
<glyph unicode="&#xe006;" d="M307.2 563.2v51.2l-51.2 204.8h-102.4l51.2-204.8h51.2v-51.2h-51.2l-51.2-256h51.2v-51.2h-51.2l51.2-204.8h102.4l-51.2 204.8v51.2zM768 563.2v51.2h51.2l51.2 204.8h-563.2l51.2-204.8h51.2v-51.2h-51.2l-51.2-256h51.2v-51.2h-51.2l51.2-204.8h256v256h256l-51.2 256h-51.2zM460.8 614.4h51.2v-51.2h-51.2v51.2zM460.8 256h-51.2v51.2h51.2v-51.2zM563.2 256h-51.2v51.2h51.2v-51.2zM614.4 563.2h-51.2v51.2h51.2v-51.2zM716.8 563.2h-51.2v51.2h51.2v-51.2zM665.6 51.2l204.8 204.8h-204.8v-204.8z" />
<glyph unicode="&#xe007;" d="M430.080 311.245l491.52 561.715-153.6-719.36-337.92 157.645zM359.885 348.16l-257.485 112.64 819.2 412.16-561.715-524.8zM410.112 51.2l-0.512 204.8 102.4-51.2-101.888-153.6z" />
<glyph unicode="&#xe008;" d="M256 83.866c0-18.022 7.578-32.666 25.6-32.666h460.8c18.074 0 25.6 14.643 25.6 32.666l51.2 581.734h-614.4l51.2-581.734zM332.8 563.2h76.8v-409.6h-76.8v409.6zM473.6 563.2h76.8v-409.6h-76.8v409.6zM614.4 563.2h76.8v-409.6h-76.8v409.6zM853.76 782.131c-10.752 34.509-34.509 37.069-60.723 37.069 0 0-37.427 0-127.437 0v51.2c0 35.584-23.142 51.2-51.2 51.2h-204.8c-28.006 0-51.2-15.616-51.2-51.2v-51.2c-90.061 0-127.386 0-127.386 0-26.266 0-49.971-2.56-60.774-37.069l-16.64-65.331h716.8l-16.64 65.331zM614.4 819.2h-204.8v51.2h204.8v-51.2z" />
<glyph unicode="&#xe009;" d="M819.2 819.2c-22.63-3.379-57.702-25.6-102.4-25.6-89.395 0-115.456 31.283-204.851 76.8-67.072-45.517-115.405-76.8-204.749-76.8-44.698 0-79.77 22.221-102.4 25.6-36.557-73.165-76.8-165.018-76.8-256 0-250.317 177.357-475.546 383.949-537.6 206.643 62.054 384.051 297.523 384.051 537.6 0 88.781-40.243 182.784-76.8 256zM665.856 668.979l54.323-54.323-153.856-153.856 153.856-153.856-54.323-54.323-153.856 153.856-153.856-153.856-54.323 54.323 153.856 153.856-153.856 153.856 54.323 54.323 153.856-153.856 153.856 153.856z" />
<glyph unicode="&#xe00a;" d="M512 607.283c-26.778 0-51.814-7.27-73.421-19.814l200.038-200.038c12.544 21.606 19.866 46.643 19.866 73.421 0 80.845-65.587 146.432-146.483 146.432zM819.2 819.2c-22.63-3.379-57.702-25.6-102.4-25.6-89.395 0-115.456 31.334-204.851 76.8-67.072-45.466-115.405-76.8-204.749-76.8-44.698 0-79.77 22.221-102.4 25.6-36.557-73.165-76.8-164.966-76.8-256 0-250.317 177.357-475.546 383.949-537.6 206.643 62.054 384.051 297.523 384.051 537.6 0 88.781-40.192 182.784-76.8 256zM512 230.4c-127.232 0-230.4 103.168-230.4 230.4s103.168 230.4 230.4 230.4c127.283 0 230.4-103.168 230.4-230.4 0-127.232-103.117-230.4-230.4-230.4zM365.517 460.8c0-80.896 65.587-146.483 146.483-146.483 26.778 0 51.814 7.322 73.472 19.866l-200.090 200.038c-12.544-21.606-19.866-46.643-19.866-73.421z" />
<glyph unicode="&#xe00b;" d="M435.2 825.242c0 26.266-17.101 45.158-43.315 45.158h-244.275c-26.266 0-45.21-18.893-45.21-45.158v-57.242h332.8v57.242zM896 716.8h-793.6l25.6-584.294c0-13.056 12.493-30.106 25.6-30.106h716.8c13.107 0 25.6 17.050 25.6 30.106l25.6 554.189c0 13.107-12.493 30.106-25.6 30.106zM512 204.8l-204.8 204.8h102.4v153.6h204.8v-153.6h102.4l-204.8-204.8z" />
<glyph unicode="&#xe00c;" d="M435.2 825.242c0 26.266-17.101 45.158-43.315 45.158h-244.275c-26.266 0-45.21-18.893-45.21-45.158v-57.242h332.8v57.242zM896 716.8h-793.6l25.6-584.294c0-13.056 12.493-30.106 25.6-30.106h716.8c13.107 0 25.6 17.050 25.6 30.106l25.6 554.189c0 13.107-12.493 30.106-25.6 30.106z" />
<glyph unicode="&#xe00d;" d="M307.2 460.8c0-113.108 91.692-204.8 204.8-204.8s204.8 91.692 204.8 204.8c0 113.108-91.692 204.8-204.8 204.8-113.108 0-204.8-91.692-204.8-204.8z" />
<glyph unicode="&#xe00e;" d="M633.651 416.051l211.149 147.149h-256l-76.8 256-76.8-256h-256l211.149-147.149-83.2-262.349 204.851 179.2 204.851-179.2-83.2 262.349z" />
<glyph unicode="&#xe00f;" d="M911.104 158.31l-246.477 233.574c32.922 48.947 52.173 107.878 52.173 171.315 0 169.677-137.523 307.2-307.2 307.2-169.677 0-307.2-137.523-307.2-307.2s137.523-307.2 307.2-307.2c63.846 0 123.085 19.507 172.237 52.838l232.704-247.091c0 0 32.205-32.154 80.486 16.128 48.23 48.282 16.077 80.435 16.077 80.435zM204.8 563.2c0 113.101 91.699 204.8 204.8 204.8s204.8-91.699 204.8-204.8c0-113.101-91.699-204.8-204.8-204.8-113.101 0-204.8 91.699-204.8 204.8z" />
<glyph unicode="&#xe010;" d="M835.277 600.934l-131.891 131.84 65.946 65.946c33.024 32.102 43.981 21.965 65.997 0l65.894-65.946c21.965-21.965 32.102-34.304 0-65.946l-65.946-65.894zM468.787 234.445l-161.587-29.645 29.645 161.536 322.56 322.56 131.84-131.942zM102.4 153.6h819.2v-51.2h-819.2v51.2z" />
<glyph unicode="&#xe011;" d="M844.8 767.949c-98.97 0-179.2-80.282-179.2-179.2s80.23-179.149 179.2-179.149c98.918 0 178.688 80.23 178.688 179.149 0 98.918-79.77 179.2-178.688 179.2zM972.8 563.149h-102.4v-102.4h-51.2v102.4h-102.4v51.2h102.4v102.4h51.2v-102.4h102.4v-51.2zM614.4 588.8c0 118.477 89.754 214.938 204.8 227.84v2.611c0 28.109-23.040 51.149-51.149 51.149h-614.502c-28.109 0-51.149-23.040-51.149-51.149v-716.851c0-28.16 23.040-51.149 51.149-51.149h614.451c28.16 0 51.2 22.989 51.2 51.149v258.56c-115.046 12.902-204.8 109.363-204.8 227.84zM716.8 204.851l-512-0.051v48.128c0 0-3.379 31.078 64.41 59.136 33.434 13.875 72.909 40.448 143.718 48.896-21.811 15.309-31.334 46.899-49.92 90.778-0.307 0.666-0.563 1.434-0.819 2.15-4.25-0.717-8.653-0.717-11.776 1.126-8.602 4.966-13.824 32.205-13.978 45.466-0.205 19.866 10.496 17.92 10.496 17.92s0.358 0.102 0.87 0.205c-0.102 1.536-0.205 3.123-0.205 4.659 0 18.637-3.84 48.589 1.126 65.075 7.68 25.446 16.947 53.555 37.427 53.555 18.995 0 6.093 21.965 29.338 29.338 24.013 7.578 63.488-5.734 71.475-5.734 11.52 0 40.55-8.346 60.518-28.006 14.131-13.875 12.544-23.398 20.275-48.947 5.12-16.896 1.178-47.258 1.178-65.229 0-1.587-0.102-3.174-0.154-4.762 0.307-0.051 0.563-0.154 0.563-0.154s10.701 1.946 10.445-17.92c-0.154-13.261-5.325-40.499-13.926-45.466-3.072-1.792-7.322-1.843-11.418-1.126-0.256-0.666-0.563-1.331-0.717-1.946-18.483-43.52-28.57-75.315-50.176-90.726 71.526-8.243 111.258-35.072 144.845-48.947 68.096-28.109 68.403-55.296 68.403-55.296v-52.122z" />
<glyph unicode="&#xe012;" d="M716.8 358.4h-153.6v-153.6h-102.4v153.6h-153.6v102.4h153.6v153.6h102.4v-153.6h153.6zM870.4 819.2h-102.4v25.6c0 14.131-11.469 25.6-25.6 25.6h-51.2c-14.131 0-25.6-11.469-25.6-25.6v-25.6h-307.2v25.6c0 14.131-11.469 25.6-25.6 25.6h-51.2c-14.131 0-25.6-11.469-25.6-25.6v-25.6h-102.4c-28.262 0-51.2-22.938-51.2-51.2v-665.6c0-28.262 22.938-51.2 51.2-51.2h716.8c28.262 0 51.2 22.938 51.2 51.2v665.6c0 28.262-22.938 51.2-51.2 51.2zM870.4 102.4h-716.8v563.2h716.8v-563.2z" />
<glyph unicode="&#xe013;" d="M893.030 797.85c-253.696 28.467-511.437 28.467-765.133 0-19.456-97.69-25.498-178.534-25.498-280.525v-517.325l225.28 224c166.502-5.786 398.95-6.042 565.35 12.749 38.093 190.259 38.093 370.739 0 561.101zM716.8 460.8h-153.6v-153.6h-102.4v153.6h-153.6v102.4h153.6v153.6h102.4v-153.6h153.6v-102.4z" />
<glyph unicode="&#xe014;" d="M844.8 767.949c-98.97 0-179.2-80.282-179.2-179.2s80.23-179.149 179.2-179.149c98.918 0 178.688 80.23 178.688 179.149 0 98.918-79.77 179.2-178.688 179.2zM972.8 563.149h-102.4v-102.4h-51.2v102.4h-102.4v51.2h102.4v102.4h51.2v-102.4h102.4v-51.2zM614.4 51.2h204.8c28.16 0 51.2 23.040 51.2 51.2v204.8l-256-256zM844.8 358.4c-127.232 0-230.4 103.168-230.4 230.4s103.168 230.4 230.4 230.4c8.755 0 17.101-1.638 25.6-2.56v2.56c0 28.16-23.040 51.2-51.2 51.2h-614.4c-28.16 0-51.2-23.040-51.2-51.2v-716.8c0-28.16 23.040-51.2 51.2-51.2h409.6v204.8c0 28.262 22.938 51.2 51.2 51.2h204.8v53.76c-8.499-0.922-16.845-2.56-25.6-2.56zM281.6 140.8c-21.197 0-38.4 17.203-38.4 38.4s17.203 38.4 38.4 38.4 38.4-17.203 38.4-38.4-17.203-38.4-38.4-38.4zM281.6 332.8c-21.197 0-38.4 17.203-38.4 38.4s17.203 38.4 38.4 38.4 38.4-17.203 38.4-38.4-17.203-38.4-38.4-38.4zM281.6 512c-21.197 0-38.4 17.203-38.4 38.4s17.203 38.4 38.4 38.4 38.4-17.203 38.4-38.4c0-21.197-17.203-38.4-38.4-38.4zM281.6 704c-21.197 0-38.4 17.203-38.4 38.4s17.203 38.4 38.4 38.4 38.4-17.203 38.4-38.4c0-21.197-17.203-38.4-38.4-38.4z" />
<glyph unicode="&#xe015;" d="M870.4 512h-307.2v307.2h-102.4v-307.2h-307.2v-102.4h307.2v-307.2h102.4v307.2h307.2z" />
<glyph unicode="&#xe016;" d="M874.035 171.162l-289.638 289.638 289.638 289.638-72.397 72.397-289.638-289.638-289.638 289.638-72.397-72.397 289.638-289.638-289.638-289.638 72.397-72.397 289.638 289.638 289.638-289.638z" />
<glyph unicode="&#xe017;" d="M921.6 921.6h-819.2c-28.314 0-51.2-22.886-51.2-51.2 0-28.211 22.886-51.2 51.2-51.2h819.2c28.314 0 51.2 22.989 51.2 51.2 0 28.314-22.886 51.2-51.2 51.2zM548.198 704.256c-4.71 4.71-10.394 8.499-16.589 11.11-12.595 5.222-26.675 5.222-39.219 0-6.195-2.611-11.878-6.4-16.589-11.11l-309.914-309.811c-20.019-20.019-20.019-52.378 0-72.397 10.035-9.984 25.805-14.848 38.912-14.848s23.501 4.864 33.485 14.848l222.515 222.413v-493.261c0-28.314 22.886-51.2 51.2-51.2 28.211 0 51.2 22.886 51.2 51.2v493.261l220.416-220.416c9.984-9.984 22.477-16.845 35.584-16.845s28.877 6.861 38.912 16.845c20.019 20.019 20.019 50.381 0 70.4l-309.914 309.811z" />
<glyph unicode="&#xe018;" d="M864.922 666.266c7.322 7.168 7.322 18.688-0.102 25.805l-47.36 45.107c-7.424 7.014-19.507 7.014-26.931-0.102l-304.128-327.475-95.283 114.125c-7.322 7.014-19.507 7.014-26.931 0l-47.514-45.619c-7.424-7.117-7.424-18.79-0.051-25.856l144.179-145.050h51.2l352.922 359.066z" />
<glyph unicode="&#xe019;" d="M864.922 666.266c7.322 7.168 7.322 18.688-0.051 25.805l-47.36 45.107c-7.424 7.014-19.507 7.014-26.931-0.102l-304.179-327.475-95.283 114.125c-7.322 7.014-19.507 7.014-26.931 0l-47.514-45.619c-7.424-7.117-7.424-18.79-0.051-25.856l144.179-145.050h51.2l352.922 359.066zM204.8 204.8c0-27.904 22.886-51.2 50.79-51.2h512.41c27.955 0 51.2 23.296 51.2 51.2v307.2l-51.2-51.2v-256h-512v512h409.6l51.2 51.2h-461.517c-27.955 0-50.483-23.296-50.483-51.2v-512z" />
<glyph unicode="&#xe01a;" d="M763.341 768h-502.63c-28.006 0-55.398-27.904-55.398-55.808l-0.512-502.784c0-27.904 27.904-55.808 55.91-55.808h502.63c27.955 0 55.859 27.904 55.859 55.808v502.784c0 27.904-27.904 55.808-55.859 55.808zM768 204.8h-512v512h512v-512z" />
<glyph unicode="&#xe01b;" d="M763.341 768h-502.63c-28.006 0-55.398-27.904-55.398-55.808l-0.512-502.784c0-27.904 27.904-55.808 55.91-55.808h502.63c27.955 0 55.859 27.904 55.859 55.808v502.784c0 27.904-27.904 55.808-55.859 55.808zM768 204.8h-512v512h512v-512zM358.4 512h307.2v-102.4h-307.2z" />
<glyph unicode="&#xe01c;" d="M512 768c-169.677 0-307.2-137.523-307.2-307.2s137.523-307.2 307.2-307.2c169.677 0 307.2 137.523 307.2 307.2s-137.523 307.2-307.2 307.2zM512 204.8c-141.363 0-256 114.637-256 256s114.637 256 256 256c141.363 0 256-114.637 256-256s-114.637-256-256-256zM409.6 460.8c0-56.554 45.846-102.4 102.4-102.4s102.4 45.846 102.4 102.4c0 56.554-45.846 102.4-102.4 102.4-56.554 0-102.4-45.846-102.4-102.4z" />
<glyph unicode="&#xe01d;" d="M512 768c-169.677 0-307.2-137.523-307.2-307.2s137.523-307.2 307.2-307.2c169.677 0 307.2 137.523 307.2 307.2s-137.523 307.2-307.2 307.2zM512 204.8c-141.363 0-256 114.637-256 256s114.637 256 256 256c141.363 0 256-114.637 256-256s-114.637-256-256-256z" />
<glyph unicode="&#xe01e;" d="M435.2 825.242c0 26.266-17.101 45.158-43.315 45.158h-244.275c-26.266 0-45.21-18.893-45.21-45.158v-57.242h332.8v57.242zM896 716.8h-793.6l25.6-584.294c0-13.056 12.493-30.106 25.6-30.106h716.8c13.107 0 25.6 17.050 25.6 30.106l25.6 554.189c0 13.107-12.493 30.106-25.6 30.106zM716.8 358.4h-153.6v-153.6h-102.4v153.6h-153.6v102.4h153.6v153.6h102.4v-153.6h153.6v-102.4z" />
<glyph unicode="&#xe01f;" d="M102.4 819.2h819.2v-102.4h-819.2zM102.4 614.4h819.2v-102.4h-819.2zM102.4 409.6h819.2v-102.4h-819.2zM102.4 204.8h819.2v-102.4h-819.2z" />
<glyph unicode="&#xe020;" d="M102.4 819.2h819.2v-307.2h-819.2zM102.4 409.6h819.2v-307.2h-819.2z" />
<glyph unicode="&#xe021;" d="M511.949 870.4l409.651-460.8h-256v-358.4h-307.2v358.4h-256l409.549 460.8z" />
<glyph unicode="&#xe022;" d="M512.051 51.2l-409.651 460.8h256v358.4h307.2v-358.4h256l-409.549-460.8z" />
<glyph unicode="&#xe023;" d="M851.149 482.304l-288.87-288.717c-24.883-24.883-91.187-91.187-175.974-91.187-122.47 0-222.157 99.686-222.157 222.259 0 59.341 23.091 115.046 65.024 157.030l296.397 295.68c30.157 27.29 67.891 41.83 107.11 41.83 87.194 0 158.003-70.861 158.003-158.054 0-35.533-13.978-69.632-41.523-101.222-0.256-0.256-0.563-0.614-0.819-0.973l-4.352 3.891 4.096-4.045-266.65-266.803c-8.602-9.574-44.646-47.309-85.709-47.309-51.251 0-93.030 41.728-93.030 92.979 0 23.603 8.806 46.029 24.73 63.232l192.051 192.461c11.52 11.674 30.413 11.674 42.035 0.154 11.469-11.571 11.674-30.362 0-42.035l-191.232-191.693c-5.069-5.427-8.243-13.568-8.243-22.118 0-18.534 15.155-33.587 33.69-33.587 11.008 0 31.693 16.435 41.626 27.904l1.331 1.382 266.496 266.547c17.613 20.378 26.163 40.499 26.163 61.286 0 54.477-44.134 98.714-98.611 98.714-24.525 0-48.077-9.114-66.15-25.549l-295.322-294.707c-30.72-30.618-47.667-71.629-47.667-115.046 0-89.805 73.114-162.918 162.765-162.918 60.211 0 113.818 53.658 133.939 73.933l288.973 288.666c11.469 11.52 30.259 11.52 41.882 0.051 11.52-11.622 11.622-30.362 0-42.035z" />
<glyph unicode="&#xe024;" d="M175.411 85.146c-67.789 0-175.411 34.662-175.411 127.539 0 30.72 20.019 62.515 53.402 62.515 24.781 0 42.086-18.227 42.086-44.442 0-25.498-13.875-42.957-34.714-44.339 4.557-23.45 25.549-67.891 119.347-67.891 149.35 0 247.808 161.382 319.693 279.194l2.099 3.43h-30.208l5.53 33.485h43.981l8.346 13.056c60.16 94.362 127.232 199.578 232.653 249.293-10.189 0.205-20.685 0.461-31.693 0.768-42.65 1.075-95.744 2.355-167.424 2.355-235.981 0-403.354-85.555-407.040-208.026-0.768-22.323 6.246-41.318 20.685-56.371 20.122-20.992 53.914-32.512 95.13-32.512 100.762 0 217.958 71.987 217.958 164.71 0 20.838-5.274 39.526-8.090 49.562l-3.328 11.469 30.054 5.99 3.277-8.602c7.526-19.456 11.162-38.912 11.162-59.392 0-101.376-122.47-197.222-252.006-197.222-91.29 0-148.019 45.978-148.019 119.859 0.051 138.394 184.371 278.426 536.627 278.426 69.325 0 129.997-1.485 174.285-2.611 26.829-0.666 48.23-1.178 63.027-1.178 15.155 0 29.235 1.126 41.677 2.15 10.701 0.87 20.48 1.638 29.235 1.638 25.088 0 56.269 0 56.269-30.106 0-43.315-17.869-43.469-188.621-43.469-105.421-38.912-151.501-119.706-196.096-197.786-11.469-20.122-22.477-39.475-34.355-57.907 2.048 0.154 4.147 0.358 6.246 0.512 22.272 1.69 68.659 5.222 75.674 12.237 12.083 16.282 28.723 38.656 60.57 38.656 6.4 0 16.333-0.768 27.136-4.352l18.074-6.093-14.387-12.698c-55.501-48.794-99.942-99.994-132.147-152.218l-5.274-8.499-23.091 11.674 3.174 9.165c9.062 26.112 22.17 50.278 34.867 73.574 1.69 3.174 3.43 6.298 5.12 9.472-24.269-2.816-50.637-5.171-69.53-6.81l-6.707-0.614c-97.894-161.382-210.637-317.594-409.242-317.594v0z" />
<glyph unicode="&#xe025;" d="M619.11 693.248h-239.411v-590.848h-89.088v590.848h-239.411v79.206h567.91v-79.206zM819.2 105.933c-12.339-3.226-25.856-5.939-40.448-8.038-14.541-2.099-27.597-3.174-39.014-3.174-39.885 0-70.195 10.752-90.982 32.205-20.787 21.453-31.13 55.91-31.13 103.27v207.923h-44.442v55.296h44.442v112.333h65.792v-112.333h135.782v-55.296h-135.782v-178.125c0-20.531 0.461-36.608 1.382-48.077 0.973-11.622 4.198-22.374 9.779-32.41 5.171-9.37 12.186-16.128 21.146-20.48 9.011-4.301 22.682-6.451 41.165-6.451 10.752 0 21.965 1.536 33.587 4.762 11.674 3.123 20.070 5.734 25.19 7.834h3.533v-59.238z" horiz-adv-x="922" />
<glyph unicode="&#xe026;" d="M315.494 430.643h-133.018v-328.243h-49.459v328.243h-133.018v44.032h315.494v-44.032zM636.262 561.971h-186.214v-459.571h-69.274v459.571h-186.214v61.594h441.702v-61.594zM1024 693.248h-239.411v-590.848h-89.088v590.848h-239.411v79.206h567.91v-79.206z" />
<glyph unicode="&#xe027;" d="M620.698 306.227c0-32.205-6.451-60.928-19.456-86.272-12.902-25.344-30.72-46.336-53.402-63.027-26.214-19.661-55.091-33.69-86.477-42.035-31.488-8.346-71.322-12.493-119.603-12.493h-290.56v665.6h258.355c53.658 0 92.877-1.792 117.811-5.376 24.832-3.584 49.51-11.469 73.933-23.706 25.344-12.8 44.134-30.054 56.576-51.661 12.339-21.606 18.534-46.234 18.534-73.933 0-32.205-8.499-60.57-25.498-85.197-16.998-24.525-40.96-43.725-71.987-57.395v-3.584c43.52-8.653 78.029-26.522 103.475-53.658 25.6-27.085 38.298-62.874 38.298-107.264zM400.742 579.789c0 11.008-2.765 22.067-8.243 33.075-5.581 11.008-15.309 19.251-29.286 24.576-12.493 4.813-28.109 7.424-46.694 7.834-18.688 0.512-44.8 0.717-78.49 0.717h-16.077v-140.8h26.829c27.136 0 50.227 0.461 69.274 1.331 19.098 0.87 34.15 3.84 45.158 8.909 15.514 6.861 25.651 15.718 30.413 26.624 4.762 10.854 7.117 23.45 7.117 37.734zM442.317 308.941c0 21.146-4.147 37.427-12.288 48.998-8.192 11.418-22.067 20.019-41.728 25.702-13.363 3.891-31.795 5.939-55.347 6.246-23.45 0.307-47.974 0.461-73.626 0.461h-37.376v-165.837h12.544c48.179 0 82.637 0.154 103.475 0.461 20.787 0.307 39.987 4.147 57.549 11.622 17.818 7.475 30.106 17.357 36.813 29.696 6.656 12.288 9.984 26.522 9.984 42.65z" horiz-adv-x="666" />
<glyph unicode="&#xe028;" d="M311.091 102.4h-263.834l14.746 64.819h87.142l124.211 535.962h-87.142l14.746 64.819h263.782l-14.746-64.819h-87.194l-124.16-535.962h87.142l-14.694-64.819z" horiz-adv-x="512" />
<glyph unicode="&#xe029;" d="M611.789 372.941c0-47.872-5.222-89.651-15.718-125.235-10.496-35.686-27.699-65.28-51.661-88.934-22.733-22.477-49.357-38.861-79.821-49.203-30.464-10.342-65.894-15.514-106.394-15.514-41.37 0-77.466 5.478-108.186 16.384-30.72 10.957-56.576 27.034-77.568 48.333-23.962 24.218-41.165 53.504-51.661 87.808-10.496 34.304-15.718 76.39-15.718 126.362v395.059h87.808v-399.514c0-35.789 2.458-64 7.322-84.685s13.056-39.475 24.627-56.32c13.005-19.2 30.669-33.69 52.992-43.469 22.323-9.779 49.152-14.643 80.486-14.643 31.642 0 58.522 4.762 80.691 14.438 22.17 9.574 39.885 24.166 53.197 43.674 11.52 16.845 19.712 36.147 24.627 57.856 4.864 21.76 7.322 48.742 7.322 80.947v401.715h87.808v-395.059zM51.2 0v51.2h614.4v-51.2h-614.4z" horiz-adv-x="717" />
<glyph unicode="&#xe02a;" d="M659.661 102.4h-94.31l-65.28 185.498h-287.846l-65.28-185.498h-89.856l242.278 665.6h118.016l242.278-665.6zM472.832 363.93l-116.685 326.758-117.094-326.758h233.779z" horiz-adv-x="717" />
<glyph unicode="&#xe02b;" d="M0 870.4v-870.4h921.6v870.4h-921.6zM667.75 102.4l-65.28 185.498h-287.846l-65.28-185.498h-89.856l242.278 665.6h118.016l242.278-665.6h-94.31zM341.453 363.93h233.779l-116.685 326.758z" horiz-adv-x="922" />
<glyph unicode="&#xe02c;" d="M256 768v-102.4h716.8l-1.126 102.4zM256 512v-102.4h716.8l-1.126 102.4zM256 256v-102.4h716.8l-1.126 102.4zM25.6 716.8c0-42.415 34.385-76.8 76.8-76.8s76.8 34.385 76.8 76.8c0 42.415-34.385 76.8-76.8 76.8-42.415 0-76.8-34.385-76.8-76.8zM25.6 460.8c0-42.415 34.385-76.8 76.8-76.8s76.8 34.385 76.8 76.8c0 42.415-34.385 76.8-76.8 76.8-42.415 0-76.8-34.385-76.8-76.8zM25.6 204.8c0-42.415 34.385-76.8 76.8-76.8s76.8 34.385 76.8 76.8c0 42.415-34.385 76.8-76.8 76.8-42.415 0-76.8-34.385-76.8-76.8z" />
<glyph unicode="&#xe02d;" d="M75.264 640v116.224h-45.056v27.392c6.298-0.154 12.39 0.256 18.278 1.382s11.162 3.072 15.872 5.888c4.71 2.816 8.704 6.554 11.878 11.162 3.277 4.608 5.427 10.342 6.4 17.152h28.979v-179.2h-36.352zM24.32 519.322c2.765 8.806 6.861 16.486 12.288 23.040 5.478 6.554 12.288 11.674 20.582 15.36s17.818 5.478 28.57 5.478c8.192 0 15.974-1.28 23.398-3.84 7.424-2.56 13.978-6.246 19.61-11.008 5.632-4.762 10.086-10.65 13.466-17.664 3.328-7.014 5.018-14.848 5.018-23.552 0-9.062-1.434-16.845-4.352-23.296-2.97-6.502-6.81-12.237-11.622-17.254-4.762-5.069-10.189-9.626-16.23-13.722-6.042-4.096-12.134-8.141-18.278-12.134-6.144-4.045-12.083-8.346-17.92-12.954-5.786-4.608-10.957-9.984-15.411-16.128h84.736v-31.232h-131.533c0 10.394 1.434 19.456 4.454 27.136 3.021 7.68 7.066 14.541 12.134 20.634 5.171 6.042 11.162 11.622 18.074 16.742 6.963 5.12 14.182 10.342 21.914 15.616 3.942 2.714 8.090 5.478 12.544 8.346 4.454 2.816 8.499 5.888 12.134 9.318 3.635 3.379 6.758 7.27 9.216 11.52 2.509 4.25 3.738 9.165 3.738 14.592 0 8.704-2.56 15.514-7.526 20.378-5.069 4.864-11.52 7.27-19.354 7.27-5.325 0-9.728-1.229-13.466-3.686-3.635-2.458-6.605-5.734-8.806-9.728-2.253-3.994-3.789-8.448-4.762-13.312-0.922-4.864-1.382-9.728-1.382-14.49h-34.867c-0.307 10.24 0.87 19.763 3.635 28.57zM82.125 205.568c4.454 0.358 8.602 1.331 12.442 2.97 3.789 1.638 6.963 3.994 9.472 7.014 2.458 3.072 3.686 7.168 3.686 12.288 0 7.68-2.56 13.568-7.629 17.664-5.171 4.096-11.059 6.144-17.715 6.144-9.216 0-16.179-3.021-20.838-9.062-4.71-6.093-6.963-13.722-6.81-22.938h-34.56c0.358 9.216 1.997 17.613 5.018 25.242s7.168 14.131 12.544 19.558c5.325 5.478 11.776 9.677 19.302 12.698 7.526 3.021 15.872 4.454 25.088 4.454 7.219 0 14.336-1.075 21.504-3.174 7.219-2.15 13.619-5.325 19.354-9.626 5.683-4.25 10.342-9.472 13.978-15.616 3.584-6.144 5.325-13.21 5.325-21.248 0-8.704-2.048-16.384-6.246-23.040-4.198-6.656-10.445-11.162-18.79-13.568v-0.512c9.882-2.202 17.664-7.014 23.296-14.336 5.581-7.322 8.448-16.128 8.448-26.368 0-9.421-1.843-17.766-5.53-25.088-3.635-7.322-8.55-13.466-14.694-18.432-6.144-4.966-13.21-8.704-21.248-11.264-7.987-2.56-16.384-3.84-25.088-3.84-10.035 0-19.251 1.434-27.494 4.352-8.294 2.918-15.309 7.117-21.094 12.698-5.837 5.53-10.291 12.339-13.466 20.326-3.174 8.038-4.659 17.203-4.506 27.648h34.56c0.205-4.762 0.922-9.37 2.304-13.722 1.382-4.352 3.328-8.090 5.888-11.264 2.56-3.174 5.734-5.683 9.574-7.526 3.84-1.894 8.397-2.816 13.722-2.816 8.192 0 15.104 2.509 20.736 7.578 5.581 5.018 8.448 11.878 8.448 20.582 0 6.81-1.331 12.032-3.994 15.616-2.662 3.584-5.99 6.195-10.086 7.782-4.096 1.638-8.55 2.56-13.466 2.816-4.864 0.256-9.523 0.358-13.926 0.358v25.6c3.891-0.307 8.038-0.307 12.493 0.051zM256 768v-102.4h716.8l-1.126 102.4zM256 512v-102.4h716.8l-1.126 102.4zM256 256v-102.4h716.8l-1.126 102.4z" />
<glyph unicode="&#xe02e;" d="M665.6 512h-614.4v102.4h614.4v-102.4zM768 102.4l-716.8 0.051v102.349h716.8v-102.4zM972.8 716.8l-921.6 0.051v102.349h921.6v-102.4zM972.8 307.2h-921.6v102.4h921.6v-102.4z" />
<glyph unicode="&#xe02f;" d="M972.8 716.8l-921.6 0.051v102.349h921.6v-102.4zM819.2 512h-614.4v102.4h614.4v-102.4zM972.8 307.2l-921.6 0.051v102.349h921.6v-102.4zM819.2 102.4h-614.4v102.4h614.4v-102.4z" />
<glyph unicode="&#xe030;" d="M358.4 614.4h614.4v-102.4h-614.4v102.4zM256 204.8h716.8v-102.349l-716.8-0.051v102.4zM51.2 819.2h921.6v-102.349l-921.6-0.051v102.4zM51.2 409.6h921.6v-102.4h-921.6v102.4z" />
<glyph unicode="&#xe031;" d="M358.4 358.4l-204.8-202.65v102.4h-102.4v204.8h102.4v102.4l204.8-206.95zM921.6 512h-512v102.4h512v-102.4zM972.8 102.4l-563.2 0.051v102.349h563.2v-102.4zM972.8 716.8l-921.6 0.051v102.349h921.6v-102.4zM819.2 307.2h-409.6v102.4h409.6v-102.4z" />
<glyph unicode="&#xe032;" d="M256 565.35v-102.4h102.4v-204.8h-102.4v-102.4l-204.8 202.65 204.8 206.95zM921.6 512h-512v102.4h512v-102.4zM972.8 102.4l-563.2 0.051v102.349h563.2v-102.4zM972.8 716.8l-921.6 0.051v102.349h921.6v-102.4zM819.2 307.2h-409.6v102.4h409.6v-102.4z" />
<glyph unicode="&#xe033;" d="M459.315 479.386c-22.477 19.456-41.984 36.301-60.826 52.582 69.734 93.952 190.208 112.794 274.432 39.578 72.243-62.771 140.186-131.43 203.469-203.264 65.997-74.906 56.832-185.856-12.698-256.666-71.578-72.909-181.709-81.357-260.608-14.438-44.8 37.99-82.637 84.275-123.085 126.31 60.774 33.946 111.155 23.091 155.443-36.198 30.464-40.755 79.155-61.133 125.082-36.454 29.491 15.872 59.392 53.043 64.922 84.89 5.12 29.542-14.95 70.298-36.096 96.154-40.602 49.766-89.754 92.621-135.526 138.138-73.216 72.909-113.613 75.059-194.509 9.37zM565.555 442.778c21.658-19.456 40.858-36.762 59.546-53.606-71.27-93.389-189.235-112.23-273.869-39.168-72.448 62.515-140.442 131.174-203.571 203.162-68.096 77.67-57.754 188.774 15.718 260.25 73.216 71.219 182.63 76.493 261.018 8.55 43.264-37.478 81.306-80.947 121.754-121.754-66.202-39.475-114.637-18.688-161.638 37.12-39.936 47.514-92.518 53.914-135.885 28.57-44.134-25.856-64.205-65.536-51.456-114.79 6.144-23.808 22.477-47.002 39.578-65.536 42.598-46.131 88.166-89.498 132.71-133.837 73.165-72.704 112.742-74.854 196.096-8.96z" />
<glyph unicode="&#xe034;" d="M460.8 870.298c-226.202 0-409.6-183.347-409.6-409.549 0-226.253 183.347-409.549 409.6-409.549s409.6 183.296 409.6 409.549c0 226.202-183.398 409.549-409.6 409.549zM460.8 133.069c-180.992 0-327.68 146.739-327.68 327.731 0 180.941 146.688 327.578 327.68 327.578 180.992 0 327.68-146.637 327.68-327.578 0-181.043-146.688-327.731-327.68-327.731zM419.84 563.149c0-33.946-27.494-61.44-61.389-61.44-33.946 0-61.491 27.494-61.491 61.44s27.546 60.979 61.491 60.979c33.894 0 61.389-27.034 61.389-60.979zM624.64 563.149c0-33.946-27.546-61.44-61.44-61.44-33.894 0-61.44 27.494-61.44 61.44 0 33.946 27.546 60.979 61.44 60.979 33.894 0 61.44-27.034 61.44-60.979zM647.987 416.307c-20.122 0-36.403-13.67-36.403-30.669h-0.051c-19.814-69.99-67.533-102.554-150.784-102.656-83.251 0.102-136.090 32.666-150.784 102.656v0c0 16.998-16.282 30.669-36.352 30.669s-36.403-13.67-36.403-30.669c0-94.208 100.096-170.598 223.59-170.598s223.539 76.39 223.59 170.598c-0.051 16.947-16.333 30.669-36.403 30.669z" horiz-adv-x="922" />
<glyph unicode="&#xe035;" d="M512 716.8l-102.4-153.6-51.2 51.2-102.4-153.6h409.6zM345.6 691.2c0-21.208 17.192-38.4 38.4-38.4s38.4 17.192 38.4 38.4c0 21.208-17.192 38.4-38.4 38.4-21.208 0-38.4-17.192-38.4-38.4zM768 870.4h-614.4c-28.262 0-51.2-22.938-51.2-51.2v-716.8c0-28.262 22.938-51.2 51.2-51.2h614.4c28.262 0 51.2 22.938 51.2 51.2v716.8c0 28.262-22.938 51.2-51.2 51.2zM768 102.4h-614.4v716.8h614.4v-716.8zM256 358.4h409.6v-51.2h-409.6zM256 256h409.6v-51.2h-409.6z" horiz-adv-x="922" />
<glyph unicode="&#xe036;" d="M227.174 513.843c0-6.451 0.87-11.059 2.509-13.875 1.69-2.714 5.018-4.096 9.933-4.096 1.536 0 3.379 0 5.53 0 2.15 0 4.608 0.307 7.373 0.973v-36.403c-1.843-0.614-4.198-1.28-7.168-2.099-2.918-0.768-5.939-1.434-8.96-2.048-3.072-0.614-6.144-1.126-9.216-1.382-3.072-0.307-5.683-0.461-7.834-0.461-10.752 0-19.661 2.15-26.726 6.451-7.066 4.301-11.674 11.776-13.824 22.579-10.445-10.189-23.245-17.562-38.451-22.17-15.206-4.608-29.901-6.912-44.032-6.912-10.752 0-21.043 1.434-30.874 4.403-9.83 2.918-18.534 7.219-26.061 12.902-7.526 5.632-13.517 12.902-17.971 21.658-4.454 8.755-6.656 18.944-6.656 30.669 0 14.746 2.662 26.726 8.038 35.891 5.376 9.216 12.442 16.435 21.197 21.658 8.755 5.222 18.586 8.96 29.491 11.264 10.906 2.304 21.862 4.096 32.973 5.274 9.523 1.894 18.586 3.174 27.187 3.994 8.602 0.717 16.179 2.048 22.835 3.891 6.605 1.843 11.827 4.71 15.667 8.55 3.789 3.789 5.734 9.523 5.734 17.254 0 6.758-1.638 12.288-4.864 16.589-3.226 4.301-7.219 7.578-11.981 9.882-4.762 2.304-10.086 3.84-15.872 4.608-5.837 0.768-11.366 1.178-16.589 1.178-14.746 0-26.88-3.072-36.403-9.216-9.523-6.144-14.899-15.667-16.128-28.57h-52.531c0.922 15.36 4.608 28.109 11.059 38.195 6.451 10.138 14.694 18.278 24.678 24.474 9.984 6.144 21.248 10.445 33.843 12.902 12.595 2.458 25.498 3.686 38.707 3.686 11.674 0 23.194-1.229 34.56-3.686 11.366-2.458 21.555-6.451 30.669-11.981 9.062-5.478 16.333-12.646 21.862-21.402 5.53-8.755 8.294-19.456 8.294-32.051v-122.573zM174.643 580.198c-7.987-5.274-17.818-8.397-29.491-9.421-11.674-1.126-23.347-2.714-35.021-4.864-5.53-0.922-10.906-2.202-16.128-3.891-5.222-1.69-9.83-3.994-13.824-6.912-3.994-2.97-7.168-6.81-9.472-11.571-2.304-4.762-3.43-10.496-3.43-17.254 0-5.837 1.69-10.752 5.069-14.746 3.379-3.994 7.424-7.168 12.186-9.472 4.762-2.304 9.984-3.942 15.667-4.864 5.683-0.922 10.803-1.382 15.411-1.382 5.837 0 12.134 0.819 18.893 2.304 6.81 1.587 13.158 4.198 19.149 7.885 5.99 3.686 10.957 8.346 14.95 14.029 3.994 5.683 5.99 12.698 5.99 20.992v39.168zM285.235 789.862h52.531v-121.651h0.922c3.686 5.837 8.141 11.059 13.363 15.718 5.222 4.608 10.957 8.499 17.254 11.776 6.298 3.174 12.902 5.632 19.814 7.373 6.912 1.69 13.722 2.56 20.48 2.56 18.739 0 35.072-3.328 49.050-9.882 13.978-6.656 25.6-15.718 34.765-27.187 9.216-11.571 16.128-24.934 20.736-40.346 4.608-15.36 6.912-31.744 6.912-49.306 0-15.923-2.048-31.488-6.195-46.541-4.045-15.155-10.394-28.416-18.842-39.987-8.448-11.52-19.149-20.685-32-27.648-12.902-6.912-28.109-10.342-45.619-10.342-7.987 0-16.026 0.563-24.218 1.587-8.141 1.075-15.872 3.174-23.245 6.246-7.373 3.072-14.080 7.066-20.070 11.981-5.99 4.864-10.957 11.315-14.95 19.354h-0.922v-32.717h-49.766v329.011zM468.634 579.738c0 10.752-1.382 21.197-4.147 31.283-2.765 10.189-6.912 19.2-12.442 27.034-5.53 7.782-12.442 14.080-20.736 18.842-8.294 4.813-17.818 7.168-28.57 7.168-22.118 0-38.758-7.629-49.971-23.040-11.264-15.36-16.845-35.789-16.845-61.286 0-11.981 1.434-23.142 4.352-33.382 2.918-10.291 7.322-19.149 13.158-26.522 5.837-7.424 12.8-13.261 20.992-17.562 8.141-4.301 17.562-6.451 28.314-6.451 11.981 0 22.118 2.509 30.413 7.373 8.294 4.915 15.104 11.315 20.48 19.098 5.376 7.834 9.216 16.742 11.52 26.778 2.304 9.984 3.482 20.224 3.482 30.669zM726.221 619.366c-2.15 14.746-8.090 25.907-17.766 33.382-9.677 7.578-21.862 11.315-36.608 11.315-6.758 0-14.029-1.126-21.658-3.43-7.68-2.304-14.746-6.605-21.146-12.902-6.502-6.298-11.878-15.053-16.179-26.266-4.301-11.264-6.451-25.907-6.451-43.981 0-9.83 1.126-19.712 3.482-29.491 2.304-9.83 5.99-18.586 11.059-26.266 5.069-7.68 11.622-13.978 19.558-18.688 7.987-4.762 17.664-7.168 29.030-7.168 15.36 0 28.006 4.813 37.99 14.285 9.984 9.523 16.179 22.886 18.688 40.090h52.531c-4.915-31.027-16.691-54.733-35.277-71.219-18.586-16.435-43.264-24.627-73.933-24.627-18.739 0-35.226 3.123-49.562 9.472-14.285 6.298-26.368 14.899-36.198 25.805-9.83 10.906-17.254 23.91-22.323 38.963-5.069 15.053-7.578 31.283-7.578 48.845 0 17.818 2.458 34.56 7.373 50.227 4.915 15.718 12.288 29.235 22.118 40.806 9.83 11.52 22.016 20.531 36.608 27.187 14.592 6.605 31.744 9.882 51.354 9.882 13.824 0 26.982-1.792 39.373-5.325 12.442-3.533 23.501-8.858 33.178-15.923 9.677-7.117 17.613-15.974 23.757-26.778 6.144-10.752 9.83-23.501 11.059-38.246h-52.48zM1018.522 461.466c7.322 7.168 7.322 18.688-0.102 25.805l-47.36 45.107c-7.424 7.014-19.507 7.014-26.931-0.102l-304.128-327.475-95.283 114.125c-7.322 7.014-19.507 7.014-26.931 0l-47.514-45.619c-7.424-7.117-7.424-18.79-0.051-25.856l144.179-145.050h51.2l352.922 359.066z" />
<glyph unicode="&#xe037;" d="M118.784 362.291c3.533-6.861 8.243-12.39 14.131-16.589 5.888-4.25 12.8-7.373 20.685-9.421 7.936-2.048 16.128-3.072 24.576-3.072 5.734 0 11.878 0.461 18.432 1.485 6.554 0.973 12.698 2.816 18.432 5.53 5.734 2.714 10.496 6.502 14.336 11.264 3.84 4.762 5.734 10.906 5.734 18.227 0 7.936-2.509 14.336-7.578 19.302-5.069 4.915-11.674 9.011-19.866 12.288-8.192 3.277-17.459 6.144-27.853 8.602-10.394 2.458-20.89 5.171-31.59 8.192-10.906 2.714-21.555 6.093-31.949 10.035-10.394 3.942-19.661 9.062-27.853 15.36-8.243 6.298-14.797 14.131-19.866 23.552-4.966 9.318-7.526 20.685-7.526 34.099 0 15.002 3.226 28.058 9.626 39.117 6.451 11.059 14.797 20.275 25.19 27.648 10.394 7.373 22.118 12.851 35.226 16.384 13.107 3.533 26.214 5.325 39.322 5.325 15.309 0 29.952-1.741 44.032-5.12 14.080-3.43 26.573-8.96 37.478-16.589 10.957-7.629 19.61-17.408 26.010-29.286 6.4-11.878 9.626-26.266 9.626-43.213h-62.259c-0.563 8.755-2.355 15.974-5.53 21.709-3.123 5.734-7.27 10.24-12.442 13.517-5.222 3.277-11.162 5.581-17.869 6.963-6.656 1.382-13.978 2.048-21.914 2.048-5.171 0-10.394-0.563-15.565-1.638-5.171-1.075-9.882-3.021-14.131-5.734-4.25-2.714-7.68-6.144-10.445-10.24-2.765-4.096-4.096-9.318-4.096-15.565 0-5.734 1.075-10.394 3.277-13.926 2.202-3.533 6.502-6.861 12.902-9.882s15.309-5.99 26.624-9.011c11.315-3.021 26.163-6.861 44.442-11.469 5.427-1.075 13.005-3.072 22.733-5.939 9.677-2.867 19.354-7.424 28.877-13.722 9.523-6.298 17.818-14.643 24.781-25.19 6.963-10.496 10.445-23.91 10.445-40.346 0-13.363-2.611-25.805-7.782-37.274-5.222-11.469-12.902-21.35-23.142-29.696-10.291-8.346-22.938-14.797-38.093-19.456-15.155-4.608-32.717-6.963-52.634-6.963-16.128 0-31.744 1.997-46.899 5.939-15.155 3.994-28.57 10.189-40.141 18.637-11.571 8.448-20.787 19.251-27.648 32.358-6.81 13.158-10.086 28.723-9.83 46.746h62.259c0.051-9.83 1.792-18.176 5.325-24.986zM448.922 582.656l68.403-201.114h0.819l64.717 201.114h90.522v-292.454h-60.211v207.258h-0.819l-71.68-207.258h-49.562l-71.68 205.21h-0.819v-205.21h-60.211v292.454h90.522zM794.214 362.291c3.533-6.861 8.243-12.39 14.131-16.589 5.888-4.25 12.749-7.373 20.685-9.421 7.936-2.048 16.128-3.072 24.576-3.072 5.734 0 11.878 0.461 18.432 1.485 6.554 0.973 12.698 2.816 18.432 5.53 5.734 2.714 10.496 6.502 14.336 11.264 3.84 4.762 5.734 10.906 5.734 18.227 0 7.936-2.509 14.336-7.578 19.302-5.069 4.915-11.674 9.011-19.917 12.288-8.192 3.277-17.459 6.144-27.853 8.602-10.394 2.458-20.89 5.171-31.59 8.192-10.906 2.714-21.555 6.093-31.949 10.035-10.394 3.942-19.661 9.062-27.853 15.36-8.192 6.298-14.797 14.131-19.866 23.552-5.069 9.421-7.578 20.787-7.578 34.202 0 15.002 3.226 28.058 9.626 39.117 6.451 11.059 14.848 20.275 25.19 27.648 10.394 7.373 22.118 12.851 35.226 16.384 13.107 3.533 26.214 5.325 39.322 5.325 15.309 0 29.952-1.741 44.032-5.12 14.080-3.43 26.573-8.96 37.478-16.589 10.957-7.629 19.61-17.408 26.010-29.286 6.4-11.878 9.626-26.266 9.626-43.213h-62.259c-0.563 8.755-2.406 15.974-5.53 21.709-3.123 5.734-7.27 10.24-12.442 13.517-5.222 3.277-11.162 5.581-17.818 6.963-6.707 1.331-13.978 2.048-21.914 2.048-5.171 0-10.342-0.563-15.565-1.638-5.171-1.075-9.882-3.021-14.131-5.734-4.25-2.714-7.68-6.144-10.394-10.24-2.765-4.096-4.096-9.318-4.096-15.565 0-5.734 1.075-10.394 3.277-13.926 2.202-3.533 6.502-6.861 12.902-9.882 6.4-3.021 15.309-5.99 26.624-9.011 11.315-3.021 26.163-6.861 44.442-11.469 5.427-1.075 13.005-3.072 22.733-5.939 9.677-2.867 19.302-7.424 28.877-13.722 9.523-6.298 17.818-14.643 24.781-25.19 6.963-10.547 10.445-24.013 10.445-40.397 0-13.363-2.611-25.805-7.782-37.274-5.222-11.469-12.902-21.35-23.142-29.696-10.291-8.346-22.938-14.797-38.093-19.456-15.155-4.608-32.717-6.963-52.634-6.963-16.128 0-31.744 1.997-46.899 5.939-15.155 3.994-28.57 10.189-40.141 18.637-11.622 8.448-20.838 19.251-27.648 32.358-6.861 13.107-10.086 28.672-9.83 46.694h62.259c0-9.83 1.792-18.176 5.325-24.986z" />
<glyph unicode="&#xe038;" d="M512 665.6c-113.101 0-204.8-91.699-204.8-204.8s91.699-204.8 204.8-204.8c113.101 0 204.8 91.699 204.8 204.8s-91.699 204.8-204.8 204.8zM358.4 409.6v102.4h307.2v-102.4h-307.2z" />
<glyph unicode="&#xe039;" d="M102.4 153.6l307.2 512 204.8-256 307.2 358.4-307.2-614.4-204.8 256-307.2-256z" />
<glyph unicode="&#xe03a;" d="M102.4 204.8h819.2v-102.4h-819.2z" />
<glyph unicode="&#xe03b;" d="M921.6 51.2v204.8l-204.8-204.8h204.8zM512 51.2l409.6 409.6v102.4l-512-512h102.4zM102.4 51.2h102.4l716.8 716.8v102.4l-819.2-819.2z" />
<glyph unicode="&#xe03c;" d="M512 665.6c-113.101 0-204.8-91.699-204.8-204.8s91.699-204.8 204.8-204.8c113.101 0 204.8 91.699 204.8 204.8s-91.699 204.8-204.8 204.8zM614.4 409.6h-153.6v204.8h51.2v-153.6h102.4v-51.2z" />
<glyph unicode="&#xe03d;" d="M795.546 609.229l-157.85 157.798 78.899 78.95c39.475 38.4 52.634 26.317 78.95 0l78.848-78.95c26.317-26.266 38.4-41.062 0-78.899l-78.848-78.899zM295.731 109.414l-193.331-35.482 35.482 193.28 447.283 447.232 157.747-157.85z" />
<glyph unicode="&#xe03e;" d="M870.4 665.6h-358.4c-28.16 0-51.2-23.040-51.2-51.2v-460.8c0-28.16 23.040-51.2 51.2-51.2h358.4c28.16 0 51.2 23.040 51.2 51.2v460.8c0 28.16-23.040 51.2-51.2 51.2zM870.4 204.851l-358.4-0.051v33.69c0 0-2.355 21.76 45.056 41.37 23.398 9.677 51.046 28.314 100.608 34.202-15.258 10.701-21.914 32.819-34.918 63.539-0.205 0.461-0.41 1.024-0.563 1.485-2.97-0.512-6.042-0.512-8.243 0.768-6.042 3.482-9.677 22.579-9.779 31.846-0.154 13.926 7.322 12.544 7.322 12.544s0.256 0.051 0.614 0.154c-0.051 1.075-0.102 2.202-0.102 3.277 0 13.056-2.662 34.048 0.819 45.517 5.376 17.818 11.878 37.478 26.214 37.478 13.261 0 4.25 15.411 20.531 20.531 16.794 5.325 44.442-4.045 50.022-4.045 8.038 0 28.365-5.837 42.394-19.61 9.882-9.677 8.755-16.384 14.182-34.253 3.584-11.827 0.819-33.075 0.819-45.67 0-1.075-0.051-2.202-0.102-3.328 0.205-0.051 0.41-0.102 0.41-0.102s7.475 1.382 7.322-12.544c-0.102-9.318-3.738-28.365-9.779-31.846-2.15-1.229-5.12-1.28-7.987-0.819-0.154-0.461-0.358-0.922-0.512-1.382-12.902-30.464-20.019-52.736-35.123-63.539 50.074-5.786 77.875-24.525 101.427-34.253 47.565-19.456 47.77-38.502 47.77-38.502v-36.454zM409.6 409.651l-256-0.051v33.69c0 0-2.355 21.76 45.056 41.37 23.398 9.728 51.046 28.314 100.608 34.253-15.258 10.701-21.914 32.819-34.918 63.539-0.205 0.461-0.41 1.024-0.563 1.485-2.97-0.512-6.042-0.512-8.243 0.768-6.042 3.482-9.728 22.579-9.83 31.846-0.154 13.926 7.373 12.544 7.373 12.544s0.256 0.102 0.614 0.154c-0.051 1.075-0.154 2.202-0.154 3.277 0 13.056-2.714 34.048 0.819 45.517 5.376 17.818 11.878 37.478 26.214 37.478 13.261 0 4.25 15.411 20.531 20.531 16.794 5.325 44.442-3.994 50.022-3.994 8.090 0 28.365-5.837 42.394-19.61 9.882-9.677 8.806-16.384 14.182-34.253 3.584-11.827 0.819-33.075 0.819-45.67 0-1.075-0.051-2.202-0.102-3.328 0.205-0.051 0.41-0.102 0.41-0.102s0.41 0 0.768 0v10.906c0 42.394 34.406 76.8 76.8 76.8h76.8v102.4c0 28.16-23.040 51.2-51.2 51.2h-358.4c-28.16 0-51.2-23.040-51.2-51.2v-460.8c0-28.16 23.040-51.2 51.2-51.2h256v102.451zM398.387 583.936c-0.154-0.461-0.358-0.922-0.512-1.382-12.954-30.464-20.019-52.736-35.123-63.539 18.637-2.15 33.434-6.298 46.848-10.906v80.691c-1.024-1.741-2.048-3.379-3.226-4.096-2.15-1.229-5.12-1.229-7.987-0.768z" />
<glyph unicode="&#xe03f;" d="M972.8 306.125v-101.325c0-14.285-11.264-25.6-25.6-25.6h-51.2v153.6h50.842c14.336 0 25.958-12.39 25.958-26.675zM972.8 510.925v-101.325c0-14.285-11.264-25.6-25.6-25.6h-51.2v153.6h50.842c14.336 0 25.958-12.39 25.958-26.675zM972.8 715.725v-101.325c0-14.285-11.264-25.6-25.6-25.6h-51.2v153.6h50.842c14.336 0 25.958-12.39 25.958-26.675zM819.251 870.4h-614.502c-28.109 0-51.149-23.040-51.149-51.149v-716.851c0-28.16 23.040-51.149 51.149-51.149h614.451c28.16 0 51.2 22.989 51.2 51.149v716.851c0 28.109-23.040 51.149-51.149 51.149zM497.818 256.614c-54.118 4.454-114.483 39.834-145.766 80.026-67.226 86.17-34.406 184.627-34.406 184.627s-52.224 16.128-57.088 17.613c-4.915 1.434-6.349 7.424-1.792 9.882 4.506 2.406 119.296 63.744 123.699 66.099 4.403 2.355 7.27 0.922 9.216-2.765 1.946-3.686 60.57-113.152 63.539-118.784 3.021-5.632-0.461-13.107-5.171-11.674-4.915 1.434-60.928 18.381-60.928 18.381s-19.866-83.712 30.208-127.744c20.787-18.381 40.294-33.946 82.022-40.909 41.677-6.963 79.923 15.206 79.923 15.206l32.358-66.048c0.051 0-54.016-29.030-115.814-23.91zM780.8 371.098c-4.557-2.355-119.808-62.976-124.211-65.331s-7.27-0.87-9.216 2.867c-1.946 3.738-59.699 113.562-62.771 119.245-2.97 5.581 0.563 13.056 5.274 11.622 4.813-1.485 60.774-18.842 60.774-18.842s20.48 83.558-29.286 127.949c-20.736 18.483-39.987 34.304-81.715 41.523-41.626 7.219-79.974-14.643-79.974-14.643l-31.898 66.202c0 0 54.272 28.672 116.019 23.194 54.016-4.813 114.176-40.704 145.254-81.101 66.56-86.682 33.126-184.832 33.126-184.832s52.019-16.435 56.832-18.022c4.915-1.434 6.349-7.475 1.792-9.83z" />
<glyph unicode="&#xe040;" d="M256 460.8l153.6-153.6h-102.4c-1.946-49.254 7.322-146.278 75.571-204.8 0 0-177.971 39.014-177.971 204.8h-102.4l153.6 153.6zM102.4 768h51.2v-51.2h-51.2v51.2zM102.4 870.4h51.2v-51.2h-51.2v51.2zM204.8 768h307.2v-51.2h-307.2v51.2zM204.8 870.4h307.2v-51.2h-307.2v51.2zM102.4 563.2h51.2v-51.2h-51.2v51.2zM102.4 665.6h51.2v-51.2h-51.2v51.2zM204.8 563.2h204.8v-51.2h-204.8v51.2zM204.8 665.6h307.2v-51.2h-307.2v51.2zM870.4 563.2h-358.4c-28.16 0-51.2-23.040-51.2-51.2v-460.8c0-28.16 23.040-51.2 51.2-51.2h358.4c28.16 0 51.2 23.040 51.2 51.2v460.8c0 28.16-23.040 51.2-51.2 51.2zM870.4 102.451l-358.4-0.051v33.69c0 0-2.355 21.76 45.056 41.37 23.398 9.677 51.046 28.314 100.608 34.202-15.258 10.701-21.914 32.819-34.918 63.539-0.205 0.461-0.41 1.024-0.563 1.485-2.97-0.512-6.042-0.512-8.243 0.768-6.042 3.482-9.677 22.579-9.779 31.846-0.154 13.926 7.322 12.544 7.322 12.544s0.256 0.051 0.614 0.154c-0.051 1.075-0.102 2.202-0.102 3.277 0 13.056-2.662 34.048 0.819 45.517 5.376 17.818 11.878 37.478 26.214 37.478 13.261 0 4.25 15.411 20.531 20.531 16.794 5.325 44.442-4.045 50.022-4.045 8.038 0 28.365-5.837 42.394-19.61 9.882-9.677 8.755-16.384 14.182-34.253 3.584-11.827 0.819-33.075 0.819-45.67 0-1.075-0.051-2.202-0.102-3.328 0.205-0.051 0.41-0.102 0.41-0.102s7.475 1.382 7.322-12.544c-0.102-9.318-3.738-28.365-9.779-31.846-2.15-1.229-5.12-1.28-7.987-0.819-0.154-0.461-0.358-0.922-0.512-1.382-12.902-30.464-20.019-52.736-35.123-63.539 50.074-5.786 77.875-24.525 101.427-34.253 47.565-19.456 47.77-38.502 47.77-38.502v-36.454z" />
<glyph unicode="&#xe041;" d="M921.6 102.502l-819.2-0.102v77.005c0 0-5.427 49.715 103.014 94.618 53.504 22.17 116.634 64.717 229.939 78.234-34.867 24.474-50.125 75.059-79.872 145.254-0.461 1.075-0.922 2.304-1.331 3.43-6.81-1.126-13.824-1.126-18.842 1.792-13.773 7.936-22.118 51.558-22.374 72.755-0.358 31.795 16.794 28.672 16.794 28.672s0.563 0.154 1.382 0.307c-0.102 2.509-0.256 5.018-0.256 7.475 0 29.85-6.144 77.773 1.843 104.090 12.288 40.755 27.136 85.709 59.904 85.709 30.362 0 9.728 35.174 46.899 46.95 38.4 12.134 101.632-9.216 114.381-9.216 18.432 0 64.87-13.363 96.87-44.8 22.579-22.17 20.070-37.478 32.461-78.336 8.192-27.034 1.894-75.622 1.894-104.397 0-2.509-0.154-5.069-0.256-7.578 0.512-0.102 0.922-0.205 0.922-0.205s17.101 3.123 16.691-28.672c-0.205-21.248-8.55-64.819-22.323-72.755-4.915-2.867-11.725-2.918-18.278-1.843-0.41-1.024-0.87-2.099-1.178-3.123-29.542-69.632-45.722-120.525-80.282-145.203 114.432-13.21 178.022-56.115 231.782-78.336 108.954-44.851 109.414-88.371 109.414-88.371v-83.354z" />
<glyph unicode="&#xe042;" d="M716.8 870.4h204.8v-204.8h-204.8zM410.010 870.4h204.8v-204.8h-204.8zM102.4 870.4h204.8v-204.8h-204.8zM716.8 563.2h204.8v-204.8h-204.8zM410.010 563.2h204.8v-204.8h-204.8zM102.4 563.2h204.8v-204.8h-204.8zM716.8 256h204.8v-204.8h-204.8zM410.010 256h204.8v-204.8h-204.8zM102.4 256h204.8v-204.8h-204.8z" />
<glyph unicode="&#xe043;" d="M858.726 471.654c0 188.211-152.576 331.264-340.838 331.264-79.514 0-152.525-27.494-210.483-73.165l103.731-134.963c29.235 23.501 66.304 37.632 106.752 37.632 94.157 0 170.445-66.714 170.445-160.819h-114.074l199.27-231.168 199.27 231.219h-114.074zM506.112 289.126c-94.157 0-170.445 66.662-170.445 160.819h114.074l-199.27 231.219-199.27-231.219h114.074c0-188.211 152.576-331.264 340.838-331.264 79.514 0 152.525 27.494 210.483 73.165l-103.782 134.912c-29.184-23.45-66.253-37.632-106.701-37.632z" />
<glyph unicode="&#xe044;" d="M512 870.4c-226.202 0-409.6-183.398-409.6-409.6s183.398-409.6 409.6-409.6c226.202 0 409.6 183.398 409.6 409.6s-183.398 409.6-409.6 409.6zM750.49 435.661l-104.294-61.85c-23.245-13.875-61.952-36.301-85.299-50.227l-105.421-61.747c-23.194-13.67-45.875-2.611-45.875 24.678v124.416c0 27.494 0 72.294 0 99.584v124.467c0 27.341 22.682 38.451 45.875 24.781l107.52-61.952c23.142-13.875 60.979-36.352 84.173-50.022l103.68-61.952c23.142-13.773 22.733-36.198-0.358-50.176z" />
<glyph unicode="&#xe045;" d="M512 870.4c-226.202 0-409.6-183.398-409.6-409.6s183.398-409.6 409.6-409.6c226.202 0 409.6 183.398 409.6 409.6s-183.398 409.6-409.6 409.6zM460.8 307.2c0-28.262-22.938-51.2-51.2-51.2s-51.2 22.938-51.2 51.2v307.2c0 28.262 22.938 51.2 51.2 51.2s51.2-22.938 51.2-51.2v-307.2zM665.6 307.2c0-28.262-22.938-51.2-51.2-51.2s-51.2 22.938-51.2 51.2v307.2c0 28.262 22.938 51.2 51.2 51.2s51.2-22.938 51.2-51.2v-307.2z" />
<glyph unicode="&#xe046;" d="M102.4 460.8l409.6-334.387v229.888c105.523 4.147 233.011-20.89 358.4-167.168 0 0-3.174 376.166-358.4 376.166v229.888l-409.6-334.387z" />
<glyph unicode="&#xe047;" d="M665.6 795.187v-229.888c355.226 0 358.4-376.166 358.4-376.166-125.389 146.33-252.877 171.315-358.4 167.168v-229.888l-409.6 334.387 409.6 334.387zM409.6 242.125l-284.262 218.675 284.262 218.931v104.499l-409.6-323.431 409.6-323.174v104.499z" />
<glyph unicode="&#xe048;" d="M921.6 460.8l-409.6 307.2v-204.8h-409.6v-204.8h409.6v-204.8z" />
<glyph unicode="&#xe049;" d="M512 281.6c-98.97 0-179.2 80.23-179.2 179.2s80.23 179.2 179.2 179.2v-128l153.6 153.6-153.6 153.6v-102.4c-141.363 0-256-114.637-256-256s114.637-256 256-256c70.707 0 134.707 28.672 181.043 74.957l-54.323 54.323c-32.461-32.41-77.261-52.48-126.72-52.48z" />
<glyph unicode="&#xe04a;" d="M563.2 563.2l-102.4-204.8-102.4 102.4-102.4-204.8h512zM358.4 563.2c0-28.277 22.923-51.2 51.2-51.2s51.2 22.923 51.2 51.2c0 28.277-22.923 51.2-51.2 51.2-28.277 0-51.2-22.923-51.2-51.2zM819.2 716.8v-512h-614.4v512h614.4zM870.4 768h-716.8v-614.4h716.8v614.4zM81.92 378.88l20.48 20.48-61.44 61.44 61.44 61.44-20.48 20.48-81.92-81.92 81.92-81.92zM1024 460.8l-81.92 81.92-20.48-20.48 61.44-61.44-61.44-61.44 20.48-20.48 81.92 81.92z" />
<glyph unicode="&#xe04b;" d="M512.051 204.8l-358.451 358.093 204.8 0.307v307.2h307.2v-307.2h204.8l-358.349-358.4zM819.149 307.2v-153.6h-614.4v153.6h-102.4v-256h819.2v256z" />
<glyph unicode="&#xe04c;" d="M870.4 870.4h-716.8c-56.576 0-102.4-45.824-102.4-102.4v-614.4c0-56.576 45.824-102.4 102.4-102.4h716.8c56.576 0 102.4 45.824 102.4 102.4v614.4c0 56.576-45.824 102.4-102.4 102.4zM256 358.4c-56.576 0-102.4 45.824-102.4 102.4s45.824 102.4 102.4 102.4 102.4-45.824 102.4-102.4c0-56.576-45.824-102.4-102.4-102.4zM512 358.4c-56.576 0-102.4 45.824-102.4 102.4s45.824 102.4 102.4 102.4 102.4-45.824 102.4-102.4c0-56.576-45.824-102.4-102.4-102.4zM768 358.4c-56.576 0-102.4 45.824-102.4 102.4s45.824 102.4 102.4 102.4 102.4-45.824 102.4-102.4c0-56.576-45.824-102.4-102.4-102.4z" />
<glyph unicode="&#xe04d;" d="M458.138 332.083c56.781 28.314 106.547 52.634 155.802 77.875 26.88 13.773 53.299 28.416 79.258 43.776 37.222 22.067 39.219 51.456 2.714 72.806-106.701 62.566-214.477 123.29-321.843 184.781-18.893 10.854-37.274 22.682-56.576 32.768-39.168 20.634-69.683 4.506-70.042-39.424-1.126-138.598-1.178-277.248 0-415.898 0.41-46.541 16.794-56.678 65.075-49.254 16.128 2.458 35.942 4.813 44.749-11.878 9.011-17.050 7.936-38.042-9.062-51.2-38.963-30.208-79.872-58.317-130.509-64.102-33.075-3.789-51.558 12.442-56.678 45.67-1.843 11.878-2.15 24.115-2.202 36.198-0.102 196.966-0.256 393.933 0.154 590.848 0.051 15.872-1.485 31.846 8.806 47.309 25.344 37.888 56.678 48.179 97.843 27.802 25.498-12.646 50.227-26.829 75.264-40.448 157.542-85.709 315.034-171.418 472.525-257.126 0.973-0.512 2.15-0.717 3.021-1.331 25.19-18.33 59.085-30.464 59.034-68.915-0.051-38.656-32.512-52.275-59.955-67.328-114.227-62.515-228.915-124.211-343.706-185.805-51.405-27.597-90.112-5.171-90.47 51.968-0.358 57.19-0.41 114.432-0.154 171.622 0.256 36.454 10.906 49.869 38.451 49.357 33.331-0.614 38.195-23.91 38.4-50.022 0.307-40.55 0.102-81.101 0.102-130.048zM381.952 582.861c1.178 25.088 15.053 38.093 39.373 39.219 23.706 1.075 43.213-18.176 41.523-40.806-1.894-24.474-17.562-37.376-40.602-39.578-23.091-2.253-40.602 16.896-40.294 41.165z" />
<glyph unicode="&#xe04e;" d="M893.030 797.85c-253.645 28.467-511.437 28.467-765.133 0-19.456-97.69-25.498-178.534-25.498-280.525v0-517.325l225.28 224c166.502-5.786 398.95-6.042 565.35 12.749 38.093 190.259 38.093 370.739 0 561.101zM614.4 409.6h-307.2v51.2h307.2v-51.2zM716.8 563.2h-409.6v51.2h409.6v-51.2z" />
<glyph unicode="&#xe04f;" d="M819.2 460.8v-204.8h-614.4v204.8c-102.4-0.666-153.6-84.48-153.6-154.112v-153.088c0-50.995 52.736-102.4 102.4-102.4h716.8c50.79 0 102.4 51.405 102.4 102.4v153.6c0 69.99-51.2 153.6-153.6 153.6zM256 870.4v-563.2h512v563.2h-512zM665.6 409.6h-307.2v51.2h307.2v-51.2zM665.6 512h-307.2v51.2h307.2v-51.2zM665.6 614.4h-307.2v51.2h307.2v-51.2zM665.6 716.8h-307.2v51.2h307.2v-51.2z" />
<glyph unicode="&#xe050;" d="M562.227 781.158c-27.597 49.101-72.806 49.101-100.403 0l-360.397-640.717c-27.648-49.101-4.147-89.242 52.173-89.242h716.8c56.32 0 79.821 40.141 52.173 89.242l-360.346 640.717zM512 614.4c37.325 0 57.395-6.451 57.395-30.822 0-11.469 0-11.469 0-11.469-6.298-39.834-18.278-117.811-26.522-173.21s-20.224-102.042-26.522-103.629c-6.298-1.587-26.829 48.179-35.123 103.629s-20.326 133.376-26.624 173.21c0 0 0 0 0 11.469 0 24.371 20.122 30.822 57.395 30.822zM512 141.056c-28.672 0-58.061 22.938-58.061 58.112 0 33.69 25.805 59.546 58.061 59.546 34.406 0 58.112-28.723 58.112-59.546-0.051-33.024-23.706-58.112-58.112-58.112z" />
<glyph unicode="&#xe051;" d="M819.2 870.4h-614.4c-56.576 0-102.4-45.824-102.4-102.4v-614.4c0-56.576 45.824-102.4 102.4-102.4h614.4c56.576 0 102.4 45.824 102.4 102.4v614.4c0 56.576-45.824 102.4-102.4 102.4zM514.15 691.046c30.106 0 50.227-22.272 50.227-50.944 0-34.406-26.573-52.378-53.811-52.378-31.539 0-50.176 21.504-50.176 50.944-0.051 31.539 25.088 52.378 53.76 52.378zM598.067 230.554c-25.088 1.434-53.094 2.15-86.067 2.15-32.256 0-62.362-0.717-86.067-2.15-6.451 4.301-6.451 20.787-0.717 25.088l13.619 1.434c23.654 2.202 26.573 8.653 26.573 58.829v108.288c0 28.723 0 37.325-13.619 45.926l-10.086 6.451c-5.018 4.301-5.018 17.203 0 21.504 33.69 9.37 84.634 28.723 106.138 41.574 5.734 0 10.035-2.15 12.902-6.451-1.434-21.504-2.15-53.043-2.15-85.35v-131.942c0-50.176 2.867-56.627 26.573-58.778l13.619-1.434c5.734-4.301 5.734-20.838-0.717-25.139z" />
<glyph unicode="&#xe052;" d="M512 870.4c-226.202 0-409.6-183.398-409.6-409.6s183.398-409.6 409.6-409.6 409.6 183.398 409.6 409.6-183.398 409.6-409.6 409.6zM460.8 256h-51.2l-144.179 145.050c-7.322 7.117-7.322 18.79 0.051 25.856l47.514 45.619c7.424 7.014 19.61 7.014 26.931 0l95.283-114.125 304.179 327.526c7.424 7.117 19.507 7.117 26.931 0.102l47.36-45.107c7.424-7.117 7.424-18.637 0.102-25.805l-352.973-359.117z" />
<glyph unicode="&#xe053;" d="M512 870.4c-226.202 0-409.6-183.398-409.6-409.6s183.398-409.6 409.6-409.6 409.6 183.398 409.6 409.6-183.398 409.6-409.6 409.6zM720.179 306.944l-54.323-54.323-153.856 153.856-153.856-153.856-54.323 54.323 153.856 153.856-153.856 153.856 54.323 54.323 153.856-153.856 153.856 153.856 54.323-54.323-153.856-153.856 153.856-153.856z" />
<glyph unicode="&#xe054;" d="M512 870.4c-226.202 0-409.6-183.398-409.6-409.6s183.398-409.6 409.6-409.6c226.202 0 409.6 183.398 409.6 409.6s-183.398 409.6-409.6 409.6zM511.693 204.8c-33.843 0-56.832 24.883-56.832 58.163 0 33.843 23.654 58.112 56.832 58.112 34.509 0 56.883-24.269 57.498-58.112 0-33.28-23.040-58.163-57.498-58.163zM589.005 509.747c-23.654-26.214-33.229-51.098-32.563-79.872 0 0-6.4-26.726-43.469-25.395-10.65 0.358-36.864 11.827-42.138 30.515-8.090 28.57 8.909 65.792 37.632 100.301 20.429 24.32 37.069 44.749 37.069 66.458 0 22.323-14.694 37.018-46.643 38.349-17.254 0-37.53-5.12-53.453-13.312-3.482-1.792-20.736-4.608-32.512 24.883-10.189 25.344 7.322 42.445 10.854 44.134 23.347 11.366 57.446 20.992 96.87 20.992 84.326 0 122.675-46.643 122.675-99.738 0-48.538-30.054-80.435-54.323-107.315z" />
<glyph unicode="&#xe055;" d="M716.8 563.2l-51.2 51.2-153.6-153.6-153.6 153.6-51.2-51.2 204.8-204.8 204.8 204.8z" />
<glyph unicode="&#xe056;" d="M512 614.4l-204.8-204.8 51.2-51.2 153.6 153.6 153.6-153.6 51.2 51.2-204.8 204.8z" />
<glyph unicode="&#xe057;" d="M614.4 460.8l-204.8 204.8-51.2-51.2 153.6-153.6-153.6-153.6 51.2-51.2 204.8 204.8z" />
<glyph unicode="&#xe058;" d="M563.2 256l51.2 51.2-153.6 153.6 153.6 153.6-51.2 51.2-204.8-204.8 204.8-204.8z" />
<glyph unicode="&#xe059;" d="M153.6 460.8c0-84.831 68.769-153.6 153.6-153.6 84.831 0 153.6 68.769 153.6 153.6 0 84.831-68.769 153.6-153.6 153.6-84.831 0-153.6-68.769-153.6-153.6zM563.2 460.8c0-84.831 68.769-153.6 153.6-153.6s153.6 68.769 153.6 153.6c0 84.831-68.769 153.6-153.6 153.6-84.831 0-153.6-68.769-153.6-153.6z" />
<glyph unicode="&#xe05b;" d="M804.813 579.686c0 160.563-131.021 290.714-292.813 290.714-161.69 0-292.813-130.15-292.813-290.714 0-53.043 14.592-102.554 39.526-145.357h-0.358l253.645-383.13 253.747 383.078h-0.41c25.088 42.854 39.475 92.365 39.475 145.408zM665.6 563.2c0-84.838-68.762-153.6-153.6-153.6s-153.6 68.762-153.6 153.6 68.762 153.6 153.6 153.6c84.838 0 153.6-68.762 153.6-153.6z" />
<glyph unicode="&#xe05c;" d="M467.814 826.829c20.531 0 43.827-5.069 60.826-8.806 11.878-2.611 19.046-4.147 25.242-4.147 11.981 0 51.763-10.803 78.95-37.478 11.315-11.11 13.005-17.92 18.022-38.144 2.048-8.294 4.403-17.818 7.885-29.338 4.557-15.104 3.072-44.134 1.894-67.43-0.563-10.854-1.075-21.043-1.075-29.542l-0.256-6.554c-0.461-11.11 7.117-21.35 17.459-25.19 0.102-1.178 0.154-2.662 0.102-4.454-0.154-16.794-5.581-40.192-10.189-49.664-0.205 0.051-0.461 0.051-0.666 0.102-1.28 0.205-2.611 0.307-3.891 0.307-10.394 0-20.173-6.707-24.166-16.538-0.41-1.024-0.819-2.048-1.178-3.072-4.71-11.059-9.062-21.709-13.21-31.795-20.326-49.51-35.072-85.299-58.010-101.683-8.602-6.144-12.544-16.998-9.933-27.238 2.662-10.24 11.315-17.818 21.862-19.046 84.122-9.728 139.981-36.608 184.883-58.163 14.182-6.81 27.392-13.158 40.090-18.381 83.558-34.406 93.082-64.819 93.542-64.819 0 0 0 0 0 0.051v-57.702l-768-0.102-0.051 52.48c0 0.358 2.253 34.662 87.245 69.888 12.646 5.222 25.805 11.571 39.936 18.381 44.544 21.453 100.045 48.179 183.194 58.112 10.547 1.28 19.2 8.909 21.811 19.149 2.611 10.291-1.434 21.094-10.138 27.187-22.528 15.821-36.659 50.534-56.269 98.611-4.608 11.264-9.421 23.194-15.565 37.888-3.738 10.24-13.466 16.845-24.064 16.845-1.382 0-2.765-0.102-4.198-0.358-0.307-0.051-0.717-0.102-1.126-0.154-4.608 9.472-10.035 32.922-10.24 49.766 0 1.69 0.051 3.123 0.102 4.25 11.008 3.635 18.483 15.718 17.971 27.494l-0.154 4.403c0 8.909-0.512 19.405-1.075 30.464-1.178 23.040-2.611 51.712 1.843 66.253 6.093 20.173 20.378 67.482 35.379 67.482 33.536 0 41.574 25.344 45.056 36.147 2.816 8.858 3.174 9.984 9.574 11.981 5.325 1.69 12.237 2.56 20.582 2.56zM467.814 852.429c-10.138 0-19.814-1.024-28.314-3.738-37.171-11.776-16.538-46.95-46.899-46.95-32.768 0-47.616-44.954-59.904-85.709-7.987-26.317-1.843-74.24-1.843-104.090 0-2.458 0.154-4.966 0.256-7.475-0.819-0.154-1.382-0.307-1.382-0.307s-0.461 0.102-1.229 0.102c-3.942 0-15.872-2.202-15.565-28.774 0.256-21.197 8.602-64.819 22.374-72.755 3.072-1.792 6.963-2.509 11.059-2.509 2.56 0 5.171 0.256 7.782 0.717 0.41-1.126 0.87-2.355 1.331-3.43 29.747-70.195 45.005-120.781 79.872-145.254-113.306-13.517-176.435-56.064-229.939-78.234-108.442-44.902-103.014-94.618-103.014-94.618v-77.005l819.2 0.102v83.354c0 0-0.461 43.52-109.414 88.371-53.76 22.221-117.35 65.126-231.782 78.336 34.56 24.678 50.739 75.571 80.282 145.203 0.307 1.024 0.768 2.099 1.178 3.123 2.458-0.41 4.915-0.666 7.322-0.666 4.045 0 7.885 0.717 10.957 2.509 13.773 7.936 22.118 51.507 22.323 72.755 0.358 26.573-11.571 28.774-15.462 28.774-0.768 0-1.229-0.102-1.229-0.102s-0.41 0.102-0.922 0.205c0.102 2.509 0.256 5.069 0.256 7.578 0 28.774 6.298 77.363-1.894 104.397-12.39 40.858-9.882 56.166-32.461 78.336-32 31.437-78.438 44.8-96.87 44.8-9.933 0-50.483 12.954-86.067 12.954v0z" />
<glyph unicode="&#xe05d;" d="M512 819.2c-197.939 0-358.4-160.461-358.4-358.4s160.461-358.4 358.4-358.4c197.939 0 358.4 160.461 358.4 358.4 0 197.939-160.461 358.4-358.4 358.4zM512 232.96c-125.85 0-227.891 101.99-227.891 227.84 0 41.677 11.366 80.589 30.874 114.227l311.245-311.245c-33.587-19.507-72.55-30.822-114.227-30.822zM708.966 346.573l-311.194 311.194c33.638 19.507 72.55 30.874 114.227 30.874 125.85 0 227.891-101.99 227.891-227.84 0-41.677-11.366-80.64-30.925-114.227z" />
<glyph unicode="&#xe05e;" d="M512 819.2l-409.6-358.4h102.4v-307.2h256v204.8h102.4v-204.8h256v307.2h102.4l-409.6 358.4z" />
<glyph unicode="&#xe05f;" d="M204.8 409.6v102.4h614.4v-102.4h-614.4z" />
<glyph unicode="&#xe060;" d="M309.76 460.8l253.44 253.44-72.397 72.397-325.837-325.837 325.837-325.837 72.397 72.397zM616.96 460.8l253.44 253.44-72.397 72.397-325.837-325.837 325.837-325.837 72.397 72.397z" />
<glyph unicode="&#xe061;" d="M725.606 460.8l-253.44 253.44 72.397 72.397 325.837-325.837-325.837-325.837-72.397 72.397zM418.406 460.8l-253.44 253.44 72.397 72.397 325.837-325.837-325.837-325.837-72.397 72.397z" />
<glyph unicode="&#xe062;" d="M563.2 563.2l-102.4-204.8-102.4 102.4-102.4-204.8h512zM358.4 563.2c0-28.277 22.923-51.2 51.2-51.2s51.2 22.923 51.2 51.2c0 28.277-22.923 51.2-51.2 51.2-28.277 0-51.2-22.923-51.2-51.2zM819.2 716.8v-512h-614.4v512h614.4zM870.4 768h-716.8v-614.4h716.8v614.4z" />
<glyph unicode="&#xe063;" d="M819.2 870.4h-614.4c-56.576 0-102.4-45.824-102.4-102.4v-614.4c0-56.576 45.824-102.4 102.4-102.4h614.4c56.576 0 102.4 45.824 102.4 102.4v614.4c0 56.576-45.824 102.4-102.4 102.4zM511.693 204.8c-33.843 0-56.832 24.883-56.832 58.163 0 33.843 23.654 58.112 56.832 58.112 34.509 0 56.883-24.269 57.498-58.112 0-33.28-23.040-58.163-57.498-58.163zM589.005 509.747c-23.654-26.214-33.229-51.098-32.563-79.872 0 0-6.4-26.726-43.52-25.395-10.65 0.358-36.864 11.827-42.138 30.515-8.038 28.57 8.96 65.792 37.734 100.301 20.429 24.32 37.069 44.749 37.069 66.458 0 22.323-14.694 37.018-46.643 38.349-17.254 0-37.53-5.12-53.453-13.312-3.482-1.792-20.685-4.608-32.512 24.883-10.24 25.344 7.27 42.445 10.803 44.134 23.347 11.366 57.446 20.992 96.87 20.992 84.326 0 122.675-46.643 122.675-99.738 0-48.538-30.054-80.435-54.323-107.315z" />
<glyph unicode="&#xe064;" d="M661.76 478.413c-9.421 15.462-24.474 28.365-45.158 38.758s-54.938 20.736-102.758 30.874c-19.302 4.045-31.488 8.294-36.659 12.902-5.325 4.454-7.987 9.472-7.987 15.053 0 7.629 3.226 14.080 9.677 19.456 6.4 5.325 16.026 7.987 28.672 7.987 0 0 20.275 0.819 31.027-2.714 29.491-9.728 33.792-25.958 45.005-42.342l70.707 22.886c-13.619 25.139-20.838 39.373-42.394 57.088-14.592 12.083-23.757 22.323-48.691 27.238v51.2h-102.4v-51.2c-14.080-2.304-18.944-6.298-29.389-10.752-21.146-9.165-37.018-21.709-47.565-37.683-10.547-16.026-15.821-32.973-15.821-50.944 0-27.341 10.342-49.818 30.925-67.482 20.429-17.664 54.63-31.846 102.605-42.445 29.286-6.4 41.37-12.339 49.459-19.507 8.038-7.168 12.083-15.258 12.083-24.32 0-9.523-4.25-17.92-12.698-25.139-8.448-7.219-22.835-11.162-38.4-11.162-34.406 3.891-42.342 9.933-53.35 16.077-6.451 3.738-24.422 15.206-34.611 27.802l-75.93-54.323c18.688-23.603 34.918-36.301 45.875-42.24 10.394-5.683 42.701-13.824 66.816-16.282v-51.2h102.4v51.2c23.706 4.557 29.082 4.762 41.472 11.008 22.528 9.779 39.834 27.494 52.378 46.438 12.544 18.893 18.842 39.629 18.842 62.054 0 19.046-4.71 36.301-14.131 51.712zM563.2 817.050c0-12.954-11.469-23.45-25.6-23.45v0c-14.131 0-25.6 10.496-25.6 23.45v106.701c0 12.954 11.469 23.45 25.6 23.45v0c14.131 0 25.6-10.496 25.6-23.45v-106.701zM563.2 46.95c0-12.954-11.469-23.45-25.6-23.45v0c-14.131 0-25.6 10.496-25.6 23.45v106.65c0 12.954 11.469 23.45 25.6 23.45v0c14.131 0 25.6-10.496 25.6-23.45v-106.65zM817.408 101.222c6.502-11.213 1.792-26.061-10.445-33.126v0c-12.237-7.066-27.443-3.686-33.894 7.526l-53.35 92.365c-6.502 11.213-1.792 26.061 10.445 33.126v0c12.237 7.066 27.443 3.686 33.894-7.526l53.35-92.365zM948.378 302.131c11.213-6.502 14.592-21.658 7.526-33.894v0c-7.066-12.237-21.914-16.896-33.126-10.445l-92.365 53.35c-11.213 6.502-14.592 21.658-7.526 33.894v0c7.066 12.237 21.914 16.896 33.126 10.445l92.365-53.35zM49.050 460.8c-12.954 0-23.45 11.469-23.45 25.6v0c0 14.131 10.496 25.6 23.45 25.6h106.65c13.005 0 23.501-11.469 23.501-25.6v0c0-14.131-10.496-25.6-23.45-25.6h-106.701zM75.622 670.669c-11.264 6.451-14.592 21.658-7.526 33.894v0c7.066 12.237 21.862 16.896 33.126 10.445l92.365-53.35c11.213-6.502 14.592-21.658 7.526-33.894v0c-7.066-12.237-21.914-16.947-33.126-10.445l-92.365 53.35zM207.718 871.578c-6.502 11.264-1.792 26.061 10.445 33.126v0c12.237 7.066 27.392 3.738 33.894-7.526l53.35-92.365c6.451-11.213 1.792-26.061-10.445-33.126v0c-12.237-7.066-27.443-3.686-33.894 7.526l-53.35 92.365zM101.222 257.792c-11.264-6.451-26.061-1.792-33.126 10.445v0c-7.066 12.237-3.686 27.443 7.526 33.894l92.365 53.35c11.213 6.502 26.061 1.792 33.126-10.445v0c7.066-12.237 3.686-27.392-7.526-33.894l-92.365-53.35zM252.058 75.622c-6.502-11.264-21.658-14.592-33.894-7.526v0c-12.237 7.066-16.896 21.914-10.445 33.126l53.35 92.365c6.451 11.213 21.658 14.592 33.894 7.526v0c12.237-7.066 16.896-21.914 10.445-33.126l-53.35-92.365zM868.25 460.8c-12.954 0-23.45 11.469-23.45 25.6v0c0 14.131 10.496 25.6 23.45 25.6h106.65c13.005 0 23.501-11.469 23.501-25.6v0c0-14.131-10.496-25.6-23.45-25.6h-106.701zM856.013 616.192c-11.213-6.451-26.061-1.792-33.126 10.445v0c-7.066 12.237-3.686 27.443 7.526 33.894l92.365 53.35c11.213 6.502 26.061 1.792 33.126-10.445v0c7.066-12.237 3.686-27.443-7.526-33.894l-92.365-53.35zM762.931 779.213c-6.451-11.213-21.658-14.592-33.894-7.526v0c-12.237 7.066-16.896 21.914-10.445 33.126l53.35 92.365c6.502 11.213 21.658 14.592 33.894 7.526v0c12.237-7.066 16.896-21.914 10.445-33.126l-53.35-92.365z" />
<glyph unicode="&#xe065;" d="M559.565 484.301c0 124.467-0.102 248.883 0.154 373.35 0.051 12.646-1.229 20.173-17.357 17.152-79.872-14.95-159.846-29.235-239.821-43.469-58.624-10.394-117.248-20.634-175.974-30.208-17.357-2.867-24.627-9.318-24.166-28.826 1.536-64.051 0.563-128.154 0.563-192.256 0-128.205 0.205-256.358-0.256-384.512-0.051-15.36 3.994-21.146 20.326-23.501 45.978-6.554 91.597-15.872 137.37-24.064 93.44-16.691 186.982-32.666 280.166-50.483 18.278-3.482 19.251 2.611 19.2 17.203-0.41 123.187-0.205 246.426-0.205 369.613zM364.339 611.686c-14.285-0.307-28.621-0.256-42.906-0.051-9.421 0.102-13.926-3.994-13.107-13.568 0.051-0.614 0-1.229 0-1.843-2.458-53.094-2.458-53.094 50.483-55.347 39.168-1.69 39.322-1.69 39.066-40.909-0.205-36.506 4.198-30.976-31.898-31.232-11.776-0.102-23.706-0.717-35.379 0.717-16.64 1.997-23.091-2.611-22.733-20.89 1.024-47.821 0.154-47.514 48.947-52.173 14.182-1.331 28.262-3.84 42.598-3.43 9.216 0.256 13.619-3.891 13.466-13.466-0.307-16.794-0.154-33.587 0-50.33 0.051-7.68-2.406-11.264-11.008-10.291-51.763 5.837-103.526 11.366-155.29 16.896-11.725 1.229-12.646 8.96-12.595 18.534 0.256 49.715 0.102 99.482 0.102 149.197 0 49.715 0.512 99.482-0.307 149.197-0.256 13.824 4.762 18.893 17.664 19.661 50.176 3.072 100.301 6.451 150.477 9.83 9.779 0.666 15.77-2.56 14.643-13.568-0.051-0.614 0-1.229 0-1.843-1.485-65.536 11.162-53.76-52.224-55.091zM921.6 667.802c0 40.806-10.086 51.098-50.176 51.098-75.878 0-151.757 0-227.635 0-40.806 0-41.523-0.819-37.222-41.472 0.461-4.301-0.205-10.291 4.966-10.854 22.938-2.611 33.075-22.733 49.254-34.56 18.074-13.21 7.066-24.371-1.638-35.789-11.878-15.565-17.357 0.461-24.576 5.581-4.557 3.277-8.55 7.322-14.387 8.038-7.885 0.922-13.466-0.922-13.619-10.496-0.768-49.51-10.65-101.939 43.571-133.53 1.024-0.614 1.843-1.638 2.662-2.611 3.174-3.738 7.27-7.219 3.43-12.954-4.045-5.939-9.472-5.478-14.848-2.867-7.834 3.789-15.565 7.834-22.989 12.339-8.96 5.427-12.032 2.816-11.981-7.117 0.205-26.726-0.051-53.504 0.154-80.23 0.051-4.71-2.253-11.213 2.867-13.722 6.195-3.021 10.086 3.123 13.824 6.912 26.266 26.47 52.224 53.35 78.694 79.616 4.608 4.557 8.653 14.848 17.869 8.090 9.165-6.81 2.458-14.643-1.126-21.504-22.221-41.984-50.79-79.565-81.562-115.558-4.813-5.632-10.342-10.342-17.92-12.851-24.525-8.090-10.445-28.416-11.827-42.957-1.331-14.438 12.851-10.291 21.146-10.291 82.739-0.307 165.427-0.307 248.166-0.154 33.331 0.051 44.8 11.622 44.851 44.595 0.051 62.822 0 125.645 0 188.467 0.051 61.645 0.051 123.187 0.051 184.781zM841.83 302.029c-13.67 0.614-27.341 0.102-41.062 0.102v-0.051c-4.352 0-8.909 0.768-13.056-0.154-36.915-8.192-59.187 14.797-81.203 38.042-13.261 14.029 1.843 22.374 7.782 31.795 7.219 11.469 14.234 2.765 19.251-2.765 20.992-22.938 47.923-9.933 72.192-12.595 3.123-0.358 5.325 2.56 6.758 5.632 6.093 13.466-1.229 51.558-12.339 62.515-25.19 24.883-50.688 49.562-75.674 74.65-4.71 4.71-14.49 8.858-7.987 17.971 6.861 9.677 14.592 2.458 21.248-1.126 41.882-22.323 79.258-51.149 115.61-81.459 9.677-8.038 14.592-18.227 14.541-30.925-0.102-25.498-0.307-50.995 0.102-76.493 0.307-18.074-8.141-25.907-26.163-25.139zM830.106 504.166c-13.978-13.005-22.374 0.614-31.795 7.117-12.186 8.448-2.202 14.541 3.226 20.685 9.523 10.752 17.050 60.723 10.701 72.499-0.819 1.536-2.202 3.021-3.635 3.994-9.114 6.042-51.712 0.819-60.16-7.731-25.805-26.061-51.302-52.429-77.21-78.387-4.864-4.864-9.472-14.080-18.227-8.602-10.035 6.246-3.021 14.643 0.461 21.197 22.63 42.445 51.507 80.589 82.739 116.941 7.578 8.806 17.203 13.619 29.44 13.414 26.112-0.41 52.224-0.461 78.336 0 16.794 0.307 23.91-7.834 23.91-23.757 0-13.67 0-27.341 0-41.062h0.051c0.051-4.966-0.87-10.138 0.154-14.899 7.936-36.864-14.336-59.392-37.99-81.408z" />
<glyph unicode="&#xe066;" d="M531.507 381.901c-41.421-2.099-76.8-6.963-109.568-24.73-54.733-29.747-57.498-102.298-12.032-136.448 56.678-42.65 120.115-45.926 183.603-19.405 52.787 22.067 62.106 87.501 24.934 126.618-14.080 14.848-30.822 26.368-46.438 39.322-13.466 11.11-27.802 17.869-40.499 14.643zM463.206 741.12c-33.587-16.026-44.288-44.851-43.776-91.546 2.304-32.666 12.646-74.445 44.442-107.776 20.582-21.555 45.978-31.693 75.725-22.989 29.235 8.55 50.893 26.624 54.323 58.317 5.99 54.989-8.243 104.704-45.158 146.79-21.248 24.218-56.422 31.078-85.555 17.203zM846.694 870.4h-669.389c-41.37 0-74.906-33.536-74.906-74.906v-669.338c0-41.421 33.536-74.957 74.906-74.957h669.338c41.421 0 74.957 33.536 74.957 74.906v669.389c0 41.37-33.536 74.906-74.906 74.906zM640.819 718.182c40.346-49.101 40.806-134.195-18.893-181.811-11.008-8.755-21.914-17.664-31.437-28.211-17.306-19.149-18.381-38.4 0.41-55.654 21.862-20.070 45.517-38.195 68.403-57.19 1.485-3.226 3.789-5.581 7.066-7.014 0.358-3.123 1.843-5.376 5.069-6.246 8.858-15.258 19.354-29.594 22.835-47.616 12.083-63.13-16.128-113.459-65.792-145.459-56.474-36.454-119.398-44.442-185.19-36.864-34.355 3.942-66.509 13.21-94.822 33.843-20.89 15.206-35.072 34.97-41.779 60.006 0.512 3.738 0.819 7.475-3.738 9.216 1.126 8.858 1.28 17.715 0 26.573 4.557 1.69 4.198 5.478 3.84 9.216 1.997 6.554 3.994 13.158 5.99 19.712 1.946 1.229 2.509 3.021 2.304 5.222 3.994 5.427 8.909 10.291 10.445 17.203 16.947 17.613 34.714 34.355 57.293 44.493 33.229 14.899 68.352 22.886 104.602 26.010 7.885 0.666 15.718 1.741 23.603 1.894 9.37 0.205 9.984 3.686 4.915 10.496-15.616 20.992-21.043 43.725-12.134 69.222 3.021 8.602-3.226 6.963-8.499 6.554-32.922-2.714-64.205 3.328-91.546 21.914-41.779 28.416-62.566 68.608-57.242 119.296 7.168 68.198 48.384 109.158 110.848 131.482 26.88 9.626 54.886 13.056 83.302 13.107 53.658 0.154 107.366 0.051 161.024 0 2.765 0 5.478-0.461 10.701-0.922-29.44-21.811-58.061-37.53-96.768-28.723 7.629-13.978 17.818-20.736 25.19-29.747z" />
<glyph unicode="&#xe067;" d="M870.144 256c-0.717 18.483-4.301 45.107-17.869 68.608-30.566 52.89-66.048 84.685-91.546 137.165-21.299 43.93-31.949 105.114-36.454 138.138 0.205 3.738 0.307 7.475 0.307 11.213-0.051 114.944-94.618 208.077-211.507 208.077-114.688 0-207.974-89.907-211.302-202.035-2.406-22.323-12.595-101.837-38.554-155.392-25.446-52.531-60.928-84.275-91.494-137.165-13.568-23.501-17.203-50.125-17.869-68.608h716.288zM425.318 153.6c-0.922-5.018-1.69-10.086-1.69-15.411-0.051-48.077 39.526-86.989 88.371-86.989 48.794 0 88.371 38.912 88.371 86.989 0 5.274-0.768 10.394-1.741 15.411h-173.312z" />
<glyph unicode="&#xe068;" d="M319.334 595.814h118.323v-492.902h-118.323zM495.667 583.373h118.221v-86.784h-118.221zM495.616 445.286h118.221v-342.374h-118.221zM944.333 433.51c-26.931 13.158-58.47 19.098-94.003 19.098-112.998 0-199.066-65.69-199.066-179.405 0-112.998 86.067-178.739 199.066-178.739 31.59 0 67.072 5.325 96.614 15.155l-2.611 88.064c-19.712-10.496-46.643-16.384-73.574-16.384-51.302 0-97.28 35.482-97.28 89.958 0 59.136 39.424 94.618 90.675 94.618 28.262 0 49.869-5.888 71.578-18.995l8.602 86.63zM996.198 102.912h118.323v169.574h1.28l94.618-169.574h143.206l-128.717 185.293 118.886 157.082h-129.434l-98.56-143.872h-1.28v294.4h-118.323zM1632.512 350.669c-13.158 3.942-26.266 3.942-40.090 3.942-55.194 0-86.118-40.141-86.118-107.162v-144.538h-118.17v342.323h107.776v-63.078h1.229c20.378 43.418 50.022 70.963 101.222 70.963 13.773 0 28.262-1.894 40.038-3.942l-5.888-98.509zM69.632 102.912h118.323v259.635h84.122v82.739h-84.122v20.992c0 33.536 11.776 54.579 41.984 54.579 17.766 0 27.648-1.997 37.478-5.325l7.27 81.51c-15.104 2.611-34.816 6.554-60.467 6.554-94.618 0-142.541-35.482-142.541-137.318v-21.043h-71.68v-82.739h69.632v-259.584z" horiz-adv-x="1638" />
<glyph unicode="&#xe069;" d="M876.39 870.4h-728.781c-24.986 0-45.21-20.224-45.21-45.21v-728.781c0-24.986 20.224-45.21 45.21-45.21h392.346v317.235h-106.752v123.648h106.752v91.187c0 105.83 64.614 163.43 159.027 163.43 45.21 0 84.070-3.379 95.386-4.864v-110.592l-65.485-0.051c-51.354 0-61.286-24.371-61.286-60.211v-78.95h122.419l-15.923-123.648h-106.496v-317.184h208.742c25.037 0 45.261 20.224 45.261 45.21v728.781c0 24.986-20.224 45.21-45.21 45.21z" />
<glyph unicode="&#xe06a;" d="M911.104 158.31l-155.648 149.862c40.090 57.907 63.744 128.051 63.744 203.827 0 197.939-160.461 358.4-358.4 358.4s-358.4-160.461-358.4-358.4c0-197.939 160.461-358.4 358.4-358.4 75.93 0 146.278 23.808 204.237 64.102l149.504-155.955c0 0 32.205-32.154 80.486 16.128 48.23 48.282 16.077 80.435 16.077 80.435zM204.8 512c0 141.363 114.637 256 256 256s256-114.637 256-256c0-141.363-114.637-256-256-256s-256 114.637-256 256zM307.2 563.2h307.2v-102.4h-307.2z" />
<glyph unicode="&#xe06b;" d="M911.104 158.31l-155.648 149.862c40.090 57.907 63.744 128.051 63.744 203.827 0 197.939-160.461 358.4-358.4 358.4-197.939 0-358.4-160.461-358.4-358.4 0-197.939 160.461-358.4 358.4-358.4 75.93 0 146.278 23.808 204.237 64.102l149.504-155.955c0 0 32.205-32.154 80.486 16.128 48.23 48.282 16.077 80.435 16.077 80.435zM204.8 512c0 141.363 114.637 256 256 256s256-114.637 256-256c0-141.363-114.637-256-256-256-141.363 0-256 114.637-256 256zM614.4 563.2h-102.4v102.4h-102.4v-102.4h-102.4v-102.4h102.4v-102.4h102.4v102.4h102.4z" />
<glyph unicode="&#xe06c;" d="M801.485 598.784c-65.894-3.942-111.053-69.683-117.504-131.123-8.755-44.288 14.899-103.475 65.382-107.059 70.502 0.87 118.528 76.134 120.525 140.954 4.454 42.854-20.787 94.822-68.403 97.229zM635.443 805.888c-1.485 0-3.021-0.102-4.557-0.205-61.235-10.598-94.976-75.366-99.84-132.506-7.168-51.866 15.667-118.477 72.602-130.048 8.294-1.587 16.845-0.87 24.934 1.331 68.506 22.989 99.226 104.141 89.293 171.418-2.867 43.418-35.584 90.624-82.432 90.010zM375.757 803.123c-38.093-0.922-67.789-39.578-73.779-75.878-12.749-71.936 19.968-161.382 94.925-184.115 7.066-1.536 14.285-1.69 21.402-0.614 50.688 8.448 72.141 65.28 69.99 111.104-1.485 60.467-32.922 130.458-95.795 147.456-5.734 1.587-11.315 2.15-16.742 2.048zM224.717 584.192c-28.109 0.205-55.654-16.589-64.819-45.056-24.371-76.237 24.678-172.8 105.421-188.826 33.741-5.734 63.334 20.122 71.68 51.251 17.664 66.611-18.637 143.923-80.23 174.182-10.086 5.632-21.094 8.346-32.051 8.448zM520.090 447.488c-54.989-0.102-110.848-28.006-146.381-69.53-38.451-48.384-69.888-104.704-82.278-165.786-14.95-43.981 18.944-94.566 65.946-94.874 56.525-1.587 105.114 37.222 161.382 40.141 47.667 7.27 90.419-17.562 133.274-33.792 36.506-15.616 86.938-9.626 105.574 29.696 14.694 40.038-6.912 82.739-24.781 118.323-36.454 57.754-75.469 118.426-135.27 154.47-24.013 14.848-50.637 21.402-77.466 21.35z" />
<glyph unicode="&#xe06d;" d="M617.011 708.045c-35.482 63.078-106.189 76.339-106.189 76.339-163.021 33.946-271.718-56.73-311.501-97.946l-26.112 43.725c4.454 9.318 6.861 19.61 6.246 30.515-1.946 35.328-32.256 62.464-67.635 60.467-35.43-1.997-62.566-32.358-60.518-67.635 1.843-32.512 27.597-57.702 59.238-60.006l345.088-575.488c7.219-11.981 20.224-18.432 33.28-17.664 5.683 0.307 11.418 1.894 16.589 5.018 17.254 10.24 22.886 32.614 12.544 49.766l-136.858 227.942c14.387 63.334 89.037 124.518 208.026 134.144l46.234-67.226c0 0 27.136-52.429 75.11-17.562 67.379 48.896 0.614 180.89 262.246 242.381 0 0-184.525 94.31-355.789 33.229zM585.728 695.194c-4.454-2.099-8.909-4.454-13.363-6.861l-1.178 1.792 14.541 5.069z" />
<glyph unicode="&#xe06e;" d="M500.275 584.192c0 0 0 0 0 0 0-12.923 10.476-23.398 23.398-23.398 12.923 0 23.398 10.476 23.398 23.398 0 0 0 0 0 0 0 12.923-10.476 23.398-23.398 23.398-12.923 0-23.398-10.476-23.398-23.398zM556.032 528.333c0 0 0 0 0 0 0-12.951 10.499-23.45 23.45-23.45 12.951 0 23.45 10.499 23.45 23.45 0 0 0 0 0 0 0 12.951-10.499 23.45-23.45 23.45-12.951 0-23.45-10.499-23.45-23.45zM611.942 472.474c0 0 0 0 0 0 0-12.923 10.476-23.398 23.398-23.398 12.923 0 23.398 10.476 23.398 23.398 0 0 0 0 0 0 0 12.923-10.476 23.398-23.398 23.398-12.923 0-23.398-10.476-23.398-23.398zM432.742 516.71c0 0 0 0 0 0 0-12.923 10.476-23.398 23.398-23.398 12.923 0 23.398 10.476 23.398 23.398 0 0 0 0 0 0 0 12.923-10.476 23.398-23.398 23.398-12.923 0-23.398-10.476-23.398-23.398zM488.602 460.8c0-12.923 10.476-23.398 23.398-23.398s23.398 10.476 23.398 23.398c0 12.923-10.476 23.398-23.398 23.398-12.923 0-23.398-10.476-23.398-23.398zM544.358 404.992c0 0 0 0 0 0 0-12.951 10.499-23.45 23.45-23.45 12.951 0 23.45 10.499 23.45 23.45 0 0 0 0 0 0 0 12.951-10.499 23.45-23.45 23.45-12.951 0-23.45-10.499-23.45-23.45zM365.21 449.178c0 0 0 0 0 0 0-12.951 10.499-23.45 23.45-23.45 12.951 0 23.45 10.499 23.45 23.45 0 0 0 0 0 0 0 12.951-10.499 23.45-23.45 23.45-12.951 0-23.45-10.499-23.45-23.45zM421.12 393.318c0 0 0 0 0 0 0-12.923 10.476-23.398 23.398-23.398 12.923 0 23.398 10.476 23.398 23.398 0 0 0 0 0 0 0 12.923-10.476 23.398-23.398 23.398-12.923 0-23.398-10.476-23.398-23.398zM476.928 337.459c0 0 0 0 0 0 0-12.951 10.499-23.45 23.45-23.45 12.951 0 23.45 10.499 23.45 23.45 0 0 0 0 0 0 0 12.951-10.499 23.45-23.45 23.45-12.951 0-23.45-10.499-23.45-23.45zM867.072 815.821c-72.858 72.806-190.874 72.755-263.68 0l-446.413-446.413c-72.806-72.755-72.806-190.822 0-263.629 72.755-72.806 190.822-72.806 263.578 0l446.464 446.362c72.755 72.858 72.755 190.925 0.051 263.68zM491.93 240.077l-200.602 200.653 240.742 240.742 200.653-200.55-240.794-240.845z" />
<glyph unicode="&#xe06f;" d="M951.808 531.558c65.126 145.613-42.138 208.845-42.138 208.845-144.435 48.589-295.27 60.058-371.917 62.618l0.051 0.614c0 0-9.523 0.205-25.805 0-16.282 0.205-25.805 0-25.805 0l0.051-0.614c-76.698-2.56-227.43-14.029-371.866-62.618 0 0-107.315-63.232-42.189-208.845l168.653 1.946c0 0-1.894 84.275 38.4 103.475 13.824 6.605 38.451 13.619 68.147 19.968 0.512-16.486 1.075-72.346-13.568-87.040-17.203-17.254-61.338-55.552-84.326-122.624-22.989-67.072-74.701-195.482-74.701-195.482s3.789-122.573 30.566-149.402h613.274c26.829 26.829 30.618 149.402 30.618 149.402s-51.712 128.41-74.701 195.482c-23.040 67.072-67.072 105.37-84.326 122.624-14.643 14.643-14.080 70.502-13.568 86.989 29.645-6.349 54.272-13.363 68.147-19.968 40.243-19.149 38.349-103.475 38.349-103.475l168.653-1.894zM511.949 263.68c-63.59 0-115.149 51.61-115.149 115.2s51.558 115.149 115.149 115.149c63.642 0 115.251-51.558 115.251-115.149 0-63.59-51.61-115.2-115.251-115.2zM630.886 610.15h-237.722l-5.018 54.528c41.165 7.014 86.118 12.39 123.853 13.824 37.734-1.485 82.739-6.861 123.955-13.875l-5.069-54.477z" />
<glyph unicode="&#xe070;" d="M921.6 563.2v76.39c0 42.65-34.509 77.21-77.158 77.21h-664.781c-42.65 0-77.261-34.56-77.261-77.21v-76.39h819.2zM102.4 460.8v-229.99c0-42.598 34.611-77.21 77.261-77.21h664.832c42.598 0 77.107 34.611 77.107 77.21v229.99h-819.2zM563.2 256h-409.6v51.2h409.6v-51.2z" />
<glyph unicode="&#xe071;" d="M415.898 284.826c-7.117-21.862-9.216-40.704-10.65-58.010-0.973-8.499-0.666-17.203-0.973-25.344 0-8.294 0.819-16.794-0.41-24.934l-0.717 7.014c1.229-4.403 2.509-14.899 5.427-22.016 1.894-8.602 6.144-15.667 10.854-22.579 3.533-7.27 11.981-15.36 19.661-25.498 4.147-4.966 7.936-10.65 11.418-16.691 3.584-5.581 6.554-13.414 8.653-20.685 1.792-8.192 2.56-16.384 0.717-24.73-0.87-8.346-5.171-14.746-8.243-21.35-3.584-4.71-9.626-12.186-11.52-13.926l-10.803-12.442c-8.397-8.55-10.598-15.77-16.077-24.678-3.482-9.318-6.912-19.354-8.448-30.157h-6.912c-1.792 11.059-2.458 22.528-1.178 34.509 2.509 11.059 5.53 25.651 10.65 34.406l7.014 14.899c3.994 7.322 3.891 9.011 6.144 13.466 0.307 3.533 2.099 6.963 1.075 9.626 0.051 2.611-1.28 5.069-2.406 7.424-1.946 2.611-3.174 5.12-6.298 8.038-2.765 2.918-5.632 5.734-9.267 8.499-6.861 5.99-15.77 11.315-25.6 21.35-10.394 8.909-19.456 18.893-26.829 30.208-8.55 11.418-14.080 21.914-18.688 38.298l-0.922 3.277 0.205 3.738c0.768 12.339 1.485 24.73 5.222 36.71 4.352 11.93 8.090 23.757 15.77 34.15 6.246 10.752 15.36 20.019 25.088 27.597 9.882 7.322 21.453 13.414 33.69 15.309l4.352-5.478zM370.432 870.4c-131.277 0-237.67-146.278-237.67-326.81 0-180.429 106.394-326.707 237.619-326.707 131.226 0 237.619 146.278 237.619 326.707 0.051 180.531-106.342 326.81-237.568 326.81zM528.333 439.040h-43.059c4.045 15.155 7.373 31.078 9.574 47.411h42.65c-2.099-16.333-5.274-32.102-9.165-47.411zM497.613 516.25c0.461 7.578 0.87 15.104 0.87 22.733 0 72.96-20.019 139.315-52.787 189.798h46.234c30.72-51.763 49.152-117.709 49.152-189.798 0-7.629-0.461-15.155-0.819-22.733h-42.65zM705.024 320.819c-3.738-19.098-3.43-34.099-3.328-47.411-0.307-13.158 2.458-25.293 0.973-37.53l-0.717 7.014c0.614-2.202 1.178-10.496 2.867-15.616 0.922-6.502 3.738-11.725 6.912-16.998 2.099-5.427 8.806-12.134 14.899-20.531 6.502-8.243 12.698-18.534 16.282-31.642 1.485-7.117 2.048-14.182 0.41-21.35-0.87-7.219-4.557-12.544-7.27-18.074-2.97-3.738-8.397-10.24-9.677-11.008l-8.909-9.574c-6.963-6.707-8.653-11.674-13.261-18.432-2.97-7.066-6.042-14.848-7.629-23.347h-6.912c-1.741 8.755-2.714 17.92-1.946 27.648 1.638 8.96 4.147 21.248 7.782 28.16l5.12 11.981c3.43 6.4 2.662 7.117 4.301 10.547-0.051 2.458 1.075 4.864 0.102 6.298-0.154 1.434-1.229 2.765-2.048 3.994-2.509 2.816-6.195 7.014-11.827 10.854-5.376 4.301-12.39 8.192-20.787 16.384-8.806 7.219-16.486 15.411-22.835 24.627-7.322 9.472-12.134 17.715-16.128 31.949l-0.922 3.174 0.205 3.84c0.512 10.189 1.28 20.378 4.608 30.208 3.84 9.83 7.27 19.456 13.978 27.904 5.53 8.653 13.568 16.077 22.067 21.811 8.653 5.53 18.79 9.933 29.338 10.496l4.352-5.376zM672.973 848.282c-36.454 0-70.758-12.595-100.813-34.662 53.658-68.659 87.091-164.25 87.091-270.029 0-99.328-29.645-189.542-77.722-257.075 27.802-18.074 58.675-28.467 91.443-28.467 118.528 0 214.63 132.096 214.63 295.117 0 162.97-96.051 295.117-214.63 295.117zM820.019 477.542h-34.97c3.379 12.39 6.042 25.19 7.834 38.451h34.56c-1.69-13.21-4.198-26.010-7.424-38.451zM795.238 540.16c0.256 6.093 0.666 12.237 0.666 18.381 0 59.085-16.23 112.845-42.701 153.702h37.427c24.781-41.933 39.731-95.386 39.731-153.702 0-6.144-0.358-12.288-0.666-18.381h-34.458z" />
<glyph unicode="&#xe072;" d="M117.146 805.53c-9.421-45.312-10.598-163.584 176.077-302.182 0 0-54.221-387.43-43.418-416.41 10.803-28.979 39.782-36.25 39.782-36.25l137.626 336.742 260.71-220.826-25.344-141.261 14.438-25.344 68.762 123.187 32.614-25.344 10.394 17.254 0.512-0.512 18.381 9.984-23.654 33.741 126.106 63.181-24.525 15.565-142.438-18.893-208.64 270.438 342.528 122.163c0 0-5.939 29.184-34.355 41.318-28.467 12.186-417.997-24.32-417.997-24.32-129.843 192.666-248.166 196.813-293.888 189.44l-13.67-11.674z" />
<glyph unicode="&#xe073;" d="M512 147.712c-87.296 76.493-196.147 164.915-220.621 187.29-42.24 38.758-79.206 81.869-105.779 133.069-20.992 40.602-33.587 83.507-31.795 129.485 2.714 72.192 34.97 127.181 98.867 161.536 59.494 32.051 120.064 29.85 179.046-1.843 34.611-18.534 59.853-47.104 76.954-82.637 0.87-1.792 1.792-3.584 3.277-6.502 11.366 24.678 25.549 45.824 44.8 63.334 39.68 35.994 86.118 52.429 139.725 49.254 86.784-5.069 160.41-72.090 171.981-160.717 6.707-50.893-4.454-98.97-26.778-144.742-22.067-45.312-52.378-84.838-88.32-119.603l-241.357-207.923z" />
<glyph unicode="&#xe074;" d="M166.4 729.6l-64-115.2h155.648zM448 768h-243.2l102.4-128zM921.6 614.4l-64 115.2-91.648-115.2zM819.2 768h-243.354l140.954-128zM665.6 614.4l-153.651 142.080-153.549-142.080zM614.4 204.8l307.2 358.4h-189.594zM102.4 563.2l307.2-358.4-117.658 358.4zM351.795 563.2l160.205-460.8 160.205 460.8z" />
<glyph unicode="&#xe075;" d="M297.523 866.918c-0.102 2.048-0.205 3.482-0.205 3.482s-0.205-1.178 0.205-3.482zM331.827 819.149c-27.443 27.904-33.178 41.933-34.304 47.77 0.358-8.858-0.87-35.072-24.218-66.714-23.91-32.358 0.41-56.781 25.805-64.307-3.328 3.072-5.786 7.526-7.68 13.414-3.789 11.776 6.4 16.077 12.083 23.347 5.632 7.424 0 21.811 0 21.811s12.39-10.906 25.6-27.955c9.574-12.288 2.048-25.498-6.912-31.795 25.395 7.322 44.544 48.896 9.626 84.429zM502.323 866.918c-0.102 2.048-0.205 3.482-0.205 3.482s-0.205-1.178 0.205-3.482zM536.627 819.149c-27.443 27.904-33.178 41.933-34.304 47.77 0.358-8.858-0.87-35.072-24.218-66.714-23.91-32.358 0.41-56.781 25.805-64.307-3.328 3.072-5.786 7.526-7.68 13.414-3.738 11.776 6.4 16.077 12.083 23.347 5.632 7.424 0 21.811 0 21.811s12.39-10.906 25.6-27.955c9.574-12.288 2.048-25.498-6.912-31.795 25.395 7.322 44.544 48.896 9.626 84.429zM707.123 866.918c-0.102 2.048-0.205 3.482-0.205 3.482s-0.205-1.178 0.205-3.482zM741.427 819.149c-27.443 27.904-33.178 41.933-34.304 47.77 0.358-8.858-0.87-35.072-24.218-66.714-23.91-32.358 0.41-56.781 25.805-64.307-3.328 3.072-5.786 7.526-7.629 13.414-3.738 11.776 6.4 16.077 12.083 23.347 5.632 7.424 0 21.811 0 21.811s12.39-10.906 25.6-27.955c9.574-12.288 2.048-25.498-6.912-31.795 25.344 7.322 44.493 48.896 9.574 84.429zM153.6 358.4h716.8v-204.8h-716.8zM51.2 105.728h921.6v-54.528h-921.6zM768 614.4v76.8c0 14.131-11.469 25.6-25.6 25.6h-51.2c-14.131 0-25.6-11.469-25.6-25.6v-76.8h-102.4v76.8c0 14.131-11.469 25.6-25.6 25.6h-51.2c-14.131 0-25.6-11.469-25.6-25.6v-76.8h-102.4v76.8c0 14.131-11.469 25.6-25.6 25.6h-51.2c-14.131 0-25.6-11.469-25.6-25.6v-76.8h-102.4v-204.8h716.8v204.8h-102.4z" />
<glyph unicode="&#xe076;" d="M51.2 409.6l409.6-409.6 460.8 460.8-51.2 358.4-358.4 51.2-460.8-460.8zM614.4 640c0 42.394 34.406 76.8 76.8 76.8s76.8-34.406 76.8-76.8c0-42.394-34.406-76.8-76.8-76.8s-76.8 34.406-76.8 76.8z" />
<glyph unicode="&#xe077;" d="M102.4 460.749l460.8 409.651v-256h358.4v-307.2h-358.4v-256l-460.8 409.549z" />
<glyph unicode="&#xe078;" d="M921.6 460.851l-460.8-409.651v256h-358.4v307.2h358.4v256l460.8-409.549z" />
<glyph unicode="&#xe079;" d="M523.008 617.472c0 0 35.635 2.714 56.371 9.626 20.685 6.912 153.293 44.186 222.362-84.275 69.069-128.256 2.765-296.858-62.157-381.133-64.87-84.275-111.872-110.49-157.44-110.49-45.517 0-42.803 24.934-56.576 24.934h-27.085c-13.875 0-11.11-24.934-56.678-24.934-45.517 0-92.467 26.214-157.44 110.49-64.87 84.275-131.123 252.826-62.106 381.133 69.018 128.461 201.626 91.187 222.362 84.275 20.685-6.861 56.371-9.626 56.371-9.626h22.016zM328.499 870.4c0 0-47.155-201.267 169.318-212.634 0 0 35.738 201.114-169.318 212.634zM510.362 612.25c0 0 25.958 138.394 135.834 152.064v-45.312c0 0-76.39 1.638-125.235-105.523-3.482-7.629-6.144 6.963-10.598-1.229z" />
<glyph unicode="&#xe07a;" d="M921.6 716.8h-256v51.2c0 35.584-23.142 51.2-51.2 51.2h-204.8c-28.006 0-51.2-15.616-51.2-51.2v-51.2h-256v-204.8h819.2v204.8zM614.4 716.8h-204.8v51.2h204.8v-51.2zM921.6 102.4h-819.2v358.4h358.4v-51.2h102.4v51.2h358.4z" />
<glyph unicode="&#xe07b;" d="M972.8 102.4l-102.4 563.2h-716.8l-102.4-460.8h187.75l17.050-102.4h716.8zM819.2 614.4l85.35-460.8h-597.35l-85.35 460.8h597.35zM358.4 307.2h460.8v-51.2h-460.8zM332.8 409.6h460.8v-51.2h-460.8zM307.2 512h460.8v-51.2h-460.8z" />
<glyph unicode="&#xe07c;" d="M460.8 734.106c0 19.712-12.8 33.894-32.461 33.894h-189.645c-19.661 0-33.894-14.182-33.894-33.894v-17.306h256v17.306zM800 665.6h-595.2l19.2-438.221c0-9.83 9.37-22.579 19.2-22.579h537.6c9.83 0 19.2 12.749 19.2 22.579l19.2 415.642c0 9.83-9.37 22.579-19.2 22.579z" />
<glyph unicode="&#xe07e;" d="M331.315 176.691c0-12.749 5.325-23.091 18.074-23.091h325.274c12.749 0 18.074 10.342 18.074 23.091l24.064 386.509h-409.6l24.115-386.509zM384 512h51.2v-281.6h-51.2v281.6zM486.4 512h51.2v-281.6h-51.2v281.6zM588.8 512h51.2v-281.6h-51.2v281.6zM716.8 665.6c0 0-13.261 0-76.8 0v51.2c0 25.088-31.386 51.2-51.2 51.2h-153.6c-19.763 0-51.2-26.112-51.2-51.2v-51.2c-63.59 0-76.8 0-76.8 0-51.2 0-51.2-51.2-51.2-51.2h512c0 0 0 51.2-51.2 51.2zM588.8 665.6h-153.6v51.2h153.6v-51.2z" />
<glyph unicode="&#xe07f;" d="M811.315 233.933l-184.883 175.206c24.73 36.659 39.168 80.896 39.168 128.461 0 127.232-103.168 230.4-230.4 230.4s-230.4-103.168-230.4-230.4 103.168-230.4 230.4-230.4c47.872 0 92.314 14.643 129.178 39.629l174.541-185.293c0 0 24.166-24.115 60.365 12.083 36.147 36.198 12.032 60.314 12.032 60.314zM281.6 537.6c0 84.838 68.762 153.6 153.6 153.6s153.6-68.762 153.6-153.6c0-84.838-68.762-153.6-153.6-153.6s-153.6 68.762-153.6 153.6z" />
<glyph unicode="&#xe080;" d="M524.442 316.006l-144.845 144.794 144.845 144.794-72.448 72.448-144.794-144.845-144.794 144.845-72.448-72.448 144.845-144.794-144.845-144.794 72.448-72.448 144.794 144.845 144.794-144.845z" horiz-adv-x="614" />
<glyph unicode="&#xe081;" d="M358.4 358.4v-51.2h51.2l307.2 307.2 153.6-153.6v358.4h-358.4l153.6-153.6-307.2-307.2zM768 204.8h-512v512h204.8v51.2h-194.56c-38.042 0-61.44-23.654-61.44-61.44v-491.52c0-37.786 23.757-61.44 61.798-61.44h491.162c38.042 0 61.44 23.654 61.44 61.44v194.56h-51.2v-204.8z" />
<glyph unicode="&#xe082;" d="M256 358.502v-102.502h-102.4v102.502h102.4zM230.4 409.6h-51.2l-25.6 193.843v127.795h102.4v-127.795l-25.6-193.843zM460.8 358.502v-102.502h-102.4v102.502h102.4zM435.2 409.6h-51.2l-25.6 193.843v127.795h102.4v-127.795l-25.6-193.843z" horiz-adv-x="614" />
<glyph unicode="&#xe083;" d="M358.4 358.502v-102.502h-102.4v102.502h102.4zM332.8 409.6h-51.2l-25.6 193.843v127.795h102.4v-127.795l-25.6-193.843z" horiz-adv-x="614" />
<glyph unicode="&#xe085;" d="M511.334 144.794c-94.464 0-188.928-0.563-283.392 0.154-83.917 0.614-125.133 42.598-125.338 126.464-0.256 123.341-0.307 246.682 0 370.022 0.205 82.586 43.008 125.85 126.618 126.106 188.928 0.614 377.856 0.666 566.835-0.051 83.046-0.307 125.133-43.981 125.338-127.386 0.256-123.341 0.307-246.682 0-370.022-0.205-81.613-41.574-124.365-122.675-125.133-95.795-0.87-191.59-0.154-287.386-0.154zM785.766 194.304c61.645-6.707 88.525 15.462 89.037 71.885 0.768 85.197 0.256 170.394 0.205 255.642-0.051 45.875 1.638 91.853-0.922 137.626-2.918 51.661-41.165 69.427-81.971 40.192-83.098-59.443-166.861-118.118-248.832-179.098-24.064-17.869-39.885-17.357-64.051 0.87-79.514 59.904-161.434 116.634-242.688 174.131-48.896 34.56-85.76 20.787-85.76-41.882 0-131.072-2.355-262.144-1.331-393.216 0.41-52.019 32.256-74.803 90.112-64.512 0 120.218 0 241.306 0 368.333 16.435-10.342 27.443-16.589 37.786-23.859 67.482-47.514 136.090-93.645 201.626-143.667 26.163-19.968 42.906-17.101 67.328 1.178 62.925 47.104 127.898 91.392 192.205 136.653 13.261 9.37 26.931 18.176 47.258 31.898 0-130.304 0-251.494 0-372.173z" />
<glyph unicode="&#xe086;" d="M691.2 661.965v-60.365c0-42.394-34.406-76.8-76.8-76.8s-76.8 34.406-76.8 76.8v64h-51.2v-64c0-42.394-34.406-76.8-76.8-76.8s-76.8 34.406-76.8 76.8v60.365c-44.083-11.418-76.8-51.098-76.8-98.765v-307.2c0-56.576 45.824-102.4 102.4-102.4h307.2c56.576 0 102.4 45.824 102.4 102.4v307.2c0 47.667-32.717 87.347-76.8 98.765zM448 601.6c0-21.197-17.203-38.4-38.4-38.4v0c-21.197 0-38.4 17.203-38.4 38.4v128c0 21.197 17.203 38.4 38.4 38.4v0c21.197 0 38.4-17.203 38.4-38.4v-128zM652.8 601.6c0-21.197-17.203-38.4-38.4-38.4v0c-21.197 0-38.4 17.203-38.4 38.4v128c0 21.197 17.203 38.4 38.4 38.4v0c21.197 0 38.4-17.203 38.4-38.4v-128z" />
<glyph unicode="&#xe087;" d="M512 768c-169.677 0-307.2-137.523-307.2-307.2s137.523-307.2 307.2-307.2 307.2 137.523 307.2 307.2-137.523 307.2-307.2 307.2zM358.4 460.8l76.8-76.8 230.4 230.4 51.2-51.2-256-256h-51.2l-102.4 102.4 51.2 51.2z" />
<glyph unicode="&#xe088;" d="M819.2 460.8l-307.2 204.8v-128h-307.2v-153.6h307.2v-128z" />
<glyph unicode="&#xe089;" d="M204.8 460.8l307.2-204.8v128c84.429 3.277 181.299-10.957 281.6-128 0 0 2.611 281.6-281.6 281.6v128l-307.2-204.8z" />
<glyph unicode="&#xe08a;" d="M739.942 307.2c-0.461 11.776-2.765 28.723-11.366 43.674-19.456 33.638-42.035 53.862-58.266 87.296-13.568 27.955-20.326 66.867-23.194 87.91 0.154 2.355 0.205 4.762 0.205 7.117-0.051 73.114-60.262 132.403-134.605 132.403-73.011 0-132.403-57.242-134.502-128.563-1.536-14.234-8.038-64.819-24.525-98.867-16.179-33.434-38.758-53.606-58.214-87.296-8.653-14.95-10.957-31.898-11.418-43.674h455.885zM461.773 256c-0.512-2.509-0.973-5.069-0.973-7.731 0-24.013 22.938-43.469 51.2-43.469 28.262 0 51.2 19.456 51.2 43.469 0 2.662-0.461 5.171-0.973 7.731h-100.454z" />
<glyph unicode="&#xe091;" d="M819.251 870.4h-614.502c-28.109 0-51.149-23.040-51.149-51.149v-716.851c0-28.16 23.040-51.149 51.149-51.149h614.451c28.16 0 51.2 22.989 51.2 51.149v716.851c0 28.109-23.040 51.149-51.149 51.149zM768 204.851l-511.949-0.051v48.128c0 0-3.379 31.078 64.358 59.136 33.434 13.875 72.909 40.448 143.718 48.896-21.811 15.309-31.334 46.899-49.92 90.778-0.307 0.666-0.563 1.434-0.819 2.15-4.25-0.717-8.653-0.717-11.776 1.126-8.602 4.966-13.824 32.205-13.978 45.466-0.205 19.866 10.496 17.92 10.496 17.92s0.358 0.102 0.87 0.205c-0.102 1.536-0.205 3.123-0.205 4.659 0 18.637-3.84 48.589 1.178 65.075 7.68 25.446 16.947 53.555 37.427 53.555 18.995 0 6.093 21.965 29.338 29.338 24.013 7.578 63.488-5.734 71.475-5.734 11.52 0 40.55-8.346 60.518-28.006 14.131-13.875 12.544-23.398 20.275-48.947 5.12-16.896 1.178-47.258 1.178-65.229 0-1.587-0.102-3.174-0.154-4.71 0.307-0.051 0.563-0.102 0.563-0.102s10.701 1.946 10.445-17.92c-0.102-13.261-5.325-40.499-13.978-45.466-3.072-1.792-7.322-1.843-11.418-1.178-0.256-0.614-0.563-1.331-0.717-1.946-18.432-43.52-28.57-75.315-50.176-90.726 71.526-8.243 111.258-35.072 144.845-48.947 68.096-28.16 68.403-55.347 68.403-55.347v-52.122z" />
<glyph unicode="&#xe096;" d="M670.208 291.43c0-26.112-6.093-51.917-18.227-77.414s-29.184-47.104-51.098-64.819c-24.013-19.2-51.968-34.202-83.917-45.005s-70.4-16.179-115.405-16.179c-48.282 0-91.75 4.506-130.253 13.517s-77.824 22.323-117.709 40.038v111.616h6.298c33.894-28.211 73.062-49.971 117.453-65.229s86.118-22.938 125.082-22.938c55.194 0 98.15 10.342 128.922 31.027s46.131 48.282 46.131 82.79c0 29.696-7.27 51.61-21.811 65.69s-36.659 25.037-66.355 32.87c-22.477 5.99-46.899 10.957-73.114 14.848s-54.067 8.858-83.456 14.848c-59.392 12.595-103.424 34.099-132.096 64.614-28.672 30.413-42.957 70.093-42.957 118.989 0 56.115 23.706 102.042 71.117 137.882s107.571 53.811 180.429 53.811c47.104 0 90.317-4.506 129.587-13.517s74.086-20.122 104.397-33.28v-105.318h-6.298c-25.498 21.606-59.034 39.475-100.557 53.811-41.574 14.182-84.122 21.35-127.642 21.35-47.718 0-86.016-9.882-114.995-29.696s-43.366-45.312-43.366-76.493c0-27.904 7.219-49.818 21.606-65.69s39.731-28.058 76.032-36.454c19.2-4.198 46.49-9.318 81.92-15.309s65.382-12.134 90.010-18.432c49.818-13.21 87.296-33.126 112.486-59.853s37.786-64.102 37.786-112.077zM0 409.6h819.2v-51.2h-819.2z" horiz-adv-x="819" />
<glyph unicode="&#xe600;" d="M358.4 102.4h-51.2v614.4h-51.2v-614.4h-51.2v358.4c-51.2 0-90.112 8.704-120.32 38.4s-46.643 66.304-46.643 115.2c0 49.613 15.462 87.398 46.643 115.2 31.13 27.802 69.12 38.4 120.32 38.4h153.6v-665.6zM614.4 256l51.2 51.2-153.6 153.6 153.6 153.6-51.2 51.2-204.8-204.8 204.8-204.8z" horiz-adv-x="717" />
<glyph unicode="&#xe601;" d="M665.6 102.4h-51.2v614.4h-51.2v-614.4h-51.2v358.4c-51.2 0-90.112 8.704-120.32 38.4s-46.643 66.304-46.643 115.2c0 49.613 15.462 87.398 46.643 115.2 31.13 27.802 69.12 38.4 120.32 38.4h153.6v-665.6zM307.2 460.8l-204.8 204.8-51.2-51.2 153.6-153.6-153.6-153.6 51.2-51.2 204.8 204.8z" horiz-adv-x="717" />
<glyph unicode="&#xe602;" d="M665.6 870.4h-307.2c-56.576 0-102.4-45.824-102.4-102.4v-614.4c0-56.576 45.824-102.4 102.4-102.4h307.2c56.576 0 102.4 45.824 102.4 102.4v614.4c0 56.576-45.824 102.4-102.4 102.4zM384 102.4c-14.131 0-25.6 11.469-25.6 25.6s11.469 25.6 25.6 25.6 25.6-11.469 25.6-25.6c0-14.131-11.469-25.6-25.6-25.6zM512 102.4c-14.131 0-25.6 11.469-25.6 25.6s11.469 25.6 25.6 25.6 25.6-11.469 25.6-25.6c0-14.131-11.469-25.6-25.6-25.6zM640 102.4c-14.131 0-25.6 11.469-25.6 25.6s11.469 25.6 25.6 25.6 25.6-11.469 25.6-25.6c0-14.131-11.469-25.6-25.6-25.6zM716.8 204.8h-409.6v563.2h409.6v-563.2z" />
<glyph unicode="&#xe603;" d="M358.4 665.6h512v-614.4h-512v614.4zM307.2 768h512v-51.2h-512v-614.4h-51.2v665.6zM204.8 870.4h512v-51.2h-512v-614.4h-51.2v665.6z" />
<glyph unicode="&#xe604;" d="M230.4 51.2c-31.181 27.29-70.042 58.88-78.797 66.867-15.104 13.824-28.262 29.235-37.786 47.514-7.475 14.49-11.981 29.798-11.366 46.234 0.973 25.754 12.493 45.414 35.328 57.702 21.248 11.418 42.906 10.65 63.949-0.666 12.339-6.605 21.35-16.794 27.494-29.491 0.307-0.614 0.614-1.28 1.178-2.304 4.045 8.806 9.114 16.384 15.974 22.63 14.182 12.851 30.771 18.739 49.92 17.613 30.976-1.792 57.293-25.754 61.44-57.395 2.406-18.176-1.587-35.379-9.574-51.712-7.885-16.179-18.688-30.31-31.539-42.752l-86.221-74.24zM793.6 204.8c-43.674 38.246-98.099 82.432-110.336 93.645-21.094 19.354-39.578 40.909-52.89 66.56-10.496 20.275-16.794 41.779-15.923 64.717 1.331 36.096 17.51 63.59 49.459 80.742 29.798 16.026 60.058 14.95 89.549-0.922 17.306-9.267 29.901-23.552 38.451-41.318 0.461-0.922 0.87-1.792 1.638-3.277 5.683 12.339 12.749 22.938 22.374 31.642 19.814 17.971 43.059 26.214 69.837 24.627 43.418-2.509 80.23-36.045 86.016-80.333 3.379-25.446-2.202-49.51-13.363-72.397-11.008-22.682-26.163-42.394-44.134-59.802l-120.678-103.885zM817.254 625.869c-11.571 88.627-85.197 155.648-171.981 160.717-53.606 3.174-100.045-13.312-139.725-49.254-19.251-17.51-33.434-38.656-44.8-63.334-1.485 2.918-2.406 4.71-3.277 6.554-17.101 35.533-42.342 64.051-76.954 82.586-58.982 31.693-119.552 33.843-179.098 1.843-63.846-34.355-96.154-89.344-98.867-161.536-1.741-45.926 10.854-88.883 31.846-129.485 26.573-51.2 63.539-94.362 105.779-133.069 4.045-3.738 11.11-9.779 19.302-16.742 10.342 2.918 21.146 4.454 32.256 4.454 2.509 0 5.018-0.051 7.578-0.205 56.013-3.277 101.939-46.131 109.21-101.837 1.229-9.318 1.075-18.739 0.307-28.109 17.562-15.002 35.174-30.157 51.968-44.851l159.488 137.37c-13.926 16.282-26.266 32.87-35.379 50.483-15.462 29.901-22.733 60.262-21.606 90.163 2.048 54.528 29.184 98.56 76.339 123.904 21.709 11.674 44.493 17.613 67.738 17.613 23.757 0 47.411-6.246 70.246-18.483 5.632-3.021 11.008-6.4 16.077-10.086 6.963 5.171 14.234 9.472 21.76 13.21 3.789 22.17 4.864 44.8 1.792 68.096z" />
</font>
</defs>
</svg>
