<?xml version="1.0" encoding="utf-8"?>
<svg version="1.1" id="Layer_1" xmlns="http://www.w3.org/2000/svg" xmlns:xlink="http://www.w3.org/1999/xlink" x="0px" y="0px"
	 viewBox="0 0 20 20" style="enable-background:new 0 0 20 20;" xml:space="preserve">
<g id="INBOX">
	<path d="M10,10l9-3.5V4c0-0.65014-0.36563-1-1-1H2C1.36675,3,1,3.34986,1,4v2.5L10,10z M10.75937,11.19507
		c-0.41962,0.16471-1.10137,0.16363-1.51875,0L5.12031,9.59754L1,8v8c0,0.64906,0.36675,1,1,1h16c0.63325,0,1-0.35094,1-1V8
		L10.75937,11.19507z"/>
</g>
<g id="DOCUMENTS">
	<path d="M0.778018182,0 C0.350381818,0 0.000381818182,0.333928571 0.000381818182,0.741928571 L0.000381818182,15.5817143 C0.000381818182,15.9909286 0.350381818,16.3248571 0.778018182,16.3248571 L13.2214727,16.3248571 C13.6503818,16.3248571 14.0003818,15.9909286 14.0003818,15.5817143 L14.0003818,5.50192857 C14.0003818,5.304 13.9189273,5.11578571 13.7725636,4.97735714 L8.78347273,0.217357143 C8.63710909,0.0777142857 8.43856364,0 8.23365455,0 L0.778018182,0 Z M8.22729091,5.50557143 L8.22729091,1.79592857 L12.1154727,5.50557143 L8.22729091,5.50557143 Z"></path>
</g>
<g id="CONTACTS">
	<path d="M16.5,2.00006H14V6.5h3.5V3C17.49292,2.33307,17.15991,2.00006,16.5,2.00006z"/>
	<polygon points="14,12 17.5,12 17.5,8 14.00897,8 	"/>
	<path d="M2.5,3v14c0,0.66699,0.33301,1,1,1h9V2h-9C2.83301,2,2.5,2.33301,2.5,3z"/>
	<path d="M14,18l2.5-0.00012c0.65991,0,0.99292-0.33301,1-0.99988v-3.5H14V18z"/>
</g>
<g id="NOTEPAD">
	<path d="M13,14.72937v3.27014L17,14h-3.111C13.22909,14,13,14.0625,13,14.72937z"/>
	<path d="M16,2.00006L4.04169,2H4C3.33301,2,3,2.33301,3,3v2.17645v11.26733V17
		c0,0.62585,0.30487,0.94611,0.89209,0.98462C3.94519,17.99493,3.98798,18,4,18h0.04169h7.46802v-4.2312
		c0.01825-0.83124,0.43872-1.25024,1.26587-1.25507H17V3C16.99292,2.33307,16.65991,2.00006,16,2.00006z M9,14H6.88892
		c-0.43011,0-0.77783-0.33527-0.77783-0.75c0-0.41479,0.34772-0.75,0.77783-0.75H9c0.42932,0,0.77777,0.33521,0.77777,0.75
		C9.77777,13.66473,9.42932,14,9,14z M13.11108,10.5H6.88892c-0.43011,0-0.77783-0.33527-0.77783-0.75
		C6.11108,9.33521,6.4588,9,6.88892,9h6.22217c0.42926-0.01038,0.77783,0.33521,0.77783,0.75
		C13.88892,10.16473,13.54047,10.5,13.11108,10.5z M13.11108,7H6.88892C6.4588,7,6.11108,6.66473,6.11108,6.25
		c0-0.41479,0.34772-0.75,0.77783-0.75h6.22217c0.42938,0,0.77783,0.33521,0.77783,0.75C13.88892,6.66473,13.54047,7,13.11108,7z"/>
</g>
<g id="CALENDAR">
	<path d="M18,3.49646h-3.00098V3.03644c0-0.552-0.44702-1-0.99902-1c-0.55298,0-1.00098,0.448-1.00098,1v0.46002
		h-0.00488H6.99902V3.03644c0-0.552-0.44702-1-1-1C5.448,2.03644,5,2.48444,5,3.03644v0.46002H2c-0.63324,0-1,0.35852-1,0.99957
		v11.5c0,0.64142,0.36676,1,1,1h16c0.63324,0,1-0.35858,1-1v-11.5C19,3.85498,18.63324,3.49646,18,3.49646z M10.04907,11.77203
		v0.00153c0,1.29657-0.94342,2.24725-2.474,2.24725c-0.98163,0-1.71747-0.30463-2.27667-0.78442
		c-0.1369-0.11914-0.2547-0.3252-0.2547-0.54016c0-0.39288,0.33264-0.72693,0.72565-0.72693
		c0.21625,0,0.36206,0.08826,0.4812,0.18683c0.39294,0.33405,0.80505,0.50928,1.34369,0.50928
		c0.56952,0,0.97131-0.32385,0.97131-0.83301v-0.02063c0-0.55927-0.50037-0.87274-1.34363-0.87274H6.98645
		c-0.35327,0-0.64758-0.29431-0.64758-0.64606c0-0.20752,0.08826-0.38409,0.32373-0.61957l1.3349-1.34369H5.88702
		c-0.35175,0-0.64758-0.29437-0.64758-0.64905c0-0.35175,0.29584-0.64758,0.64758-0.64758h3.34674
		c0.44153,0,0.76526,0.2547,0.76526,0.66821c0,0.37238-0.17511,0.57843-0.45184,0.84332L8.20349,9.82935
		c0.93164,0.15753,1.84558,0.64758,1.84558,1.92358V11.77203z M14.25531,13.96198c-0.41211,0-0.74622-0.33417-0.74622-0.74615
		V8.46655l-0.53119,0.1369c-0.07806,0.0191-0.18555,0.03973-0.26501,0.03973c-0.35175,0-0.65637-0.29431-0.65637-0.64758
		c0-0.30463,0.19574-0.56073,0.49896-0.64758l0.97272-0.284c0.28412-0.07947,0.50049-0.12799,0.70648-0.12799h0.01917
		C14.66583,6.93604,15,7.26868,15,7.68066v5.53516h0.00146C15.00146,13.62781,14.66736,13.96198,14.25531,13.96198z"/>
</g>
<g id="MESSENGER">
	<path d="M9.99951,2C5.58148,2,2.00049,5.58099,2.00049,9.99902c0,4.41797,3.58099,8,7.99902,8
		c4.41797,0,7.99896-3.58203,7.99896-8C17.99847,5.58099,14.41748,2,9.99951,2z M12.26392,6.56293
		c0.50897,0,0.922,0.41296,0.922,0.922c0,0.50897-0.41302,0.922-0.922,0.922c-0.50903,0-0.922-0.41302-0.922-0.922
		C11.34192,6.97589,11.75488,6.56293,12.26392,6.56293z M7.71118,6.56293c0.50903,0,0.922,0.42444,0.922,0.94757
		s-0.41296,0.94763-0.922,0.94763c-0.50897,0-0.922-0.4245-0.922-0.94763S7.20221,6.56293,7.71118,6.56293z M13.66388,13.94885
		C12.8479,14.66528,11,15.01379,10.01093,14.99957C9,15.01379,7.17389,14.66528,6.35791,13.94885
		C5.11688,12.85962,4.98187,11,4.98187,10.58722h10.05804C15.03992,11,14.90491,12.85962,13.66388,13.94885z"/>
</g>
<g id="SETTINGS">
	<path d="M10.025,13.157c-1.747,0-3.167-1.416-3.167-3.157s1.421-3.157,3.167-3.157
        	c1.746,0,3.167,1.416,3.168,3.157C13.193,11.741,11.771,13.157,10.025,13.157 M18.684,8.538
        	c-0.022-0.006-0.083-0.022-1.343-0.222l-1.019-0.168c-0.031-0.005-0.056-0.027-0.065-0.057l-0.005-0.019l-0.008-0.018
        	l-0.038-0.093c-0.089-0.216-0.302-0.733-0.405-0.974l-0.007-0.016l-0.009-0.016c-0.014-0.027-0.013-0.06,0.006-0.086
        	l1.373-1.909c0.132-0.182,0.119-0.43-0.032-0.603c-0.027-0.028-0.505-0.505-1.429-1.425c-0.09-0.091-0.212-0.14-0.34-0.14
        	c-0.1,0-0.197,0.03-0.279,0.089l-1.919,1.371c-0.013,0.009-0.031,0.015-0.049,0.015c-0.023-0.003-0.031-0.005-0.037-0.009
		l-0.018-0.009L13.042,4.24c-0.34-0.14-1.042-0.43-1.065-0.44c-0.088-0.036-0.092-0.057-0.095-0.078l-0.384-2.32
		C11.462,1.168,11.218,1,11.022,1H9.027c-0.24,0-0.44,0.172-0.477,0.408L8.169,3.715C8.166,3.724,8.155,3.751,8.125,3.778
		c-0.139,0.065-0.794,0.33-1.081,0.447L7.009,4.24L6.988,4.248L6.969,4.258C6.958,4.264,6.945,4.267,6.932,4.267
		c-0.011,0-0.029-0.002-0.046-0.015L6.785,4.18C4.982,2.888,4.958,2.874,4.937,2.862C4.866,2.82,4.782,2.798,4.696,2.798
		c-0.061,0-0.215,0.012-0.335,0.123l0.001,0.001c-0.046,0.043-0.17,0.166-0.58,0.573L2.936,4.339L2.925,4.35L2.914,4.362
		C2.778,4.521,2.756,4.734,2.859,4.919l0.002-0.002C2.942,5.057,3.214,5.432,4.26,6.872c0.017,0.023,0.02,0.057,0.005,0.084
		L4.256,6.972L4.249,6.989L4.207,7.087C4.073,7.404,3.953,7.686,3.803,8.061L3.797,8.076L3.792,8.091
		c-0.009,0.03-0.035,0.053-0.066,0.058L1.401,8.531C1.168,8.566,0.997,8.767,0.997,9.006v1.988
		c0,0.237,0.177,0.441,0.412,0.476l2.317,0.381c0.031,0.005,0.057,0.028,0.066,0.057l0.004,0.014l0.005,0.014
		c0.17,0.431,0.292,0.74,0.452,1.086l0.005,0.011l0.005,0.01c0.015,0.027,0.012,0.062-0.007,0.088l-1.373,1.908
		l-0.077,0.168c-0.038,0.16,0.007,0.335,0.13,0.456l0.089,0.087l1.32,1.316c0.091,0.091,0.212,0.141,0.341,0.141
		c0.103,0,0.202-0.032,0.285-0.093l1.889-1.35c0.03-0.015,0.052-0.023,0.066-0.023c0.011,0,0.036,0.002,0.086,0.02
		l0.049,0.021c0.374,0.16,0.643,0.276,1.021,0.421l0.013,0.005l0.013,0.004c0.03,0.009,0.052,0.035,0.058,0.065l0.384,2.318
		C8.578,18.804,8.802,19,9.028,19h0.41v-0.001h1.584c0.24,0,0.44-0.171,0.477-0.407l0.379-2.286
		c0.02-0.06,0.047-0.094,0.214-0.153c0.353-0.139,0.62-0.246,0.962-0.399c0.031-0.012,0.056-0.016,0.07-0.016
		c0.007,0,0.022,0,0.053,0.018c0.742,0.53,1.853,1.322,1.902,1.358l0.016,0.012l0.019,0.011
		c0.077,0.046,0.163,0.07,0.25,0.07c0.115,0,0.224-0.041,0.315-0.118l0.013-0.011l0.012-0.012l0.705-0.703
		c0.56-0.563,0.704-0.708,0.754-0.77l0.001,0.001c0.054-0.075,0.129-0.222,0.069-0.414c-0.004-0.017-0.011-0.034-0.02-0.055
		c-0.004-0.008-0.007-0.016-0.011-0.025l-0.001,0c-0.058-0.108-0.199-0.3-0.548-0.773l-0.86-1.197
		c-0.018-0.026-0.02-0.059-0.006-0.087l0.009-0.017l0.007-0.018c0.317-0.763,0.407-0.982,0.434-1.047
		c0.047-0.086,0.066-0.101,0.108-0.114c2.255-0.362,2.333-0.387,2.367-0.397l0.012-0.004l0.012-0.005
		c0.208-0.079,0.317-0.286,0.317-0.449V10l0-0.994C19.055,8.785,18.907,8.596,18.684,8.538"/>
</g>
<g id="CALENDAR_SETTINGS">
	<path d="M19,7V4.496c0-0.641-0.367-1-1-1h-3.001v-0.46c0-0.552-0.447-1-0.999-1c-0.553,0-1.001,0.448-1.001,1v0.46
		h-0.005H6.999v-0.46c0-0.552-0.447-1-1-1C5.448,2.036,5,2.484,5,3.036v0.46H2c-0.633,0-1,0.359-1,1V7H19z"/>
	<path d="M1,8.5v7.496c0,0.641,0.367,1,1,1h16c0.633,0,1-0.359,1-1V8.5H1z"/>
</g>
<g id="NEWS">
	<path d="M8.5,9.8L8.5,9.8c0.4,0,0.7-0.3,0.7-0.7S8.9,8.4,8.5,8.4H7.8c-0.4,0-0.7,0.3-0.7,0.7s0.3,0.7,0.7,0.7
		C7.8,9.8,8.5,9.8,8.5,9.8z M15.1,9.8L15.1,9.8c0.4,0,0.7-0.3,0.7-0.7s-0.3-0.7-0.7-0.7h-3.6c-0.4,0-0.7,0.3-0.7,0.7
		s0.3,0.7,0.7,0.7H15.1z M15.1,12.7L15.1,12.7c0.4,0,0.7-0.3,0.7-0.7s-0.3-0.7-0.7-0.7H7.8c-0.4,0-0.7,0.3-0.7,0.7s0.3,0.7,0.7,0.7
		H15.1z M4.9,8.4H3.5v5.9c0,0.4,0.3,0.7,0.7,0.7s0.7-0.3,0.7-0.7C4.9,14.3,4.9,8.4,4.9,8.4z M15.1,16.5H4c-1.2,0-2-1-2-2.2V7.6
		c0-0.4,0.3-0.7,0.7-0.7h2.2V4.7C4.9,4.3,5.2,4,5.6,4h11.6C17.7,4,18,4.3,18,4.7v8.9C18,15.2,16.7,16.5,15.1,16.5L15.1,16.5z"/>
</g>
<g id="HOME">
	<path d="M17.8,9.4l-7.2-7.2C10.4,2.1,10.2,2,10,2S9.6,2.1,9.5,2.2L2.2,9.4c-0.3,0.3-0.3,0.8,0,1.1s0.8,0.3,1.1,0
		l0.2-0.2v6.9c0,0.4,0.3,0.7,0.7,0.7h3.6V15c0-1.2,1-2.2,2.2-2.2l0,0c1.2,0,2.2,1,2.2,2.2v2.9h3.3c0.4,0,1-0.3,1-0.7v-6.9l0.2,0.2
		c0.3,0.3,0.8,0.3,1.1,0C18.1,10.2,18.1,9.7,17.8,9.4z"/>
</g>
<g id="GIFBOX">
	<path d="M18.5,15.4 L1.5,15.4 C1.1,15.4 0.7,15.1 0.7,14.6 L0.7,0.9 C0.7,0.5 1.1,0.2 1.5,0.1 L18.5,0.1 C18.7,0.1 18.9,0.2 19,0.3 C19.1,0.4 19.2,0.6 19.2,0.8 L19.2,14.6 C19.3,15.1 19,15.4 18.5,15.4 Z M2.2,13.9 L17.8,13.9 L17.8,1.7 L2.2,1.7 L2.2,13.9 L2.2,13.9 Z M12.1744966,5.14643075 L16,5.14643075 L16,6.09456986 L13.2946919,6.09456986 L13.2946919,7.33557047 L15.6632093,7.33557047 L15.6632093,8.27272727 L13.2946919,8.27272727 L13.2946919,10.5350824 L12.1744966,10.5350824 L12.1744966,5.14643075 Z M11.123856,10.5350824 L10.0036608,10.5350824 L10.0036608,5.13910921 L11.123856,5.13910921 L11.123856,10.5350824 Z M7.88773642,6.82306284 C7.80231806,6.45454361 7.59365633,6.19707212 7.26174497,6.05064063 C7.07626509,5.97010332 6.87004384,5.92983527 6.64307505,5.92983527 C6.20866165,5.92983527 5.85174026,6.09395809 5.57230018,6.42220866 C5.2928601,6.75045924 5.15314216,7.24404796 5.15314216,7.90298963 C5.15314216,8.56681235 5.30445242,9.03660631 5.60707749,9.3123856 C5.90970255,9.58816489 6.25381137,9.72605247 6.63941428,9.72605247 C7.01769561,9.72605247 7.3276376,9.61684063 7.56924954,9.39841367 C7.81086149,9.17998671 7.95973126,8.89383948 8.01586333,8.53996339 L6.76754118,8.53996339 L6.76754118,7.63941428 L9.0152532,7.63941428 L9.0152532,10.5350824 L8.26845638,10.5350824 L8.15497254,9.86150092 C7.93776585,10.117756 7.7425268,10.2983521 7.56924954,10.4032947 C7.27150553,10.586334 6.90543231,10.6778523 6.47101891,10.6778523 C5.75594517,10.6778523 5.17022803,10.4301428 4.71384991,9.93471629 C4.23794759,9.43684925 4,8.75595307 4,7.89200732 C4,7.01829948 4.24038808,6.31787939 4.72117145,5.79072605 C5.20195481,5.26357272 5.83770196,5 6.62843197,5 C7.31421941,5 7.8651596,5.17388478 8.28126907,5.52165955 C8.69737853,5.86943432 8.93593624,6.30323108 8.99694936,6.82306284 L7.88773642,6.82306284 Z"/>
</g>
<g id="GIFBOX_TEST">
    <path d="M18.3010005,18.3000002 L1.77757306,18.3000002 C1.38878653,18.3000002 1,18.0000002 1,17.5000002 L1,3.80000001 C1,3.4 1.38878653,3.1 1.77757306,3 L18.3010005,3 C18.4953938,3 18.6897871,3.1 18.7869837,3.2 C18.8841803,3.3 18.981377,3.50000001 18.981377,3.70000001 L18.981377,17.5000002 C19.0785736,18.0000002 18.7869837,18.3000002 18.3010005,18.3000002 L18.3010005,18.3000002 Z M2.5,16.8000002 L17.5,16.8000002 L17.5,4.60000002 L2.5,4.60000002 L2.5,16.8000002 L2.5,16.8000002 L2.5,16.8000002 Z M12.4744966,8.04643081 L16.3,8.04643081 L16.3,8.99456993 L13.5946919,8.99456993 L13.5946919,10.2355706 L15.9632093,10.2355706 L15.9632093,11.1727274 L13.5946919,11.1727274 L13.5946919,13.4350825 L12.4744966,13.4350825 L12.4744966,8.04643081 L12.4744966,8.04643081 Z M11.2701891,13.4350825 L10.1499939,13.4350825 L10.1499939,8.03910927 L11.2701891,8.03910927 L11.2701891,13.4350825 L11.2701891,13.4350825 Z M7.88773642,9.72306292 C7.80231806,9.35454369 7.59365633,9.0970722 7.26174497,8.9506407 C7.07626509,8.87010339 6.87004384,8.82983534 6.64307505,8.82983534 C6.20866165,8.82983534 5.85174026,8.99395816 5.57230018,9.32220874 C5.2928601,9.65045932 5.15314216,10.144048 5.15314216,10.8029897 C5.15314216,11.4668125 5.30445242,11.9366064 5.60707749,12.2123857 C5.90970255,12.488165 6.25381137,12.6260526 6.63941428,12.6260526 C7.01769561,12.6260526 7.3276376,12.5168407 7.56924954,12.2984138 C7.81086149,12.0799868 7.95973126,11.7938396 8.01586333,11.4399635 L6.76754118,11.4399635 L6.76754118,10.5394144 L9.0152532,10.5394144 L9.0152532,13.4350825 L8.26845638,13.4350825 L8.15497254,12.761501 C7.93776585,13.0177561 7.7425268,13.1983522 7.56924954,13.3032948 C7.27150553,13.4863341 6.90543231,13.5778524 6.47101891,13.5778524 C5.75594517,13.5778524 5.17022803,13.3301429 4.71384991,12.8347164 C4.23794759,12.3368494 4,11.6559532 4,10.7920074 C4,9.91829957 4.24038808,9.21787947 4.72117145,8.69072612 C5.20195481,8.16357278 5.83770196,7.90000006 6.62843197,7.90000006 C7.31421941,7.90000006 7.8651596,8.07388484 8.28126907,8.42165962 C8.69737853,8.76943439 8.93593624,9.20323116 8.99694936,9.72306292 L7.88773642,9.72306292 L7.88773642,9.72306292 Z" id="Shape" stroke="none" fill="#26282A" fill-rule="evenodd"></path>
</g>
<g id="RICHTEXT_OFF">
		<polygon points="13.7,3 2.2,3 1.8,4.6 6.8,4.6 4.4,15.1 6.2,15.1 8.6,4.6 13.3,4.6 		"/>
		<path d="M17.8,15.2C17.8,15.2,17.8,15.2,17.8,15.2L17.8,15.2L16,13.4l1.8-1.7c0,0,0,0,0,0c0,0,0,0,0,0l0,0l0,0
			c0.2-0.2,0.2-0.5,0-0.7c-0.2-0.2-0.5-0.2-0.7,0l0,0l0,0c0,0,0,0,0,0c0,0,0,0,0,0l-1.8,1.7l-1.8-1.8l0,0c-0.2-0.2-0.5-0.2-0.7,0
			c-0.2,0.2-0.2,0.5,0,0.7h0l0,0l1.8,1.8l-1.8,1.8c-0.2,0.2-0.2,0.5,0,0.7c0.2,0.2,0.5,0.2,0.7,0c0,0,0,0,0,0l1.8-1.8l1.8,1.8l0,0
			c0,0,0,0,0,0c0.2,0.2,0.5,0.2,0.7,0C18,15.7,18,15.4,17.8,15.2z"/>
</g>
<g id="RICHTEXT_ON">
		<polygon points="13.7,3 2.2,3 1.8,4.6 6.8,4.6 4.4,15.1 6.2,15.1 8.6,4.6 13.3,4.6 		"/>
		<path d="M18,12.9L18,12.9L18,12.9C18,12.9,18,12.9,18,12.9C18,12.9,18,12.9,18,12.9l-2.5,0l0-2.5h0c0-0.3-0.2-0.5-0.5-0.5
			c-0.3,0-0.5,0.2-0.5,0.5h0v0l0,2.5l-2.5,0c-0.3,0-0.5,0.2-0.5,0.5c0,0.3,0.2,0.5,0.5,0.5c0,0,0,0,0,0h2.5l0,2.5h0c0,0,0,0,0,0
			c0,0.3,0.2,0.5,0.5,0.5c0.3,0,0.5-0.2,0.5-0.5c0,0,0,0,0,0h0l0-2.5H18c0,0,0,0,0,0s0,0,0,0h0v0c0.3,0,0.5-0.2,0.5-0.5
			C18.5,13.2,18.3,12.9,18,12.9z"/>
	</g>
<g id="SPONSORED">
	<path d="M5.4,4.3C5.1,4,4.7,4,4.4,4.3s-0.3,0.7,0,1l0.5,0.5c0.3,0.3,0.7,0.3,1,0s0.3-0.7,0-1L5.4,4.3z M4.9,14.1
		l-0.5,0.5c-0.3,0.3-0.3,0.7,0,1s0.7,0.3,1,0l0.5-0.5c0.3-0.3,0.3-0.7,0-1S5.1,13.8,4.9,14.1L4.9,14.1z M15.1,14.1
		c-0.3-0.3-0.7-0.3-1,0s-0.3,0.7,0,1l0.5,0.5c0.3,0.3,0.7,0.3,1,0s0.3-0.7,0-1L15.1,14.1z M15.1,5.9l0.5-0.5c0.3-0.3,0.3-0.7,0-1
		s-0.7-0.3-1,0l-0.5,0.5c-0.3,0.3-0.3,0.7,0,1C14.4,6.2,14.9,6.2,15.1,5.9L15.1,5.9z M17.3,9.3h-0.7c-0.4,0-0.7,0.3-0.7,0.7
		s0.3,0.7,0.7,0.7h0.7c0.4,0,0.7-0.3,0.7-0.7S17.7,9.3,17.3,9.3L17.3,9.3z M8.5,7.8h3.6c0.4,0,0.7-0.3,0.7-0.7s-0.3-0.7-0.7-0.7
		h-1.5c0-0.4-0.3-0.7-0.7-0.7S9.3,6,9.3,6.4l0,0H8.2c-1,0-1.8,0.8-1.8,1.8v0.7c0,1,0.8,1.8,1.8,1.8h2.5c0.4,0,0.7,0.3,0.7,0.7
		s-0.3,0.7-0.7,0.7H7.1c-0.4,0-0.7,0.3-0.7,0.7s0.3,0.7,0.7,0.7h2.2c0,0.4,0.3,0.7,0.7,0.7s0.7-0.3,0.7-0.7l0,0h0.4
		c1,0,1.8-0.8,1.8-1.8V11c0-1-1-1.8-2.2-1.8H8.5c-0.4,0-0.7-0.3-0.7-0.7S8.1,7.8,8.5,7.8L8.5,7.8z M10,4.2c0.4,0,0.7-0.3,0.7-0.7
		V2.7C10.7,2.3,10.4,2,10,2S9.3,2.3,9.3,2.7v0.7C9.3,3.9,9.6,4.2,10,4.2L10,4.2z M3.5,9.3H2.7C2.3,9.3,2,9.6,2,10s0.3,0.7,0.7,0.7
		h0.7c0.4,0,0.7-0.3,0.7-0.7S3.9,9.3,3.5,9.3L3.5,9.3z M10,15.8c-0.4,0-0.7,0.3-0.7,0.7v0.7c0,0.4,0.3,0.7,0.7,0.7s0.7-0.3,0.7-0.7
		v-0.7C10.7,16.1,10.4,15.8,10,15.8L10,15.8z"/>
</g>
<g id="CHEVRON_DOWN">
	<path d="M10,13.06055L5.96973,9.03027c-0.29297-0.29297-0.29297-0.76758,0-1.06055s0.76758-0.29297,1.06055,0
		L10,10.93945l2.96973-2.96973c0.29297-0.29297,0.76758-0.29297,1.06055,0s0.29297,0.76758,0,1.06055L10,13.06055z"/>
</g>
<g id="CHEVRON_UP">
	<path d="M13.5,12.75c-0.19189,0-0.38379-0.07324-0.53027-0.21973L10,9.56055l-2.96973,2.96973
		c-0.29297,0.29297-0.76758,0.29297-1.06055,0s-0.29297-0.76758,0-1.06055L10,7.43945l4.03027,4.03027
		c0.29297,0.29297,0.29297,0.76758,0,1.06055C13.88379,12.67676,13.69189,12.75,13.5,12.75z"/>
</g>
<g id="CHEVRON_RIGHT">
	<path d="M9,14.5c-0.19189,0-0.38379-0.07324-0.53027-0.21973c-0.29297-0.29297-0.29297-0.76758,0-1.06055
		L11.43945,10.25L8.46973,7.28027c-0.29297-0.29297-0.29297-0.76758,0-1.06055s0.76758-0.29297,1.06055,0L13.56055,10.25
		l-4.03027,4.03027C9.38379,14.42676,9.19189,14.5,9,14.5z"/>
</g>
<g id="CHEVRON_LEFT">
	<path d="M11,14.5c-0.19189,0-0.38379-0.07324-0.53027-0.21973L6.43945,10.25l4.03027-4.03027
		c0.29297-0.29297,0.76758-0.29297,1.06055,0s0.29297,0.76758,0,1.06055L8.56055,10.25l2.96973,2.96973
		c0.29297,0.29297,0.29297,0.76758,0,1.06055C11.38379,14.42676,11.19189,14.5,11,14.5z"/>
</g>
<g id="MORE">
	<circle cx="3" cy="10" r="2"/>
	<circle cx="10" cy="10" r="2"/>
	<circle cx="17" cy="10" r="2"/>
</g>
<g id="FOLDER">
	<path d="M2.5,15.8c0,0.4,0.3,0.7,0.7,0.7h13.6c0.4,0,0.7-0.3,0.7-0.7V10h-15C2.5,10,2.5,15.8,2.5,15.8z"/>
	<path d="M16.8,5h-6.3L9.7,3.4C9.6,3.2,9.3,3,9,3H3.2C2.8,3,2.5,3.3,2.5,3.7v4.8h15V5.7C17.5,5.3,17.2,5,16.8,5z"/>
</g>
<g id="REPLY">
	<path d="M8.71113,15.94631c0.5019,0.4315,1.28003,0.07472,1.28003-0.58776l-0.00118-2.62051
		c5.04854,0,6.85849,3.58353,7.02057,4.20402c0.35148,0.79679,1.53448,0.59407,1.48076-0.2625
		c-0.42253-6.66188-3.91085-10.7275-8.50133-10.7275l0.00118-2.418c0-0.66239-0.77647-1.01935-1.27837-0.58776L1.76153,8.96638
		c-0.36218,0.31201-0.35713,0.87468,0.0106,1.18013L8.71113,15.94631z"/>
</g>
<g id="REPLY_ALL">
	<path d="M2.04415,9.40553l5.859-5.0443c0.32524-0.32034,0.32524-0.83951,0-1.15984
		c-0.32477-0.32124-0.85286-0.32124-1.17809,0L0.244,8.77985c-0.32533,0.32133-0.32533,0.84041,0,1.16084l6.50721,6.41979
		c0.32479,0.31952,0.85286,0.31952,1.17811,0c0.32524-0.32124,0.32524-0.83951,0-1.15984L2.04415,9.40553z"/>
	<path d="M12.72464,6.61721V3.89095c0-1.0597-1.12305-1.10931-1.57607-0.69492L4.80548,9.14108
		C4.4567,9.4606,4.46025,9.96996,4.81922,10.28502l6.38878,6.10127c0.6314,0.52353,1.52552,0.16058,1.52552-0.56361
		l-0.00889-2.84957c3.41588,0,5.68504,3.15401,5.70722,3.20017c0.22148,0.31325,0.47037,0.43129,0.70419,0.43129
		C19.59888,16.60457,20,16.1422,20,15.83341C20,8.56248,15.56138,6.61721,12.72464,6.61721z"/>
</g>
<g id="FORWARD">
	<path d="M10.44244,16.95617c-0.51513,0.38479-1.2386,0.00983-1.2386-0.61911L9.204,14H2.2642
		C1.83669,14,1.5,13.62816,1.5,13.20065V7.79349C1.5,7.36598,1.83669,7,2.2642,7H9.204V4.69486
		c0-0.70449,0.7668-0.97131,1.23844-0.61911l7.7393,5.8079c0.36281,0.27286,0.45655,0.89499,0,1.23821L10.44244,16.95617z"/>
</g>
<g id="STAR">
	<path d="M15.71813,8.3491C15.65205,8.14542,15.46222,8,15.24831,8h-3.65612l-1.1301-3.4746
		c-0.06606-0.20369-0.25586-0.34169-0.46976-0.34169S9.58862,4.32172,9.52257,4.5254L8.39246,8H4.73634
		c-0.2139,0-0.40373,0.14542-0.46982,0.3491C4.20044,8.55291,4.2728,8.77617,4.44593,8.90211l2.95806,2.15194l-1.12983,3.48213
		c-0.06608,0.2038,0.00627,0.42695,0.17941,0.55301c0.17316,0.12604,0.40756,0.12604,0.58072,0l2.95804-2.15208l2.95804,2.15208
		c0.08658,0.06301,0.18859,0.09441,0.29036,0.09441s0.20378-0.0314,0.29036-0.09441c0.17316-0.12606,0.24549-0.3492,0.17941-0.55301
		l-1.12983-3.48213l2.95806-2.15194C15.71186,8.77617,15.78421,8.55291,15.71813,8.3491z"/>
</g>
<g id="CIRCLE">
	<circle cx="10" cy="10" r="4"/>
</g>
<g id="ATTACHMENT">
	<path d="M15.6,14.4c-1.3,1.3-3.3,1.3-4.6,0l-2.9-2.9c-0.8-0.8-0.8-2.1,0-2.9c0.8-0.8,2.1-0.8,2.9,0l2.7,2.7
		c0.2,0.2,0.2,0.6,0,0.8s-0.6,0.2-0.8,0l-2.7-2.7C9.9,9.1,9.3,9.1,9,9.4s-0.3,0.9,0,1.2l3.1,3.1c0,0,1.4,1.1,2.7-0.2
		c0.8-0.8,0.8-2.1,0-2.9L9.3,5.3c-0.8-0.8-2.1-0.8-2.9,0C4.8,6.9,6.6,8.4,6.6,8.4c0.2,0.2,0.2,0.6,0,0.8S6,9.4,5.8,9.2
		c0,0-2.8-2.2-0.2-4.8c1.3-1.3,3.3-1.3,4.6,0l5.4,5.4C16.8,11.1,16.8,13.1,15.6,14.4"/>
</g>
<g id="ARROW_UP">
	<path d="M14.8,8.5l-5-5l-5,5c-0.3,0.3-0.3,0.8,0,1.1s0.8,0.3,1.1,0L9,6.4v9.4c0,0.4,0.3,0.8,0.8,0.8s0.8-0.3,0.8-0.8
		V6.4l3.2,3.2c0.1,0.1,0.3,0.2,0.5,0.2s0.4-0.1,0.5-0.2C15.1,9.3,15.1,8.8,14.8,8.5z"/>
</g>
<g id="ARROW_DOWN">
	<path d="M5.2,11.5l5,5l5-5c0.3-0.3,0.3-0.8,0-1.1s-0.8-0.3-1.1,0L11,13.7V4.2c0-0.4-0.3-0.8-0.8-0.8S9.5,3.8,9.5,4.2
		v9.4l-3.2-3.2c-0.1-0.1-0.3-0.2-0.5-0.2s-0.4,0.1-0.5,0.2C4.9,10.8,4.9,11.2,5.2,11.5z"/>
</g>
<g id="CHECKBOX_OFF">
	<path d="M14.5,17h-9C4.1,17,3,15.9,3,14.5v-9C3,4.1,4.1,3,5.5,3h9C15.9,3,17,4.1,17,5.5v9C17,15.9,15.9,17,14.5,17z
		 M5.5,4C4.7,4,4,4.7,4,5.5v9C4,15.3,4.7,16,5.5,16h9c0.8,0,1.5-0.7,1.5-1.5v-9C16,4.7,15.3,4,14.5,4H5.5z"/>
</g>
<g id="CHECKBOX_ON">
	<path d="M14.5,3h-9C4.12158,3,3,4.12158,3,5.5v9C3,15.87842,4.12158,17,5.5,17h9c1.37842,0,2.5-1.12158,2.5-2.5v-9
		C17,4.12158,15.87842,3,14.5,3z M14.29175,7.71295L8.5,13.5l-2.79175-2.62366c-0.27765-0.27771-0.27765-0.72693,0-1.00464
		c0.27771-0.27771,0.72699-0.27771,1.0047,0L8.5,11.5l4.78613-4.79175c0.27771-0.27771,0.72791-0.27771,1.00562,0
		C14.5694,6.98596,14.5694,7.43524,14.29175,7.71295z"/>
</g>
<g id="MIXED_CHECKBOX">
        <path fill="#188FFF" d="M7,10.99951h6c0.55231,0,1-0.44775,1-1c0-0.55231-0.44769-1-1-1H7c-0.55231,0-1,0.44769-1,1
            C6,10.55176,6.44769,10.99951,7,10.99951z"/>
        <path d="M14.5,17h-9C4.12158,17,3,15.87842,3,14.5v-9C3,4.12158,4.12158,3,5.5,3h9C15.87842,3,17,4.12158,17,5.5v9
            C17,15.87842,15.87842,17,14.5,17z M5.5,4C4.67285,4,4,4.67285,4,5.5v9C4,15.32715,4.67285,16,5.5,16h9
            c0.82715,0,1.5-0.67285,1.5-1.5v-9C16,4.67285,15.32715,4,14.5,4H5.5z"/>
</g>
<g id="UNDERLINE">
	<path d="M15.78986,17.5H4.58145c-0.41247,0-0.74723-0.33476-0.74723-0.74723l0,0C3.83423,16.3403,4.16853,16,4.581,16
		H15.79c0.41247,0,0.74709,0.3403,0.74709,0.75277l0,0C16.53709,17.16524,16.20233,17.5,15.78986,17.5z M14,2.82318V9.282
		c0,1.90468-1.84988,3.73614-3.75531,3.73614c-2.11166,0-3.70924-1.60355-3.70924-3.73614V2.82318
		c0-0.41994-0.33999-0.76068-0.76068-0.76068l0,0C5.35483,2.0625,5,2.40324,5,2.82318V9.282
		c0,2.84395,2.40074,5.23059,5.24469,5.23059h-0.05903c2.84395,0,5.31434-2.38664,5.31434-5.23059V2.80973
		c0-0.41994-0.35201-0.74723-0.77195-0.74723S14,2.40324,14,2.82318z"/>
</g>
<g id="TEXT">
	<path d="M11.1,17c0.5,0,0.7-0.2,0.8-0.6l1.1-2.8l4.2,0l1.1,2.8c0.2,0.5,0.6,0.6,1.1,0.5c0.4-0.1,0.6-0.7,0.4-1L16,6.1h0
		c-0.2-0.3-0.5-0.6-0.9-0.6s-0.7,0.3-0.9,0.6h0l-3.1,8L7,3.7h0C6.8,3.3,6.5,3,6,3C5.4,3,5.1,3.4,4.9,3.8h0l-4.7,12
		c0,0-0.3,0.8,0.4,1.1c0.4,0.2,0.9,0,1.1-0.5L3,12.9l5.9,0l1.4,3.5C10.3,16.4,10.5,17,11.1,17z M3.5,11.6L6,5.2c0,0,2.5,6.4,2.5,6.4
		L3.5,11.6z M13.5,12.4L15.2,8c0,0,1.7,4.4,1.7,4.4L13.5,12.4z"/>
</g>
<g id="STATIONERY">
	<path d="M17.00659,3H16V0.77917C16,0.21844,15.5697-0.14154,15.03888,0L2,3v14c0,0.54846,0.45135,1,1,1h14.00659
		C17.55505,18,18,17.54865,18,17V4C18,3.45154,17.55524,3,17.00659,3z M14.5,1.5V3H8L14.5,1.5z M16.5,16.5h-13v-12h13V16.5z"/>
	<path d="M10.00006,14.5l3.39661-3.42615c0.80444-0.81409,0.80444-2.13989,0-2.95404
		C13.00177,7.72015,12.47516,7.5,11.91473,7.5c-0.59418,0-1.11206,0.15436-1.91467,1.05768C9.18726,7.64349,8.66943,7.5,8.08575,7.5
		c-0.56116,0-1.08698,0.22015-1.48193,0.61981c-0.80518,0.81415-0.80518,2.13995,0.00037,2.95471L10.00006,14.5z"/>
</g>
<g id="TEXT_TEST">
    <path d="M11.7256796,16.4 L12.7285989,13.6 L16.5579271,13.6 L17.5608464,16.4 C17.7431954,16.9 18.1078933,17 18.5637657,16.9 C18.9284636,16.8 19.1108126,16.2 18.9284636,15.9 L15.4638333,6.1 C15.2814844,5.8 15.0079609,5.5 14.643263,5.5 C14.2785651,5.5 14.0050416,5.8 13.8226927,6.1 L10.9962838,14.1 L7.25813005,3.7 C7.07578109,3.3 6.80225765,3 6.34638524,3 C5.79933836,3 5.52581492,3.4 5.34346595,3.8 L1.05826535,15.8 C1.05826535,15.8 0.784741906,16.6 1.42296327,16.9 C1.7876612,17.1 2.2435336,16.9 2.42588256,16.4 L3.61115082,12.9 L8.99044519,12.9 L10.2668879,16.4 C10.2668879,16.4 10.4492369,17 10.9962838,17 C11.4521562,17 11.6345051,16.8 11.7256796,16.4 Z M6.40002441,5.09997559 C6.5,5.2 7.00971335,6.58642034 7.55041807,8.07960445 C8.2071903,9.893315 8.90968716,11.8645446 8.79998779,11.5999756 L4,11.6 L6.40002441,5.09997559 Z M13,12.4 L14.7000122,8 L16.3499756,12.4 L13,12.4 Z" id="Shape" stroke="none" fill="#26282A" fill-rule="evenodd"></path>
</g>
<g id="BOLD">
	<path d="M15.2,8.9c0.3-0.6,0.4-1.2,0.4-1.8c0-2.2-1.8-4-4-4H5.1C4.5,3,4,3.5,4,4.1v11.8C4,16.5,4.5,17,5.1,17h7.1
		c2.6,0,4.6-2.1,4.6-4.6C16.8,11,16.2,9.7,15.2,8.9z M14,12.7c0,0.9-0.7,1.6-1.6,1.6H6.8v-3.1h5.7C13.3,11.1,14,11.8,14,12.7z
		 M6.8,8.3V5.8h4.8c0.7,0,1.3,0.6,1.3,1.3s-0.6,1.3-1.3,1.3H6.8V8.3z"/>
</g>
<g id="TEXT_COLOR">
    <circle fill="#30D3B6" cx="5.5" cy="14" r="4"/>
    <circle fill="#FFD333" cx="9.5" cy="6" r="4"/>
    <circle fill="#FF333A" cx="14.5" cy="14" r="4"/>
    <path d="M15.9,4L15.9,4"/>
</g>
<g id="COMPOSEASSIST">
	<path d="M10.351,3c-2.367,0-4.902,1.454-5.4,3.861C2.709,7.284,1,9.379,1,11.892C1,14.709,3.147,17,5.785,17h9.483
		C17.326,17,19,15.218,19,13.027c0-1.857-1.203-3.421-2.823-3.854C15.973,5.73,13.438,3,10.351,3L10.351,3z"/>
</g>
<g id="LIST_UNORDERED">
	<path d="M3,15c-0.6,0-1,0.4-1,1s0.4,1,1,1s1-0.4,1-1S3.6,15,3,15z M3,9c-0.6,0-1,0.4-1,1s0.4,1,1,1s1-0.4,1-1
		S3.6,9,3,9z M3,3C2.4,3,2,3.4,2,4s0.4,1,1,1s1-0.4,1-1S3.6,3,3,3z M17,5H7C6.4,5,6,4.6,6,4l0,0c0-0.6,0.4-1,1-1h10c0.6,0,1,0.4,1,1
		l0,0C18,4.6,17.6,5,17,5z M17,11H7c-0.6,0-1-0.4-1-1l0,0c0-0.6,0.4-1,1-1h10c0.6,0,1,0.4,1,1l0,0C18,10.6,17.6,11,17,11z M17,17H7
		c-0.6,0-1-0.4-1-1l0,0c0-0.6,0.4-1,1-1h10c0.6,0,1,0.4,1,1l0,0C18,16.6,17.6,17,17,17z"/>
</g>
<g id="LIST_ORDERED">
	<path d="M7,5h10c0.55231,0,1-0.44775,1-1c0-0.55231-0.44769-1-1-1H7C6.44769,3,6,3.44769,6,4C6,4.55225,6.44769,5,7,5z
		"/>
	<path d="M17,9H7c-0.55231,0-1,0.44769-1,1c0,0.55225,0.44769,1,1,1h10c0.55231,0,1-0.44775,1-1
		C18,9.44769,17.55231,9,17,9z"/>
	<path d="M17,15H7c-0.55231,0-1,0.44769-1,1c0,0.55225,0.44769,1,1,1h10c0.55231,0,1-0.44775,1-1
		C18,15.44769,17.55231,15,17,15z"/>
	<path d="M4.29724,15.86487v-0.01105c0.18713-0.05103,0.32727-0.14813,0.42139-0.2923
		c0.09412-0.14209,0.14117-0.30731,0.14117-0.49445c0-0.17322-0.04108-0.32538-0.12115-0.45746
		c-0.08105-0.13116-0.18518-0.24329-0.31232-0.33539c-0.12909-0.09204-0.27325-0.16016-0.43542-0.20618
		C3.82977,14.02301,3.66956,14,3.50842,14c-0.20721,0-0.39539,0.03204-0.56458,0.09607
		c-0.16919,0.06409-0.31329,0.15515-0.43341,0.27228c-0.12115,0.11713-0.21521,0.25726-0.28229,0.42145
		c-0.06805,0.16217-0.1051,0.34332-0.1131,0.5415h0.77673c-0.00299-0.19818,0.0481-0.36237,0.1532-0.49249
		s0.26227-0.19617,0.46844-0.19617c0.14813,0,0.28229,0.04401,0.3974,0.13312c0.11511,0.08807,0.17114,0.21423,0.17114,0.37939
		c0,0.10907-0.02802,0.1972-0.08307,0.26428c-0.05603,0.06604-0.1261,0.11609-0.21118,0.15112
		c-0.08612,0.03406-0.18018,0.05603-0.2793,0.06409c-0.10107,0.00598-0.19318,0.00598-0.28229,0v0.54852
		c0.09912,0,0.20422,0.00299,0.31232,0.00903c0.11108,0.00598,0.21021,0.026,0.30231,0.06104
		c0.0921,0.03406,0.16815,0.09009,0.22723,0.16718c0.06006,0.07709,0.08905,0.18921,0.08905,0.33533
		c0,0.18719-0.06305,0.33533-0.18915,0.44342c-0.12714,0.10815-0.28131,0.16217-0.46649,0.16217
		c-0.1181,0-0.22119-0.02002-0.30731-0.06006c-0.08606-0.04004-0.15814-0.09509-0.21521-0.16217
		c-0.05804-0.06903-0.10107-0.14911-0.13312-0.24323c-0.03003-0.09308-0.04706-0.19116-0.05103-0.29431H2.01794
		c-0.00299,0.22424,0.03003,0.42242,0.10107,0.5946c0.07111,0.17218,0.1712,0.31836,0.30133,0.43744
		c0.13214,0.11914,0.28925,0.21124,0.47449,0.27228C3.08099,17.96893,3.28723,18,3.51343,18
		c0.19617,0,0.38538-0.02802,0.56354-0.08209c0.18018-0.05609,0.33936-0.13617,0.47748-0.24225
		c0.13818-0.10809,0.24829-0.23926,0.33038-0.3974c0.08203-0.15717,0.12512-0.33734,0.12512-0.53851
		c0-0.22021-0.06409-0.40942-0.19122-0.56659C4.69263,16.01501,4.51941,15.9129,4.29724,15.86487z"/>
	<path d="M3.43958,10.96405c0.13367-0.10144,0.2713-0.19592,0.41296-0.28333s0.28131-0.17682,0.42102-0.2663
		C4.41321,10.325,4.53882,10.22454,4.64734,10.114c0.11047-0.10852,0.19995-0.23511,0.26624-0.37677
		c0.06732-0.1427,0.10046-0.3125,0.10046-0.51141c0-0.1889-0.03815-0.36176-0.1145-0.51544
		c-0.0774-0.15276-0.18091-0.28136-0.31049-0.38586C4.45941,8.21906,4.30872,8.13867,4.13788,8.08441
		C3.9671,8.02814,3.78723,8,3.59937,8C3.35114,8,3.13312,8.03918,2.94122,8.12054c-0.19189,0.08039-0.34869,0.1919-0.47528,0.33661
		c-0.12561,0.1427-0.21906,0.31146-0.28235,0.50342C2.1203,9.15344,2.0932,9.36145,2.1012,9.58655h0.80182
		c0-0.10651,0.01007-0.21106,0.03314-0.31854C2.9563,9.16254,2.99243,9.06506,3.04468,8.9776
		c0.05127-0.08838,0.11859-0.15875,0.203-0.21301c0.08539-0.0542,0.18787-0.08234,0.31049-0.08234
		c0.17981,0,0.32855,0.05426,0.44507,0.16077c0.11658,0.10651,0.17285,0.25415,0.17285,0.44507
		c0,0.11957-0.02814,0.22607-0.08643,0.31952c-0.05524,0.09448-0.12659,0.17786-0.211,0.2522s-0.17786,0.14166-0.2793,0.20398
		c-0.10352,0.06232-0.198,0.12256-0.28943,0.18286c-0.17682,0.11554-0.34363,0.22913-0.50439,0.34265
		c-0.15875,0.11053-0.2984,0.23309-0.41492,0.36572c-0.11859,0.13263-0.21204,0.28235-0.28033,0.45013
		C2.03992,11.57397,2.00775,11.77191,2.00775,12h3.02942v-0.68329H3.0849C3.18842,11.18213,3.30695,11.06451,3.43958,10.96405z"/>
	<path d="M3.1178,6h0.90326V2H3.30127C3.2782,2.15234,3.22504,2.27966,3.14386,2.38196
		c-0.0802,0.10321-0.17847,0.18542-0.29675,0.24963C2.73083,2.69373,2.60052,2.73682,2.45416,2.76288
		C2.30774,2.78693,2.15637,2.79797,2,2.79395v0.61053h1.1178V6z"/>
</g>
<g id="OUTDENT">
	<path d="M5,5h12c0.6,0,1-0.4,1-1s-0.4-1-1-1H5C4.4,3,4,3.4,4,4S4.4,5,5,5z"/>
	<path d="M17,7h-6c-0.6,0-1,0.4-1,1s0.4,1,1,1h6c0.6,0,1-0.4,1-1S17.6,7,17,7z"/>
	<path d="M17,11h-6c-0.6,0-1,0.4-1,1s0.4,1,1,1h6c0.6,0,1-0.4,1-1S17.6,11,17,11z"/>
	<path d="M17,15h-6c-0.6,0-1,0.4-1,1s0.4,1,1,1h6c0.6,0,1-0.4,1-1S17.6,15,17,15z"/>
	<path d="M8.2,10H5.5l0.8-0.8c0.4-0.4,0.4-1,0-1.4s-1-0.4-1.4,0L1.6,11l0,0l3.2,3.2c0.4,0.4,1,0.4,1.4,0s0.4-1,0-1.4
		L5.5,12h2.8c0.6,0,1-0.4,1-1C9.2,10.4,8.8,10,8.2,10z"/>
</g>
<g id="INDENT">
	<path d="M5,5h12c0.6,0,1-0.4,1-1s-0.4-1-1-1H5C4.4,3,4,3.4,4,4S4.4,5,5,5z"/>
	<path d="M17,7h-6c-0.6,0-1,0.4-1,1s0.4,1,1,1h6c0.6,0,1-0.4,1-1S17.6,7,17,7z"/>
	<path d="M17,11h-6c-0.6,0-1,0.4-1,1s0.4,1,1,1h6c0.6,0,1-0.4,1-1S17.6,11,17,11z"/>
	<path d="M17,15h-6c-0.6,0-1,0.4-1,1s0.4,1,1,1h6c0.6,0,1-0.4,1-1S17.6,15,17,15z"/>
	<path d="M4.6,7.8c-0.4,0.4-0.4,1,0,1.4L5.4,10H2.6c-0.6,0-1,0.4-1,1s0.4,1,1,1h2.8l-0.8,0.8c-0.4,0.4-0.4,1,0,1.4
		s1,0.4,1.4,0L9.2,11l0,0L6,7.8C5.6,7.4,5,7.4,4.6,7.8z"/>
</g>
<g id="ALIGN_LEFT">
	<path d="M4,5h12c0.6,0,1-0.4,1-1s-0.4-1-1-1H4C3.4,3,3,3.4,3,4S3.4,5,4,5z"/>
	<path d="M4,9h8c0.6,0,1-0.4,1-1s-0.4-1-1-1H4C3.4,7,3,7.4,3,8S3.4,9,4,9z"/>
	<path d="M16,11H4c-0.6,0-1,0.4-1,1s0.4,1,1,1h12c0.6,0,1-0.4,1-1S16.6,11,16,11z"/>
	<path d="M12,15H4c-0.6,0-1,0.4-1,1s0.4,1,1,1h8c0.6,0,1-0.4,1-1S12.6,15,12,15z"/>
</g>
<g id="ALIGN_CENTER">
	<path d="M4,5h12c0.6,0,1-0.4,1-1s-0.4-1-1-1H4C3.4,3,3,3.4,3,4S3.4,5,4,5z"/>
	<path d="M6,7C5.4,7,5,7.4,5,8s0.4,1,1,1h8c0.6,0,1-0.4,1-1s-0.4-1-1-1H6z"/>
	<path d="M16,11H4c-0.6,0-1,0.4-1,1s0.4,1,1,1h12c0.6,0,1-0.4,1-1S16.6,11,16,11z"/>
	<path d="M14,15H6c-0.6,0-1,0.4-1,1s0.4,1,1,1h8c0.6,0,1-0.4,1-1S14.6,15,14,15z"/>
</g>
<g id="ALIGN_RIGHT">
	<path d="M4,5h12c0.6,0,1-0.4,1-1s-0.4-1-1-1H4C3.4,3,3,3.4,3,4S3.4,5,4,5z"/>
	<path d="M16,7H8C7.4,7,7,7.4,7,8s0.4,1,1,1h8c0.6,0,1-0.4,1-1S16.6,7,16,7z"/>
	<path d="M16,11H4c-0.6,0-1,0.4-1,1s0.4,1,1,1h12c0.6,0,1-0.4,1-1S16.6,11,16,11z"/>
	<path d="M16,15H8c-0.6,0-1,0.4-1,1s0.4,1,1,1h8c0.6,0,1-0.4,1-1S16.6,15,16,15z"/>
</g>
<g id="LINK">
	<path d="M5.5,10.01c0,0.738,0.584,1.496,1.461,1.496l6.067,0c0.876,0,1.461-0.73,1.461-1.496c0-0.613-0.612-1.51-1.488-1.51H7
			C5.978,8.499,5.5,9.395,5.5,10.01z"/>
	<path d="M2.918,9.986C2.918,8.794,3.7,7.503,5,7.503h4.504C9.371,6.154,8.789,5.509,7.489,5.509H4.51
		c-1.9,0-3.992,1.951-3.992,4.467s2.094,4.515,3.994,4.515H7.46c1.7,0,2.04-0.499,2.04-1.988H5C3.8,12.503,2.918,11.311,2.918,9.986
		z"/>
	<path d="M15.048,12.503h-4.5c0,1.489,0.34,1.988,2.04,1.988h2.948c1.9,0,3.994-1.998,3.994-4.515
		s-2.092-4.467-3.992-4.467h-2.979c-1.3,0-1.882,0.645-2.015,1.994h4.504c1.3,0,2.082,1.292,2.082,2.484
		C17.13,11.311,16.248,12.503,15.048,12.503z"/>
</g>
<g id="EMOTICON">
	<path d="M10,2.001c-4.419,0-8,3.58-8,7.998c0,4.42,3.581,8,8,8c4.418,0,8-3.58,8-8C18,5.581,14.418,2.001,10,2.001z
		 M12,6.809c0.662,0,1.2,0.528,1.2,1.191S12.662,9.2,12,9.2S10.8,8.663,10.8,8S11.338,6.809,12,6.809z M8.001,6.809
		C8.663,6.809,9.2,7.337,9.2,8S8.663,9.2,8.001,9.2C7.338,9.2,6.8,8.663,6.8,8S7.338,6.809,8.001,6.809z M10,14.8
		c-2.412,0-4.367-1.492-4.367-3.332c0-0.332,0.318-0.6,0.711-0.6c0.392,0,0.711,0.268,0.711,0.6C7.342,12.834,8.374,13.47,10,13.473
		c1.626-0.003,2.558-0.639,2.944-2.005h0.001c0-0.332,0.319-0.6,0.711-0.6s0.71,0.268,0.71,0.6C14.366,13.308,12.412,14.8,10,14.8z"
		/>
</g>
<g id="CHEVRON_DOUBLE_LEFT">
	<path d="M15.6,2.2c0.3-0.3,0.8-0.3,1,0s0.3,0.7,0,1L10.3,10l6.4,6.8c0.3,0.3,0.3,0.7,0,1s-0.8,0.3-1,0L8.1,10L15.6,2.2
		z M10.5,2.2c0.3-0.3,0.8-0.3,1,0c0.3,0.3,0.3,0.7,0,1L5.2,10l6.4,6.8c0.3,0.3,0.3,0.7,0,1s-0.8,0.3-1,0L3,10L10.5,2.2z"/>
</g>
<g id="CHEVRON_DOUBLE_RIGHT">
	<path d="M9.3,2.2c-0.3-0.3-0.8-0.3-1,0S8,3,8.3,3.2l6.4,6.8l-6.4,6.8c-0.3,0.3-0.3,0.7,0,1s0.8,0.3,1,0l7.5-7.8
		L9.3,2.2z M4.3,2.2c-0.3-0.3-0.8-0.3-1,0s-0.3,0.7,0,1L9.6,10l-6.4,6.8c-0.3,0.3-0.3,0.7,0,1s0.8,0.3,1,0l7.5-7.8L4.3,2.2z"/>
</g>
<g id="CLOSE">
	<path d="M10,9l5.1-5.1c0.3-0.3,0.7-0.3,1,0c0.3,0.3,0.3,0.7,0,1L11,10l5.1,5.1c0.3,0.3,0.3,0.7,0,1
		c-0.3,0.3-0.7,0.3-1,0L10,11l-5.1,5.1c-0.3,0.3-0.7,0.3-1,0c-0.3-0.3-0.3-0.7,0-1L9,10L3.9,4.9c-0.3-0.3-0.3-0.7,0-1s0.7-0.3,1,0
		L10,9z"/>
</g>
<g id="CLOSE_MINI">
	<path d="M12.8,13.8L10,11l-2.8,2.8c-0.3,0.3-0.7,0.3-1,0s-0.3-0.7,0-1L9,10L6.2,7.2c-0.3-0.3-0.3-0.7,0-1s0.7-0.3,1,0
		L10,9l2.8-2.8c0.3-0.3,0.7-0.3,1,0s0.3,0.7,0,1L11,10l2.8,2.8c0.3,0.3,0.3,0.7,0,1S13.1,14.1,12.8,13.8z"/>
</g>
<g id="CLOSE_MICRO">
	<path d="M10.90833,9.99969l2.22125-2.22125c0.26556-0.26556,0.26556-0.69495,0-0.96051
		c-0.26495-0.26624-0.69501-0.26556-0.96057,0L9.94775,9.03918L7.7265,6.81793c-0.26556-0.26556-0.69623-0.26556-0.96051,0
		C6.6322,6.95038,6.56628,7.12463,6.56628,7.29822c0,0.17352,0.06659,0.34711,0.19971,0.48022l2.22125,2.22125l-2.22125,2.22125
		c-0.13312,0.13312-0.19971,0.3067-0.19971,0.48029c0.00067,0.17419,0.06659,0.34717,0.19971,0.48029
		c0.26495,0.26489,0.69495,0.26556,0.96051,0l2.22125-2.22125l2.22125,2.22125c0.26556,0.26556,0.69562,0.26489,0.96057,0
		c0.26556-0.26562,0.26556-0.69501,0-0.96057L10.90833,9.99969z"/>
</g>
<g id="SEARCH">
	<path d="M17.5,16.5l-4.8-4.8c0.8-1,1.3-2.3,1.3-3.7c0-3.3-2.7-6-6-6S2,4.7,2,8s2.7,6,6,6c1.4,0,2.7-0.5,3.7-1.3
		l4.8,4.8c0.1,0.1,0.3,0.2,0.5,0.2s0.4-0.1,0.5-0.2C17.8,17.2,17.8,16.8,17.5,16.5z M8,12.5c-2.5,0-4.5-2-4.5-4.5s2-4.5,4.5-4.5
		s4.5,2,4.5,4.5S10.5,12.5,8,12.5z"/>
</g>
<g id="SEARCH_MINI">
	<path d="M15.25963,14.10829l-2.46673-2.46673c0.51279-0.737,0.81766-1.62924,0.81766-2.59513
		c0-2.51581-2.03941-4.55528-4.55528-4.55528C6.53947,4.49115,4.5,6.53063,4.5,9.04643s2.03947,4.55528,4.55528,4.55528
		c0.95687,0,1.84264-0.29766,2.5757-0.8017l2.46847,2.46847c0.16025,0.16025,0.37017,0.24037,0.58009,0.24037
		s0.41985-0.08012,0.58009-0.24037C15.58012,14.94798,15.58012,14.42878,15.25963,14.10829z M9.05528,12.10766
		c-1.69107,0-3.06116-1.37009-3.06116-3.06123c0-1.68981,1.37009-3.06116,3.06116-3.06116
		c1.68988,0,3.06123,1.37135,3.06123,3.06116C12.11651,10.73631,10.74516,12.10766,9.05528,12.10766z"/>
</g>
<g id="CHECKMARK">
	<path d="M7.2,14.1l-3.5-3.5c-0.3-0.3-0.3-0.7,0-1s0.8-0.3,1,0l3,2.9l7.4-7.3c0.3-0.3,0.8-0.3,1,0c0.3,0.3,0.3,0.7,0,1
		L8.2,14C8,14.3,7.5,14.3,7.2,14.1z"/>
</g>
<g id="ORB">
		<path d="M0.759,14.462c0.506,1.253,1.211,2.291,2.116,3.11c0.903,0.818,1.966,1.424,3.182,1.819
		c1.219,0.393,2.538,0.59,3.961,0.59c1.399,0,2.707-0.198,3.923-0.59c0.489-0.158,1.851-0.618,3.184-1.819
		c0.906-0.817,1.61-1.856,2.116-3.11C19.747,13.207,20,11.72,20,10c0-1.721-0.253-3.208-0.759-4.462
		c-0.506-1.255-1.211-2.291-2.116-3.108c-0.904-0.821-1.964-1.426-3.184-1.82c-1.216-0.394-2.525-0.591-3.923-0.591
		c-1.423,0-2.741,0.197-3.961,0.591C5.662,0.737,4.229,1.229,2.875,2.43c-0.912,0.809-1.61,1.854-2.116,3.108
		C0.253,6.793,0,8.279,0,10C0,11.72,0.253,13.207,0.759,14.462z"/>
</g>
<g id="CAL_ACCEPT">
	<path d="M14.1,7.3L14.1,7.3c0.3,0.3,0.3,0.8,0,1.1l-5,5c-0.3,0.3-0.8,0.3-1.1,0l-2.2-2.1c-0.3-0.3-0.3-0.8,0-1.1
		s0.8-0.3,1.1,0l1.6,1.6L13,7.3C13.4,7,13.8,7,14.1,7.3z M10,2c-4.4,0-8,3.6-8,8s3.6,8,8,8s8-3.6,8-8S14.4,2,10,2L10,2z"/>
</g>
<g id="CAL_MAYBE">
	<path d="M10,2c-4.4,0-8,3.6-8,8s3.6,8,8,8s8-3.6,8-8S14.4,2,10,2z M10,15c-0.6,0-1-0.4-1-1s0.4-1,1-1s1,0.4,1,1
		S10.6,15,10,15z M10.8,10.9v0.4c0,0.4-0.3,0.7-0.7,0.7s-0.7-0.3-0.7-0.7v-1c0-0.4,0.3-0.7,0.7-0.7c0.8,0,1.5-0.7,1.5-1.5
		s-0.7-1.5-1.5-1.5S8.4,7.3,8.5,8.2C8.5,8.7,8.2,9,7.8,9C7.3,9,7,8.7,7,8.2C6.9,6.5,8.4,5,10,5s3,1.3,3,3C13,9.4,12,10.6,10.8,10.9z
		"/>
</g>
<g id="CAL_DECLINE">
	<path d="M11.1,10l2.3,2.4c0.3,0.3,0.3,0.8,0,1.1s-0.8,0.3-1.1,0L10,11.1l-2.4,2.4c-0.3,0.3-0.8,0.3-1.1,0
		c-0.3-0.3-0.3-0.8,0-1.1L8.9,10L6.6,7.6c-0.3-0.3-0.3-0.8,0-1.1l0,0c0.3-0.3,0.8-0.3,1.1,0L10,8.9l2.3-2.3c0.3-0.3,0.8-0.3,1.1,0
		l0,0c0.3,0.3,0.3,0.8,0,1.1L11.1,10z M10,2c-4.4,0-8,3.6-8,8s3.6,8,8,8s8-3.6,8-8S14.4,2,10,2L10,2z"/>
</g>
<g id="INFO">
	<path d="M10,7.1c-0.4,0-0.8-0.3-0.8-0.8C9.3,6,9.6,5.6,10,5.6s0.8,0.3,0.8,0.8C10.8,6.8,10.4,7.1,10,7.1L10,7.1z
		 M10.7,12.9c0,0.4-0.3,0.7-0.7,0.7s-0.7-0.3-0.7-0.7V9.3c0-0.4,0.3-0.7,0.7-0.7s0.7,0.3,0.7,0.7V12.9z M10,2c-4.4,0-8,3.6-8,8
		s3.6,8,8,8s8-3.6,8-8S14.4,2,10,2L10,2z"/>
</g>
<g id="ATTENTION">
	<path d="M10.727,10.727c0,0.401-0.326,0.727-0.727,0.727c-0.402,0-0.727-0.326-0.727-0.727V6.364
		c0-0.401,0.325-0.727,0.727-0.727c0.401,0,0.727,0.326,0.727,0.727V10.727z M10,14.364c-0.402,0-0.727-0.326-0.727-0.727
		S9.598,12.91,10,12.91c0.401,0,0.727,0.326,0.727,0.727S10.401,14.364,10,14.364L10,14.364z M10,2c-4.411,0-8,3.589-8,8
		s3.589,8,8,8c4.41,0,8-3.589,8-8S14.41,2,10,2L10,2z"/>
</g>
<g id="EXCLAMATION_ALT">
	<path d="M2.09747,15.85008L2.09747,15.85008C1.81232,16.36685,2.18709,17,2.77718,17H17.2233
		c0.59009,0,0.9637-0.63315,0.67971-1.14992l-7.22306-13.1903c-0.29446-0.53655-1.06495-0.53655-1.35942,0
		C9.32053,2.65979,2.09747,15.85008,2.09747,15.85008z M10.77655,11.56815c0,0.42831-0.348,0.77631-0.77631,0.77631
		s-0.77631-0.348-0.77631-0.77631V8.46408c0-0.42831,0.34684-0.77631,0.77631-0.77631s0.77631,0.348,0.77631,0.77631V11.56815z
		 M10.00024,15.44738c-0.42947,0-0.77631-0.348-0.77631-0.77631s0.34684-0.77631,0.77631-0.77631
		c0.42831,0,0.77631,0.348,0.77631,0.77631S10.42855,15.44738,10.00024,15.44738L10.00024,15.44738z"/>
</g>
<g id="CARD_UP">
	<path d="M17.8,6.8L10,14.2L2.2,6.8c-0.3-0.3-0.3-0.8,0-1c0.3-0.3,0.7-0.3,1,0l6.7,6.4l6.7-6.4c0.3-0.3,0.7-0.3,1,0
		C18.1,6,18.1,6.5,17.8,6.8z"/>
</g>
<g id="CARD_DOWN">
	<path d="M17.8,13L10,5.5L2.2,13c-0.3,0.3-0.3,0.7,0,1s0.7,0.3,1,0L10,7.7l6.7,6.3c0.3,0.3,0.7,0.3,1,0
		C18.1,13.7,18.1,13.3,17.8,13z"/>
</g>
<g id="FLICKR">
    <circle cx="5.2" cy="10" r="4" fill="#1d75cf"/>
    <circle cx="14.8" cy="10" r="3.5" fill="#fe0084" stroke="#fe0084" stroke-width="1"/>
</g>
<g id="FACEBOOK">
    <path fill="#3c5a95" d="M8.4,18v-7.5H6.5V7.8h1.9V5.5C8.4,3.7,9.5,2,12.1,2c1,0,1.8,0.1,1.8,0.1l-0.1,2.5c0,0-0.8,0-1.6,0
        c-0.9,0-1.1,0.4-1.1,1.2v2h2.8l-0.1,2.7h-2.7V18H8.4z"/>
</g>
<g id="TWITTER">
    <path fill="#5faadb" d="M18,4.5c-0.6,0.3-1.2,0.4-1.9,0.5c0.7-0.4,1.2-1,1.4-1.8c-0.6,0.4-1.3,0.6-2.1,0.8c-0.6-0.6-1.5-1-2.4-1
        c-1.8,0-3.3,1.5-3.3,3.3c0,0.3,0,0.5,0.1,0.7C7.1,6.9,4.7,5.6,3.1,3.6c-0.3,0.5-0.4,1-0.4,1.6c0,1.1,0.6,2.1,1.5,2.7
        c-0.5,0-1-0.2-1.5-0.4l0,0c0,1.6,1.1,2.9,2.6,3.2c-0.3,0.1-0.6,0.1-0.9,0.1c-0.2,0-0.4,0-0.6-0.1C4.2,12,5.4,12.9,6.9,13
        c-1.1,0.9-2.5,1.4-4.1,1.4c-0.3,0-0.5,0-0.8,0c1.5,1,3.2,1.6,5,1.6c6,0,9.3-5,9.3-9.3c0-0.1,0-0.3,0-0.4C17,5.8,17.6,5.2,18,4.5z"
        />
</g>
<g id="LINKEDIN">
    <path fill="#1478b1" d="M15.24218,15.09746h-2.104v-3.40582c0-0.90182-0.16291-1.44073-0.91418-1.44073
        c-0.54036,0-0.94618,0.29455-1.21527,0.57673v4.26982h-2.104V8.83564h2.104V9.672c0.36654-0.39564,0.99709-0.88655,1.87927-0.88655
        c1.47709,0,2.35418,0.952,2.35418,2.90618V15.09746z M6.33818,7.93455c-0.67055,0-1.21455-0.544-1.21455-1.21382
        c0-0.67127,0.544-1.21527,1.21455-1.21527c0.672,0,1.21527,0.544,1.21527,1.21527C7.55345,7.39055,7.01018,7.93455,6.33818,7.93455
        L6.33818,7.93455z M7.40364,15.09746h-2.104V8.83564h2.104V15.09746z M17.92218,2.52873
        c-0.05309-0.11782-0.11709-0.21527-0.19564-0.29382c-0.07782-0.07782-0.16945-0.13673-0.27273-0.176
        C17.34909,2.01964,17.232,2,17.10255,2H2.89745c-0.13091,0-0.248,0.01964-0.35127,0.05891
        c-0.10327,0.03927-0.19491,0.09818-0.27273,0.176c-0.07855,0.07855-0.144,0.176-0.19564,0.29382
        C2.02545,2.64582,2,2.75709,2,2.86109v14.27855c0,0.10473,0.02545,0.21527,0.07782,0.33236
        c0.05164,0.11782,0.11709,0.21527,0.19564,0.29382c0.07782,0.07782,0.16873,0.13673,0.27273,0.176
        C2.65018,17.98109,2.76655,18,2.89745,18h14.20509c0.12945,0,0.24655-0.01891,0.35127-0.05818
        c0.10327-0.03927,0.19491-0.09818,0.27273-0.176c0.07855-0.07854,0.14255-0.176,0.19564-0.29382
        C17.97382,17.35491,18,17.24436,18,17.13964V2.86109C18,2.75709,17.97382,2.64582,17.92218,2.52873L17.92218,2.52873z"/>
</g>
<g id="TAB_MESSAGES">
	<path d="M17.273,4H2.727C2.325,4,2,4.335,2,4.75v1.393l8,3.782l8-3.782V4.75C18,4.335,17.675,4,17.273,4L17.273,4z
		 M10,11.5L2,7.794v7.456C2,15.665,2.325,16,2.728,16h14.545C17.674,16,18,15.665,18,15.25V7.793L10,11.5z"/>
</g>
<g id="TAB_IMAGES">
	<path d="M3.459,14.636l3.634-5.814l1.379,2.206l-1.258,1.824c-0.227,0.329-0.11,0.759,0.259,0.959
		c0.334,0.182,0.75,0.105,0.996-0.15l3.711-5.567l4.361,6.541H3.459V14.636z M17.273,3H2.728C2.326,3,2,3.326,2,3.727v12.356
		c0,0.401,0.326,0.726,0.728,0.726h14.546c0.401,0,0.727-0.325,0.727-0.726V3.727C18,3.326,17.674,3,17.273,3L17.273,3z"/>
</g>h
<g id="TAB_FILES">
	<path d="M16.773,6.878l-4.989-4.665C11.638,2.076,11.44,2,11.234,2H3.778C3.35,2,3,2.327,3,2.727v14.545
		C3,17.673,3.35,18,3.778,18h12.444C16.65,18,17,17.673,17,17.273V7.392C17,7.199,16.918,7.014,16.773,6.878z M7,9h1.5
		C8.775,9,9,9.225,9,9.5S8.775,10,8.5,10H7c-0.275,0-0.5-0.225-0.5-0.5S6.725,9,7,9z M10.5,15H7c-0.275,0-0.5-0.225-0.5-0.5
		S6.725,14,7,14h3.5c0.275,0,0.5,0.225,0.5,0.5S10.775,15,10.5,15z M10.5,12.5H7c-0.275,0-0.5-0.225-0.5-0.5s0.225-0.5,0.5-0.5h3.5
		c0.275,0,0.5,0.225,0.5,0.5S10.775,12.5,10.5,12.5z M11,7.5V3.862L14.893,7.5H11z"/>
</g>
<g id="FUNNEL">
	<path d="M8.625,16.375c-0.159,0-0.316-0.051-0.447-0.148c-0.19-0.142-0.303-0.364-0.303-0.602v-4.971L3.184,5.241
		C2.991,5.02,2.946,4.706,3.068,4.438S3.456,4,3.75,4h13.5c0.294,0,0.561,0.171,0.683,0.438s0.076,0.581-0.116,0.803l-4.691,5.413
		V14.5c0,0.331-0.217,0.623-0.534,0.719l-3.75,1.125C8.77,16.364,8.697,16.375,8.625,16.375z"/>
</g>
<g id="CARD_MORE">
	<path d="M17.1,10.2L11.5,5c-0.3-0.3-0.8-0.3-1.1,0s-0.3,0.8,0,1L14,9.5H2.5V11H14l-3.5,3.4c-0.2,0.1-0.2,0.3-0.2,0.5
		s0.1,0.4,0.2,0.5c0.3,0.3,0.8,0.3,1.1,0L17.1,10.2z"/>
</g>
<g id="CONTACT_CARD">
	<path d="M17.3,3H2.7C2.3,3,2,3.3,2,3.7v12.6C2,16.7,2.3,17,2.7,17h14.6c0.4,0,0.7-0.3,0.7-0.7V3.7
		C18,3.3,17.7,3,17.3,3z M5.5,7.7C5.7,7,6.3,6.4,7.1,6.2c1.5-0.3,2.9,1,2.5,2.5C9.4,9.5,8.8,10.1,8,10.3C6.5,10.6,5.2,9.3,5.5,7.7z
		 M10.6,14.5h-6c-0.6,0-0.9-0.6-0.6-1.1c0.7-1,2.1-1.7,3.6-1.7s2.9,0.7,3.6,1.7C11.5,13.8,11.1,14.5,10.6,14.5z M15.8,13.2H14
		c-0.4,0-0.7-0.3-0.7-0.7s0.3-0.7,0.7-0.7h1.8c0.4,0,0.7,0.3,0.7,0.7S16.2,13.2,15.8,13.2z M15.8,10.3h-3.3c-0.4,0-0.7-0.3-0.7-0.7
		s0.3-0.7,0.7-0.7h3.3c0.4,0,0.7,0.3,0.7,0.7C16.5,9.9,16.2,10.3,15.8,10.3z M15.8,7.4h-3.3c-0.4,0-0.7-0.3-0.7-0.7
		c0-0.4,0.3-0.7,0.7-0.7h3.3c0.4,0,0.7,0.3,0.7,0.7C16.5,7,16.2,7.4,15.8,7.4z"/>
</g>
<g id="DRAFT_EDIT">
	<path d="M8.25,3.49493h-4c-0.41418,0-0.75,0.33582-0.75,0.75V4.25C3.5,4.66418,3.83582,5,4.25,5h4
		C8.66418,5,9,4.66418,9,4.25V4.24493C9,3.83075,8.66418,3.49493,8.25,3.49493z"/>
	<path d="M6.25,10.49799h-2c-0.41418,0-0.75,0.33582-0.75,0.75V11.25C3.5,11.66418,3.83582,12,4.25,12h2
		C6.66418,12,7,11.66418,7,11.25v-0.00201C7,10.8338,6.66418,10.49799,6.25,10.49799z"/>
	<path d="M8.25,7h-4C3.83582,7,3.5,7.33575,3.5,7.75c0,0.41418,0.33582,0.75,0.75,0.75h4C8.66418,8.5,9,8.16418,9,7.75
		C9,7.33575,8.66418,7,8.25,7z"/>
	<polygon points="11.5,14.5 14,17 16.5,14.5 16.5,7.5 11.5,7.5 	"/>
	<path d="M15.96509,3.49493h-3.93018c-0.29541,0-0.53491,0.2395-0.53491,0.53491v0.02191V6h5V4.05176V4.02985
		C16.5,3.73444,16.2605,3.49493,15.96509,3.49493z"/>
</g>
<g id="REFRESH">
	<path d="M16,10.3c0-1.4-0.5-2.7-1.3-3.7l-1.1,1.1c0.5,0.7,0.9,1.7,0.9,2.7c0,2.5-2,4.5-4.4,4.5l0,0H9l1-0.8
		c0.3-0.3,0.4-0.8,0.1-1.1c-0.3-0.4-0.9-0.4-1.2-0.1L6.5,15c-0.3,0.3-0.3,0.8,0,1.1l2.4,2.2c0.3,0.3,0.9,0.3,1.2-0.1
		c0.3-0.3,0.2-0.8-0.1-1.1l-1-0.8h1l0,0C13.3,16.3,16,13.6,16,10.3z"/>
	<path d="M5.5,10.3c0-2.5,2-4.5,4.5-4.5l0,0h1.1l-1,0.8C9.8,6.9,9.8,7.4,10,7.7c0.3,0.4,0.9,0.4,1.2,0.1l2.4-2.2
		c0.3-0.3,0.3-0.8,0-1.1l-2.4-2.2C10.9,2,10.3,2,10,2.4c-0.3,0.3-0.2,0.8,0.1,1.1l1,0.8H10l0,0c-3.3,0-6,2.7-6,6
		c0,1.4,0.5,2.6,1.2,3.7l1.1-1.1C5.8,12.1,5.5,11.2,5.5,10.3z"/>
</g>
<g id="DOWNLOAD">
	<path d="M16.8,13.5c-0.4,0-0.8,0.3-0.8,0.8v1.2H4v-1.3c0-0.4-0.3-0.7-0.7-0.7s-0.8,0.3-0.8,0.8v2
		c0,0.4,0.3,0.7,0.8,0.7H17c0.4,0,0.5-0.3,0.5-0.7v-2C17.5,13.8,17.2,13.5,16.8,13.5z"/>
	<path d="M9.5,13.1c0.3,0.2,0.7,0.2,0.9,0l3.9-3.6c0.3-0.3,0.3-0.7,0-1c-0.1-0.1-0.3-0.2-0.5-0.2l0,0l0,0l0,0l-2.3,0.5
		V3.1c0-0.3-0.3-0.6-0.6-0.6H9.1c-0.3,0-0.6,0.3-0.6,0.6v5.7L6.2,8.3l0,0l0,0l0,0c-0.2,0-0.3,0-0.5,0.2c-0.3,0.3-0.3,0.7,0,1
		L9.5,13.1z"/>
</g>
<g id="SENT">
	<path d="M17.6,9.3L3,2.8C2.5,2.6,1.9,3,2,3.5l1.4,5L9.2,10l-5.8,1.5L2,16.3c-0.2,0.6,0.4,1.1,1,0.9l14.5-6.5
		C18.1,10.4,18.1,9.6,17.6,9.3z"/>
</g>
<g id="SEARCH_WEB">
	<path d="M15.4,14.9c0.3-0.5,0.5-1,0.5-1.7c0-1.7-1.4-3-3-3l0,0c-1.7,0-3,1.4-3,3c0,1.7,1.4,3,3,3
		c0.6,0,1.2-0.2,1.7-0.5l1.6,1.6c0.2,0.2,0.7,0.2,0.9,0c0.2-0.2,0.2-0.7,0-0.9L15.4,14.9z M12.9,15c-1,0-1.8-0.8-1.8-1.8
		s0.8-1.8,1.8-1.8s1.8,0.8,1.8,1.8C14.6,14.2,13.8,15,12.9,15z"/>
	<path d="M18,10c0-4.6-3.9-8.3-8.5-8C5.6,2.3,2.4,5.4,2,9.3c-0.4,4.5,3,8.3,7.3,8.7c0.1,0,0.2,0,0.3,0
		c0.2,0,0.5-0.1,0.6-0.3l0,0c0.2-0.3,0.1-0.8-0.3-0.9l-0.6-0.3c-1-0.5-1.7-1.8-2.1-3.7h1.5c0.1-0.5,0.2-1,0.4-1.4H6.9
		c0-0.4-0.1-0.9-0.1-1.4s0-0.9,0.1-1.4h2.4v2.2c0.4-0.6,0.8-1.1,1.4-1.5V8.6h5.8c0.1,0.4,0.1,0.9,0.1,1.4v0.5c0,0.4,0.3,0.7,0.7,0.7
		l0,0c0.4,0,0.7-0.3,0.7-0.7L18,10L18,10z M3.4,10c0-0.5,0.1-0.9,0.1-1.4h2c0,0.5-0.1,0.9-0.1,1.4s0,0.9,0.1,1.4h-2
		C3.4,10.9,3.4,10.5,3.4,10z M6.9,15.8c-1.3-0.7-2.3-1.7-2.9-3.1h1.8C6,14,6.4,15,6.9,15.8z M5.8,7.2H4c0.6-1.3,1.6-2.4,2.9-3.1
		C6.4,5,6,6,5.8,7.2z M9.3,7.2H7.2C7.6,5.4,8.4,4,9.3,3.6V7.2z M10.7,7.2V3.6c1,0.5,1.7,1.8,2.1,3.7h-2.1
		C10.7,7.3,10.7,7.2,10.7,7.2z M14.2,7.2C14,6,13.6,5,13.1,4.2c1.3,0.7,2.3,1.7,2.9,3.1L14.2,7.2L14.2,7.2z"/>
</g>
<g id="NO_INTERNET">
	<ellipse cx="10" cy="14.852" rx="1.5" ry="1.469"/>
	<path d="M19.268,7.865c-0.309-0.313-0.635-0.609-0.967-0.884C15.971,5.06,13.021,4,9.995,4S4.018,5.06,1.687,6.983
		C1.364,7.251,1.05,7.535,0.754,7.831c-0.339,0.34-0.339,0.891,0.001,1.232c0.339,0.339,0.891,0.339,1.231-0.001
		c0.258-0.259,0.528-0.504,0.809-0.737c2.02-1.666,4.577-2.585,7.2-2.585c2.622,0,5.178,0.918,7.198,2.585
		c0.289,0.238,0.571,0.495,0.839,0.765c0.17,0.172,0.394,0.258,0.618,0.258c0.221,0,0.443-0.084,0.613-0.252
		C19.604,8.758,19.607,8.208,19.268,7.865z"/>
	<path d="M11,11.41V7.832c0-0.507-0.44856-0.917-1.00054-0.917C9.44747,6.915,9,7.325,9,7.832v3.577
		c0,0.506,0.44856,0.917,0.99946,0.917C10.55144,12.326,11,11.916,11,11.41z"/>
	<path d="M7.057,8.843c-0.844,0.288-1.646,0.699-2.384,1.23c-0.394,0.284-0.769,0.602-1.113,0.945
		c-0.34,0.339-0.341,0.891-0.002,1.231c0.17,0.171,0.393,0.256,0.616,0.256c0.222,0,0.444-0.085,0.615-0.254
		c0.279-0.279,0.582-0.535,0.9-0.764c0.446-0.322,0.927-0.573,1.425-0.782c0.104-0.044,0.171-0.143,0.171-0.255V9.009
		C7.286,8.891,7.168,8.805,7.057,8.843z"/>
	<path d="M15.348,10.072c-0.715-0.515-1.49-0.917-2.305-1.202c-0.146-0.051-0.301,0.063-0.301,0.218v1.365
		c0,0.112,0.067,0.211,0.171,0.254c0.495,0.208,0.974,0.459,1.419,0.778c0.316,0.228,0.62,0.486,0.902,0.766
		c0.34,0.339,0.892,0.338,1.231-0.004s0.337-0.892-0.004-1.232C16.112,10.671,15.738,10.353,15.348,10.072z"/>
</g>
<g id="EXPAND">
	<path d="M2,13.1v4.3C2,17.7,2.3,18,2.6,18H7c0.3,0,0.6-0.3,0.6-0.6c0-0.2,0-0.3-0.2-0.4l-1.6-1.1l3-3
		c0.2-0.2,0.2-0.5,0-0.7l-1.1-1.1c-0.2-0.2-0.5-0.2-0.7,0l-3,3l-1-1.6c-0.1-0.2-0.3-0.2-0.4-0.2c-0.3,0-0.5,0.2-0.6,0.5
		C2,12.9,2,13.1,2,13.1z"/>
	<path d="M18,6.9V2.6C18,2.3,17.7,2,17.4,2H13c-0.3,0-0.6,0.3-0.6,0.6c0,0.2,0,0.3,0.2,0.4l1.6,1.1l-3,3
		c-0.2,0.2-0.2,0.5,0,0.7l1.1,1.1c0.2,0.2,0.5,0.2,0.7,0l3-3l1,1.6c0.1,0.2,0.3,0.2,0.4,0.2c0.3,0,0.5-0.2,0.6-0.5
		C18,7.1,18,6.9,18,6.9z"/>
</g>
<g id="CONTRACT">
	<path d="M11,4.1v4.3C11,8.7,11.3,9,11.6,9H16c0.3,0,0.6-0.3,0.6-0.6c0-0.2,0-0.3-0.2-0.4l-1.6-1.1l3-3
		c0.2-0.2,0.2-0.5,0-0.7l-1.1-1.1c-0.2-0.2-0.5-0.2-0.7,0l-3,3l-1-1.6c-0.1-0.2-0.3-0.2-0.4-0.2c-0.3,0-0.5,0.2-0.6,0.5
		C11,3.9,11,4.1,11,4.1z"/>
	<path d="M9,16v-4.3C9,11.3,8.7,11,8.4,11H3.9c-0.3,0-0.6,0.3-0.6,0.6c0,0.2,0,0.3,0.2,0.4l1.6,1.1l-3,3
		c-0.2,0.2-0.2,0.5,0,0.7l1.1,1.1c0.2,0.2,0.5,0.2,0.7,0l3-3L8,16.5c0.1,0.2,0.3,0.2,0.4,0.2c0.3,0,0.5-0.2,0.6-0.5
		C9,16.1,9,16,9,16z"/>
</g>
<g id="ITALIC">
	<path d="M15.8,3H7.5C7,3,6.6,3.4,6.6,3.9S7,4.8,7.5,4.8h3l-4,9.5h-3c-0.5,0-0.9,0.4-0.9,0.9s0.4,0.9,0.9,0.9h8.3
		c0.5,0,0.9-0.4,0.9-0.9s-0.4-0.9-0.9-0.9H8.3l4-9.5h3.4c0.5,0,0.9-0.4,0.9-0.9S16.3,3,15.8,3z"/>
</g>
<g id="ATTACH">
	<path d="M16.7,16.5c-1.7,1.7-4.4,1.7-6.1,0l-3.9-3.9c-1-1-1.1-2.7,0-3.9c1.1-1.1,2.8-1.1,3.9,0l3.6,3.6
		c0.3,0.3,0.3,0.8,0,1.1s-0.8,0.3-1.1,0L9.6,9.9c-0.5-0.5-1.2-0.5-1.7,0s-0.5,1.2,0,1.7l4.1,4.1c0,0,1.8,1.5,3.6-0.3
		c1.1-1.1,1.1-2.8,0-3.9L8.4,4.4c-1.1-1.1-2.8-1.1-3.9,0C2.4,6.5,4.9,8.5,4.9,8.5c0.3,0.3,0.3,0.8,0,1.1s-0.8,0.3-1.1,0
		c0,0-3.8-2.9-0.3-6.4c1.7-1.7,4.4-1.7,6.1,0l7.2,7.2C18.4,12.1,18.4,14.9,16.7,16.5"/>
</g>
<g id="ENTER">
	<path d="M8,6.8c0.3-0.3,0.8-0.3,1.1,0s0.3,0.8,0,1.1L6.9,10h7.6V4.8c0-0.4,0.3-0.8,0.8-0.8C15.7,4,16,4.3,16,4.8v6
		c0,0.5-0.4,0.8-0.7,0.8H6.9l2.2,2.2c0.1,0.1,0.2,0.3,0.2,0.5s-0.1,0.4-0.2,0.5c-0.3,0.3-0.8,0.3-1.1,0l-4-4L8,6.8z"/>
</g>
<g id="APP_HIDDEN">
	<path d="M15.9,6.2L15.9,6.2c1.2,0,2.1-0.9,2.1-2.1l0,0C18,2.9,17.1,2,15.9,2l0,0c-1.2,0-2.1,0.9-2.1,2.1l0,0
		C13.8,5.3,14.7,6.2,15.9,6.2z M10,6.2L10,6.2c1.2,0,2.1-0.9,2.1-2.1l0,0C12.1,2.9,11.2,2,10,2l0,0C8.8,2,7.9,2.9,7.9,4.1l0,0
		C7.9,5.3,8.8,6.2,10,6.2z M4.1,6.2L4.1,6.2c1.2,0,2.1-0.9,2.1-2.1l0,0C6.2,2.9,5.3,2,4.1,2l0,0C2.9,2,2,2.9,2,4.1l0,0
		C2,5.3,2.9,6.2,4.1,6.2z M15.9,12.1L15.9,12.1c1.2,0,2.1-0.9,2.1-2.1l0,0c0-1.2-0.9-2.1-2.1-2.1l0,0c-1.2,0-2.1,0.9-2.1,2.1l0,0
		C13.8,11.2,14.7,12.1,15.9,12.1z M10,12.1L10,12.1c1.2,0,2.1-0.9,2.1-2.1l0,0c0-1.2-0.9-2.1-2.1-2.1l0,0c-1.2,0-2.1,0.9-2.1,2.1
		l0,0C7.9,11.2,8.8,12.1,10,12.1z M4.1,12.1L4.1,12.1c1.2,0,2.1-0.9,2.1-2.1l0,0c0-1.2-0.9-2.1-2.1-2.1l0,0C2.9,7.9,2,8.8,2,10l0,0
		C2,11.2,2.9,12.1,4.1,12.1z M15.9,18L15.9,18c1.2,0,2.1-0.9,2.1-2.1l0,0c0-1.2-0.9-2.1-2.1-2.1l0,0c-1.2,0-2.1,0.9-2.1,2.1l0,0
		C13.8,17.1,14.7,18,15.9,18z M10,18L10,18c1.2,0,2.1-0.9,2.1-2.1l0,0c0-1.2-0.9-2.1-2.1-2.1l0,0c-1.2,0-2.1,0.9-2.1,2.1l0,0
		C7.9,17.1,8.8,18,10,18z M4.1,18L4.1,18c1.2,0,2.1-0.9,2.1-2.1l0,0c0-1.2-0.9-2.1-2.1-2.1l0,0c-1.2,0-2.1,0.9-2.1,2.1l0,0
		C2,17.1,2.9,18,4.1,18z"/>
</g>
<g id="COLLAPSE_LIST">
	<path d="M12,2.5H8c-0.2,0-0.3,0.2-0.1,0.4L10,5l2.1-2.1C12.3,2.7,12.2,2.5,12,2.5z M8,17.5h4c0.2,0,0.3-0.2,0.1-0.4L10,15l-2.1,2.1
		C7.7,17.3,7.8,17.5,8,17.5z M16.5,11h-13c-0.6,0-1,0.4-1,1s0.4,1,1,1h13c0.6,0,1-0.4,1-1S17.1,11,16.5,11z M3.5,9h13
		c0.6,0,1-0.4,1-1s-0.4-1-1-1h-13c-0.6,0-1,0.4-1,1S2.9,9,3.5,9z"/>
</g>
<g id="EXPAND_LIST">
	<path d="M8,8h4c0.2,0,0.3-0.2,0.1-0.4L10,5.5L7.9,7.6C7.7,7.8,7.8,8,8,8z M12,12H8c-0.2,0-0.3,0.2-0.1,0.4l2.1,2.1
		l2.1-2.1C12.3,12.2,12.2,12,12,12z M16.5,15h-13c-0.6,0-1,0.4-1,1c0,0.6,0.4,1,1,1h13c0.6,0,1-0.4,1-1C17.5,15.5,17.1,15,16.5,15z
		 M3.5,5h13c0.6,0,1-0.4,1-1s-0.4-1-1-1h-13c-0.6,0-1,0.4-1,1S2.9,5,3.5,5z"/>
</g>
<g id="ARROW_LEFT_DOC">
	<path d="M13.46951,2.215l-7.46899,7.786l7.46899,7.784c0.28699,0.287,0.75,0.287,1.03699,0
		c0.28601-0.285,0.28601-0.749,0-1.035l-6.34094-6.749l6.34094-6.75c0.28601-0.286,0.28601-0.749,0-1.036
		C14.21951,1.928,13.7565,1.928,13.46951,2.215"/>
</g>
<g id="ARROW_RIGHT_DOC">
	<path d="M7.2515,17.785l7.46899-7.786L7.2515,2.215c-0.28699-0.287-0.75-0.287-1.03699,0
		c-0.28601,0.285-0.28601,0.749,0,1.035l6.34094,6.749l-6.34094,6.75c-0.28601,0.286-0.28601,0.749,0,1.036
		C6.5015,18.072,6.96451,18.072,7.2515,17.785"/>
</g>
<g id="POP_OUT">
	<path d="M15.4,16.4H3.6V4.6H11V3H2.8C2.4,3,2,3.4,2,3.8v13.4C2,17.6,2.4,18,2.8,18h13.4c0.5,0,0.8-0.4,0.8-0.8V9.5
		h-1.6C15.4,9.5,15.4,16.4,15.4,16.4z"/>
	<path d="M17.3,2h-4.2c-0.2,0-0.4,0.3-0.4,0.6S12.9,3,12.9,3l1.6,1l-3.2,3.2c-0.2,0.2-0.2,0.5,0,0.7l1,1
		c0.2,0.2,0.5,0.2,0.7,0l3.2-3.2l1,1.6c0,0,0.1,0.2,0.4,0.2s0.5-0.3,0.5-0.6V2.7C18,2.3,17.8,2,17.3,2z"/>
</g>
<g id="PRINTER">
	<path d="M13.8,13.5H6.2c-0.4,0-0.7,0.3-0.7,0.7v2.6c0,0.4,0.3,0.7,0.7,0.7h7.6c0.4,0,0.7-0.3,0.7-0.7v-2.6
		C14.5,13.8,14.2,13.5,13.8,13.5z"/>
	<path d="M15.5,3.2c0-0.4-0.3-0.7-0.7-0.7H5.2c-0.4,0-0.7,0.3-0.7,0.7v3.3h11V3.2z"/>
	<path d="M17.3,8H2.7C2.3,8,2,8.3,2,8.7v6.6C2,15.7,2.3,16,2.7,16h0.6C3.7,16,4,15.7,4,15.3v-2.6C4,12.3,4.3,12,4.7,12
		h10.6c0.4,0,0.7,0.3,0.7,0.7v2.6c0,0.4,0.3,0.7,0.6,0.7h0.7c0.4,0,0.7-0.3,0.7-0.7V8.7C18,8.3,17.7,8,17.3,8z M15,11
		c-0.6,0-1-0.4-1-1s0.4-1,1-1s1,0.4,1,1S15.6,11,15,11z"/>
</g>
<g id="ZOOM_OUT">
	<path d="M10.3,8.6H5.2c-0.5,0-0.8-0.4-0.8-0.8C4.4,7.3,4.8,7,5.2,7h5.1c0.5,0,0.8,0.4,0.8,0.8
		C11.1,8.2,10.8,8.6,10.3,8.6z M7.8,2.7C5,2.7,2.7,5,2.7,7.8s2.3,5.1,5.1,5.1s5.1-2.3,5.1-5.1S10.6,2.7,7.8,2.7z M18.8,18.8
		c-0.3,0.3-0.9,0.3-1.2,0l-5.7-5.7c-1.1,0.9-2.6,1.4-4.1,1.4C4,14.5,1,11.5,1,7.8C1,4,4,1,7.8,1c3.7,0,6.8,3,6.8,6.8
		c0,1.6-0.5,3-1.4,4.1l5.7,5.7C19.1,17.9,19.1,18.4,18.8,18.8z"/>
</g>
<g id="ZOOM_IN">
	<path d="M10.288,8.6H8.6v1.689c0,0.467-0.378,0.844-0.844,0.844c-0.467,0-0.845-0.377-0.845-0.844V8.6h-1.69
		c-0.466,0-0.844-0.377-0.844-0.844s0.378-0.844,0.844-0.844H6.91v-1.69c0-0.467,0.378-0.844,0.845-0.844
		c0.467,0,0.844,0.377,0.844,0.844v1.689h1.689c0.466,0,0.844,0.377,0.844,0.844C11.132,8.222,10.754,8.6,10.288,8.6z M7.755,2.689
		c-2.798,0-5.066,2.27-5.066,5.066c0,2.798,2.268,5.066,5.066,5.066s5.066-2.268,5.066-5.066C12.821,4.959,10.553,2.689,7.755,2.689
		z M18.754,18.754c-0.328,0.328-0.859,0.328-1.186,0l-5.67-5.67c-1.144,0.89-2.58,1.426-4.142,1.426C4.024,14.51,1,11.486,1,7.755
		S4.024,1,7.755,1s6.754,3.025,6.754,6.755c0,1.564-0.535,2.998-1.426,4.143l5.67,5.67C19.081,17.896,19.081,18.427,18.754,18.754z"
		/>
</g>
<g id="DOWNLOAD_BIG">
	<path d="M17.261,14.51c-0.414,0-0.751,0.336-0.751,0.751v1.253H3.501v-1.253c0-0.415-0.336-0.751-0.751-0.751
		S2,14.846,2,15.261v2.003C2,17.678,2.337,18,2.751,18H17.5c0.414,0,0.511-0.322,0.511-0.736v-2.003
		C18.011,14.846,17.675,14.51,17.261,14.51z"/>
	<path d="M9.545,13.572c0.259,0.243,0.662,0.243,0.921,0l4.329-4.083c0.281-0.281,0.281-0.737,0-1.018
		c-0.134-0.134-0.308-0.2-0.484-0.206V8.26h-0.025c-0.001,0-0.001,0-0.002,0l-2.279,0.5V2.589c0-0.324-0.263-0.587-0.587-0.587
		H8.592c-0.324,0-0.587,0.263-0.587,0.587V8.76l-2.279-0.5c-0.001,0-0.001,0-0.002,0H5.7v0.005C5.524,8.271,5.35,8.336,5.216,8.47
		c-0.281,0.281-0.281,0.738,0,1.018L9.545,13.572z"/>
</g>
<g id="COMPOSE">
	<path d="M8.79031,15.83403c-0.08945,0.08946-0.20886,0.15175-0.33323,0.16648
		c-0.05509,0.01527-3.957,0.00043-3.957,0.00043c-0.29946,0.00491-0.50491-0.24273-0.5-0.54164v-3.85531
		c0-0.14837,0.05891-0.29128,0.16364-0.39655l4.17386-4.16895l4.62441,4.62386L8.79031,15.83403z M13.75127,10.87471L9.12686,6.2503
		l2.07766-2.07547c0.21491-0.21491,0.57601-0.23891,0.78328-0.03164l3.86404,3.88095c0.174,0.174,0.228,0.52419-0.02182,0.77346
		L13.75127,10.87471z"/>
</g>
<g id="DELETE">
	<path d="M3.99371,17.20868c0,0.41101,0.33496,0.79102,0.745,0.79102h10.52197c0.41003,0,0.73303-0.38702,0.73303-0.797
		L15.994,7h-12L3.99371,17.20868z M11.25031,10.26367c0-0.41498,0.336-0.75098,0.75098-0.75098
		c0.41504,0,0.75104,0.336,0.75104,0.75098v4.48999c0,0.414-0.336,0.75-0.75104,0.75c-0.41498,0-0.75098-0.336-0.75098-0.75
		C11.25031,14.75366,11.25031,10.26367,11.25031,10.26367z M7.25031,10.26367c0-0.41498,0.336-0.75098,0.75098-0.75098
		c0.41504,0,0.75104,0.336,0.75104,0.75098v4.48999c0,0.414-0.336,0.75-0.75104,0.75c-0.41498,0-0.75098-0.336-0.75098-0.75
		C7.25031,14.75366,7.25031,10.26367,7.25031,10.26367z"/>
	<path d="M16.99988,2.99969h-4.25873V2.92395C12.74115,2.414,12.40411,2,11.97913,2H8.0083
		C7.58325,2,7.23529,2.414,7.23529,2.92395v0.07574H3.00012C2.44775,2.99969,2,3.44745,2,3.99982S2.44775,5,3.00012,5h0.0199h13.961
		h0.01886C17.55225,5,18,4.55219,18,3.99982S17.55225,2.99969,16.99988,2.99969z"/>
</g>
<g id="MOVE_TO_FOLDER">
	<path d="M17.25,5h-6.76855l-0.7168-1.5625C9.64258,3.1709,9.37598,3,9.08301,3H2.75C2.33594,3,2,3.33594,2,3.75v12.5
		C2,16.66406,2.33594,17,2.75,17h6.5v-6.18945l-1.71973,1.71973c-0.29297,0.29297-0.76758,0.29297-1.06055,0
		s-0.29297-0.76758,0-1.06055L10,7.93945l3.53027,3.53027c0.29297,0.29297,0.29297,0.76758,0,1.06055
		C13.38379,12.67676,13.19238,12.75,13,12.75s-0.38379-0.07324-0.53027-0.21973L10.75,10.81055V17h6.5
		c0.41406,0,0.75-0.33594,0.75-0.75V5.75C18,5.33594,17.66406,5,17.25,5z"/>
</g>
<g id="ARCHIVE">
	<path d="M17.25,7H13h-1.23334v0.75c0,0.96649-0.78351,1.75-1.75,1.75s-1.75-0.78351-1.75-1.75V7H6.5H2.75
		C2.33582,7,2,7.33575,2,7.75v8.5C2,16.66418,2.33582,17,2.75,17h14.5c0.41418,0,0.75-0.33582,0.75-0.75v-8.5
		C18,7.33575,17.66418,7,17.25,7z"/>
	<path d="M3,5h14c0.55231,0,1-0.44775,1-1c0-0.55231-0.44769-1-1-1H3C2.44769,3,2,3.44769,2,4C2,4.55225,2.44769,5,3,5z
		"/>
</g>
<g id="RESTORE_TO_INBOX">
	<path d="M18,4.17426V3.78125c0-0.41504-0.32501-0.75-0.72699-0.75H2.72699C2.32501,3.03125,2,3.36621,2,3.78125
		v0.39301l8,3.78198L18,4.17426z"/>
	<path d="M8.26678,13.46802l6.19434-4.95496c0.40234-0.30042,1.05652-0.07275,1.05652,0.52826v1.96661H18V5.82422
		l-8,3.70703L2,5.82526v8.45599c0,0.41498,0.32501,0.75,0.72803,0.75h6.16968l-0.63092-0.50696
		C7.87732,14.23157,7.95715,13.70074,8.26678,13.46802z"/>
	<path d="M19.6781,12.50873h-5.6413V11.526c0-0.30035-0.3269-0.41412-0.52795-0.26398l-3.0954,2.47607
		c-0.15472,0.11627-0.19464,0.38153,0,0.52783l3.0954,2.4873c0.2196,0.16406,0.52808,0.00421,0.52808-0.26392l-0.00012-0.99634
		h5.6413c0.18231,0,0.32581-0.15857,0.32581-0.34082v-2.30518C20.00391,12.66473,19.86041,12.50873,19.6781,12.50873z"/>
</g>
<g id="SPAM">
	<path d="M17.80247,5.02905c-1.45605-0.10254-4.33984-0.67188-7.30078-3.33643
		c-0.28516-0.25684-0.71875-0.25684-1.00391,0C6.53685,4.35718,3.65306,4.92651,2.197,5.02905
		C1.79173,5.05737,1.48314,5.40356,1.50072,5.80933c0.39648,9.18701,6.92969,12.14209,8.23535,12.6416
		c0.08594,0.03271,0.17676,0.04932,0.26758,0.04932c0.08789,0,0.17578-0.01562,0.25977-0.04639
		c1.30664-0.4834,7.8418-3.36328,8.23535-12.64502C18.51634,5.40308,18.20775,5.05737,17.80247,5.02905z M12.90501,11.96997
		c0.29297,0.29297,0.29297,0.76758,0,1.06055c-0.14648,0.14648-0.33789,0.21973-0.53027,0.21973s-0.38379-0.07324-0.53027-0.21973
		l-1.84473-1.84473l-1.84473,1.84473c-0.14648,0.14648-0.33789,0.21973-0.53027,0.21973S7.24095,13.177,7.09447,13.03052
		c-0.29297-0.29297-0.29297-0.76758,0-1.06055l1.84473-1.84473L7.09447,8.28052c-0.29297-0.29297-0.29297-0.76758,0-1.06055
		s0.76758-0.29297,1.06055,0L9.99974,9.0647l1.84473-1.84473c0.29297-0.29297,0.76758-0.29297,1.06055,0s0.29297,0.76758,0,1.06055
		l-1.84473,1.84473L12.90501,11.96997z"/>
</g>
<g id="ADD">
	<path d="M13.75,9.25h-3v-3c0-0.41418-0.33582-0.75-0.75-0.75S9.25,5.83582,9.25,6.25v3h-3
		C5.83582,9.25,5.5,9.58582,5.5,10s0.33582,0.75,0.75,0.75h3v3c0,0.41418,0.33582,0.75,0.75,0.75s0.75-0.33582,0.75-0.75v-3h3
		c0.41418,0,0.75-0.33582,0.75-0.75S14.16418,9.25,13.75,9.25z"/>
</g>
<g id="MINUS">
	<path d="M13.75,9.25h-7.5C5.83582,9.25,5.5,9.58582,5.5,10s0.33582,0.75,0.75,0.75h7.5c0.41418,0,0.75-0.33582,0.75-0.75
		S14.16418,9.25,13.75,9.25z"/>
</g>
<g id="SHARESOCIAL">
	<path d="M13.2,12.1c-0.6,0-1.2,0.2-1.7,0.6l-2.3-1.6c0.1-0.3,0.2-0.7,0.2-1.1S9.3,9.3,9.2,8.9l2.3-1.6
		c0.5,0.3,1.1,0.6,1.7,0.6c1.6,0,2.9-1.3,2.9-2.9s-1.3-3-2.9-3s-2.9,1.3-2.9,2.9c0,0.4,0.1,0.7,0.2,1.1L8.2,7.6
		C7.7,7.3,7.1,7.1,6.4,7.1c-1.6,0-2.9,1.3-2.9,2.9s1.3,2.9,2.9,2.9c0.6,0,1.2-0.2,1.7-0.6l2.3,1.6c-0.1,0.3-0.2,0.7-0.2,1.1
		c0,1.6,1.3,2.9,2.9,2.9S16,16.6,16,15S14.8,12.1,13.2,12.1z"/>
</g>
<g id="HEART">
	<path fill="#ED1B32" d="M10.001,18.183l-7.642-8.009C0.546,8.269,0.546,5.17,2.358,3.266c0.89-0.934,2.072-1.45,3.334-1.45
		C8.3,1.816,9.517,3.896,10,4.29c0.498-0.406,1.688-2.473,4.308-2.473c1.262,0,2.446,0.514,3.334,1.45
		c1.81,1.904,1.81,5.003,0,6.907l-7.643,8.01h0.002V18.183z"/>
</g>
<g id="BUG">
	<path fill="#26282A" d="M11.11312,6.86182c0.77972-0.4068,1.31793-1.21332,1.31793-2.15369c0-1.15875-0.81024-2.12415-1.8938-2.37219
	c0.00067-0.00299,0.00385-0.01636,0.00385-0.01636c0.07404-0.28119,0.13702-1.75751,1.7016-1.75751
	c0.64465,0,1.24225,0.37573,1.52191,0.9574c0.06744,0.14001,0.23572,0.19885,0.37543,0.13165
	c0.13977-0.0675,0.19891-0.23541,0.13129-0.37543c-0.37262-0.77509-1.16888-1.27612-2.02863-1.27612
	c-1.2406,0-2.25,1.0094-2.25,2.25c0-1.2406-1.0094-2.25-2.25-2.25c-0.8598,0-1.65594,0.50092-2.02869,1.276
	c-0.0672,0.14001-0.00836,0.30804,0.13171,0.37555c0.13977,0.0672,0.30792,0.00836,0.37543-0.13165
	c0.2796-0.58167,0.87695-0.9574,1.52155-0.9574c1.56293,0,1.62762,1.47632,1.70154,1.75751c0,0,0.00299,0.01355,0.00354,0.01654
	C8.36452,2.58435,7.55452,3.54956,7.55452,4.70813c0,0.94037,0.53815,1.74689,1.31787,2.15369
	c-2.5697,0.51947-4.50464,2.78992-4.50464,5.51276c0,3.10663,2.51837,5.625,5.625,5.625s5.625-2.51837,5.625-5.625
	C15.61776,9.65173,13.68282,7.38135,11.11312,6.86182z"/>
	<path fill="#ED1B32" d="M9.99276,8.85376c0,4.00922,2.36499,7.4577,5.77106,9.05206c1.71917-1.79328,2.61848-4.37886,2.06717-7.16085
		c-0.6165-3.1109-3.12774-5.61403-6.24151-6.21584c-5.11864-0.9893-9.59671,2.90511-9.59671,7.84544
		c0,2.14813,0.8512,4.09412,2.22894,5.53125C7.62771,16.31146,9.99276,12.86298,9.99276,8.85376z"/>
		<circle class="st0" cx="12.74316" cy="8.75" r="1.25"/>
		<circle class="st0" cx="7.24276" cy="8.75" r="1.25"/>
		<circle class="st0" cx="15.24276" cy="12.75" r="1.25"/>
		<circle class="st0" cx="4.74276" cy="12.75" r="1.25"/>
</g>
<g id="CALENDAR_ATTACH">
	<path d="M15.99925,10.667h-12v4.666h12V10.667z M15.99925,6h-2v0.667c0,0.368-0.298,0.667-0.667,0.667
		s-0.667-0.299-0.667-0.667V6h-5.333v0.667c0,0.368-0.299,0.667-0.667,0.667s-0.667-0.299-0.667-0.667V6h-2v3.333h12V6H15.99925z
		 M16.66625,16.667h-13.333c-0.368,0-0.667-0.299-0.667-0.667V5.334c0-0.369,0.299-0.667,0.667-0.667h2.667V4
		c0-0.369,0.299-0.667,0.667-0.667s0.667,0.298,0.667,0.667v0.667h5.333V4c0-0.369,0.299-0.667,0.667-0.667s0.667,0.298,0.667,0.667
		v0.667h2.667c0.368,0,0.667,0.298,0.667,0.667V16c0,0.369-0.299,0.667-0.667,0.667l0,0H16.66625z"/>
</g>
<g id="DRAFTS">
	<path d="M13.08255,8.51986H7.06014c-0.41635,0-0.75289-0.3373-0.75289-0.75289
	c0-0.41635,0.33654-0.7529,0.75289-0.7529h6.02241c0.4156,0,0.7529,0.33654,0.7529,0.7529
	C13.83544,8.18256,13.49814,8.51986,13.08255,8.51986z M13.04616,11.50926H7.0561c-0.41411,0-0.74885-0.33549-0.74885-0.74885
	c0-0.41412,0.33474-0.74885,0.74885-0.74885h5.99006c0.41337,0,0.74885,0.33474,0.74885,0.74885
	C13.79501,11.17377,13.45953,11.50926,13.04616,11.50926z M15.81349,2.01155H4.25785c-0.39648,0-0.72218,0.33293-0.72218,0.74024
	L3.53639,17.012c0,0.57197,0.63335,0.91717,1.11361,0.60663l1.67763-1.23854l1.38876,1.20821
	c0.25276,0.19427,0.6023,0.20077,0.86156,0.01517l1.45736-1.22193l1.45809,1.22193c0.25926,0.1856,0.6088,0.1791,0.86156-0.01517
	l1.38731-1.20821l1.67907,1.23854c0.48025,0.31054,1.11433-0.03394,1.11433-0.60663V2.75179
	C16.53567,2.34448,16.20997,2.01155,15.81349,2.01155z"/>
	</g>
	<g id="CLEAR">
		<path id="Clear" d="M10,2c-4.4185,0-8,3.582-8,8c0,4.4185,3.5815,8,8,8c4.418,0,8-3.5815,8-8C18,5.582,14.418,2,10,2
			L10,2L10,2z M13.44501,12.6795c0.21149,0.2115,0.21149,0.5545,0,0.7655c-0.21101,0.2115-0.554,0.2115-0.7655,0L10,10.7655
			L7.3205,13.445c-0.2115,0.2115-0.55449,0.2115-0.7655,0c-0.21149-0.211-0.21149-0.554-0.00049-0.7655L9.2345,10l-2.6795-2.6795
			c-0.21149-0.2115-0.21149-0.554,0-0.7655c0.21101-0.2115,0.554-0.2115,0.7655,0L10,9.2345l2.6795-2.6795
			c0.2115-0.2115,0.55449-0.2115,0.7655,0c0.21149,0.2115,0.21149,0.554,0,0.7655L10.7655,10L13.44501,12.6795L13.44501,12.6795
			L13.44501,12.6795z"/>
	</g>
<g id="INPUT_ARROW_DOWN">
	<polygon id="Path-1009" points="5.5,7.5 14.5,7.5 10,12.5"/>
</g>
<g id="SHARE">
			<path d="M16.7557,14.0427c-0.41399,0-0.75004,0.33526-0.75004,0.74998v1.25192H4.0057v-1.25192
				c0-0.41473-0.33605-0.74998-0.75004-0.74998s-0.74998,0.33526-0.74998,0.74998v2.0019c0,0.41326,0.33644,0.73534,0.75043,0.73534
				h13.7386c0.41399,0,0.51097-0.32208,0.51097-0.73534v-2.0019C17.50568,14.37796,17.16969,14.0427,16.7557,14.0427z"/>
		<path d="M18.7702,7.48212c0.30284-0.25155,0.307-0.71493,0.00873-0.97187l-5.72456-4.95771
			c-0.41333-0.35543-1.05278-0.06146-1.05278,0.48404l0.00097,1.99129c-3.7804,0-6.65313,3.34815-7.0011,8.83441
			c-0.04424,0.70541,0.92999,0.87236,1.21945,0.21618c0.13348-0.51099,1.62403-3.46213,5.78165-3.46213l-0.00097,2.15806
			c0,0.54557,0.64081,0.83939,1.05414,0.48404L18.7702,7.48212z"/>
</g>
<g id="CLOCK">
	<path d="M11.97354,12.70121c-0.27492,0.27601-0.72221,0.27601-0.99714,0l-1.39534-1.39534
		c-0.18219-0.1331-0.30874-0.33711-0.30874-0.5793V7.09041c0-0.40256,0.3251-0.72767,0.72767-0.72767
		c0.40256,0,0.72767,0.32511,0.72767,0.72767v3.36561l1.24697,1.24697c0.27601,0.27601,0.27601,0.72112,0,0.99714L11.97354,12.70121
		z M10,2c-4.41838,0-8,3.58162-8,8s3.58162,8,8,8s8-3.58162,8-8S14.41838,2,10,2z"/>
</g>
<g id="ATTACH_GENERIC_48">
	<path d="M17.10631,4.44767c0,0-3.27345-3.22928-4.05705-4.0024C12.85922,0.25776,12.65895,0.02877,12.29834,0H3.644
		C3.14087,0,2.733,0.40787,2.733,0.911v18.21999c0,0.50105,0.40995,0.911,0.911,0.911h12.75399c0.50105,0,0.911-0.40995,0.911-0.911
		V4.98234C17.30899,4.73536,17.21417,4.55776,17.10631,4.44767z M3.644,19.13099V0.911h8.199v3.87175
		c0,0.37579,0.30746,0.68325,0.68325,0.68325H16.398v13.665H3.644V19.13099z"/>
</g>
<g id="ATTACH_GSHEETS_48">
		<path d="M17.0762,4.43834c0,0-3.2666-3.22252-4.04854-3.994C12.83801,0.25721,12.63814,0.02871,12.27831,0H3.64209
			C3.14002,0,2.733,0.40699,2.733,0.90909v18.18182C2.733,19.5909,3.1421,20,3.64209,20h12.72727
			c0.49999,0,0.90909-0.4091,0.90909-0.90909V4.9719C17.27845,4.72543,17.18382,4.5482,17.0762,4.43834z M16.36936,19.09091H3.64209
			V0.90909h8.18182v3.86364c0,0.37501,0.30681,0.68182,0.68182,0.68182h3.86364
			C16.36937,5.45455,16.36937,19.09091,16.36936,19.09091z"/>
		<path d="M5.46027,9.09091v6.36364c0,0.50207,0.40702,0.90909,0.90909,0.90909h7.27273
			c0.50207,0,0.90909-0.40702,0.90909-0.90909V9.09091c0-0.5021-0.40702-0.90909-0.90909-0.90909H6.36936
			C5.86729,8.18182,5.46027,8.58881,5.46027,9.09091z M7.58848,14.54545H6.98304c-0.27702,0-0.50068-0.17844-0.50068-0.45455
			s0.22367-0.45455,0.50068-0.45455h0.60544c0.27613,0,0.49988,0.17844,0.49988,0.45455S7.86461,14.54545,7.58848,14.54545z
			 M13.04303,14.54545H9.71032c-0.27702,0-0.50068-0.17844-0.50068-0.45455s0.22367-0.45455,0.50068-0.45455h3.33271
			c0.27613,0,0.49988,0.17844,0.49988,0.45455S13.31916,14.54545,13.04303,14.54545z M13.04303,12.72727H9.71032
			c-0.27702,0-0.50068-0.17844-0.50068-0.45455c0-0.2761,0.22367-0.45455,0.50068-0.45455h3.33271
			c0.27613,0,0.49988,0.17844,0.49988,0.45455C13.54291,12.54883,13.31916,12.72727,13.04303,12.72727z M9.70341,10h3.33271
			c0.27613,0,0.49988,0.17844,0.49988,0.45455c0,0.2761-0.22375,0.45455-0.49988,0.45455H9.70341
			c-0.27702,0-0.50068-0.17844-0.50068-0.45455S9.42639,10,9.70341,10z M7.58848,12.72727H6.98304
			c-0.27702,0-0.50068-0.17844-0.50068-0.45455c0-0.2761,0.22367-0.45455,0.50068-0.45455h0.60544
			c0.27613,0,0.49988,0.17844,0.49988,0.45455S7.86461,12.72727,7.58848,12.72727z M6.97614,10h0.60544
			c0.27613,0,0.49988,0.17844,0.49988,0.45455c0,0.2761-0.22375,0.45455-0.49988,0.45455H6.97614
			c-0.27702,0-0.50068-0.17844-0.50068-0.45455C6.47545,10.17844,6.69912,10,6.97614,10z"/>
</g>
<g id="ATTACH_GDOCS_48">
		<path d="M17.0762,4.43834c-0.00017-0.00008-3.2666-3.22252-4.04857-3.994
			C12.83801,0.25721,12.63814,0.02871,12.27831,0H3.64209C3.14002,0,2.733,0.40699,2.733,0.90909v18.18182
			C2.733,19.5909,3.1421,20,3.64209,20h12.72727c0.49999,0,0.90909-0.4091,0.90909-0.90909V4.9719
			C17.27845,4.72543,17.18382,4.5482,17.0762,4.43834z M16.36936,19.09091H3.64209V0.90909h8.18182v3.86364
			c0,0.37501,0.30681,0.68182,0.68182,0.68182h3.86364C16.36937,5.45455,16.36937,19.09091,16.36936,19.09091z"/>
		<path d="M5.46027,9.09091v6.36364c0,0.50207,0.40702,0.90909,0.90909,0.90909h7.27273
			c0.50207,0,0.90909-0.40702,0.90909-0.90909V9.09091c0-0.5021-0.40702-0.90909-0.90909-0.90909H6.36936
			C5.86729,8.18182,5.46027,8.58881,5.46027,9.09091z M10.31576,14.54545H6.98304c-0.27702,0-0.50068-0.17844-0.50068-0.45455
			s0.22367-0.45455,0.50068-0.45455h3.33271c0.27613,0,0.49988,0.17844,0.49988,0.45455S10.59189,14.54545,10.31576,14.54545z
			 M13.04303,12.72727H6.98304c-0.27702,0-0.50068-0.17844-0.50068-0.45455c0-0.2761,0.22367-0.45455,0.50068-0.45455h6.05999
			c0.27613,0,0.49988,0.17844,0.49988,0.45455S13.31916,12.72727,13.04303,12.72727z M6.97614,10h6.05999
			c0.27613,0,0.49988,0.17844,0.49988,0.45455c0,0.2761-0.22375,0.45455-0.49988,0.45455H6.97614
			c-0.27702,0-0.50068-0.17844-0.50068-0.45455C6.47545,10.17844,6.69912,10,6.97614,10z"/>
</g>
<g id="ATTACH_GSLIDES_48">
		<path d="M17.0762,4.43834c0,0-3.2666-3.22252-4.04854-3.994C12.83801,0.25721,12.63814,0.02871,12.27831,0H3.64209
			C3.14002,0,2.733,0.40699,2.733,0.90909v18.18182C2.733,19.5909,3.1421,20,3.64209,20h12.72727
			c0.49999,0,0.90909-0.4091,0.90909-0.90909V4.9719C17.27845,4.72543,17.18382,4.5482,17.0762,4.43834z M16.36936,19.09091H3.64209
			V0.90909h8.18182v3.86364c0,0.37501,0.30681,0.68182,0.68182,0.68182h3.86364
			C16.36937,5.45455,16.36937,19.09091,16.36936,19.09091z"/>
		<path d="M5.46027,9.09091v6.36364c0,0.50207,0.40702,0.90909,0.90909,0.90909h7.27273
			c0.50207,0,0.90909-0.40702,0.90909-0.90909V9.09091c0-0.5021-0.40702-0.90909-0.90909-0.90909H6.36936
			C5.86729,8.18182,5.46027,8.58881,5.46027,9.09091z M13.64209,13.18182H6.36936V9.09091h7.27273V13.18182z"/>
</g>
<g id="ATTACH_DOC_48">
		<path d="M17.10632,4.44766c0,0-3.27346-3.22928-4.05704-4.00239C12.85922,0.25775,12.65894,0.02877,12.29836,0H3.644
			C3.14087,0,2.733,0.40785,2.733,0.911v18.21999c0,0.50104,0.40996,0.911,0.911,0.911h12.75399
			c0.50104,0,0.911-0.40996,0.911-0.911V4.98234C17.30899,4.73535,17.21416,4.55775,17.10632,4.44766z M16.39799,19.13099H3.644
			V0.911h8.199v3.87175c0,0.37579,0.30746,0.68325,0.68325,0.68325H16.398v13.66499H16.39799z"/>
		<path d="M11.83352,7.30176L6.35423,8.2926v7.51358l5.47929,0.99085v-1.31004h2.26054
			c0.27671,0,0.50093-0.17882,0.50093-0.4555s-0.22422-0.4555-0.50093-0.4555h-2.26054v-0.911h2.26054
			c0.27671,0,0.50093-0.17882,0.50093-0.4555s-0.22422-0.4555-0.50093-0.4555h-2.26054v-0.911h2.26054
			c0.27671,0,0.50093-0.17882,0.50093-0.4555s-0.22422-0.4555-0.50093-0.4555h-2.26054v-0.911h2.26054
			c0.27671,0,0.50093-0.17882,0.50093-0.4555s-0.22422-0.4555-0.50093-0.4555h-2.26054V7.30176z M10.16176,13.66302
			c-0.194,0.09797-0.4845-0.0045-0.71455,0.01126C9.29262,12.9292,9.11255,12.1886,8.97424,11.4401
			c-0.13592,0.72707-0.31252,1.44748-0.46823,2.17007c-0.22308-0.01126-0.44738-0.02485-0.6716-0.03945
			c-0.19289-0.99043-0.41952-1.97413-0.59957-2.96684c0.19864-0.00901,0.39851-0.01682,0.59723-0.02358
			c0.11963,0.71689,0.25563,1.43047,0.36022,2.14853c0.16378-0.73607,0.33109-1.47215,0.49378-2.20825
			c0.22077-0.01232,0.44154-0.02141,0.66232-0.03267c0.15458,0.75976,0.3126,1.51835,0.47994,2.27469
			c0.13125-0.78111,0.27654-1.55994,0.41708-2.33997c0.23239-0.00784,0.46479-0.02018,0.69607-0.03378
			C10.67886,11.47955,10.44881,12.57921,10.16176,13.66302z"/>
</g>
<g id="ATTACH_XLS_48">
		<path d="M17.0762,4.43834c0,0-3.2666-3.22252-4.04854-3.994C12.83801,0.25721,12.63814,0.02871,12.27831,0H3.64209
			C3.14002,0,2.733,0.40699,2.733,0.90909v18.18182C2.733,19.5909,3.1421,20,3.64209,20h12.72727
			c0.49999,0,0.90909-0.4091,0.90909-0.90909V4.9719C17.27845,4.72543,17.18382,4.5482,17.0762,4.43834z M16.36936,19.09091H3.64209
			V0.90909h8.18182v3.86364c0,0.37501,0.30681,0.68182,0.68182,0.68182h3.86364
			C16.36937,5.45455,16.36937,19.09091,16.36936,19.09091z"/>
		<path d="M12.17927,9.54545c0-0.22819-0.15589-0.38305-0.36482-0.43221V7.28646L6.34664,8.27523v7.49784
			l5.46781,0.98877v-1.32965c0.20893-0.04916,0.36482-0.204,0.36482-0.43218s-0.15589-0.38305-0.36482-0.43221V13.614
			c0.20893-0.04916,0.36482-0.204,0.36482-0.43218s-0.15589-0.38305-0.36482-0.43221v-0.95378
			c0.20893-0.04916,0.36482-0.204,0.36482-0.43219c0-0.22819-0.15589-0.38305-0.36482-0.43221V9.97764
			C12.02338,9.92848,12.17927,9.77364,12.17927,9.54545z M9.59335,13.7667c-0.19165-0.46262-0.42494-0.90978-0.56247-1.39352
			c-0.15331,0.45047-0.37201,0.87536-0.54787,1.317c-0.24691-0.00336-0.49375-0.01329-0.74066-0.02333
			c0.28975-0.55803,0.56932-1.12058,0.868-1.67533c-0.2536-0.57134-0.532-1.13167-0.79362-1.69975
			c0.24802-0.01437,0.49602-0.02882,0.74402-0.04214c0.16801,0.43385,0.35181,0.86209,0.49042,1.30696
			c0.14882-0.47147,0.37084-0.91528,0.56139-1.37132c0.25477-0.01776,0.51061-0.03329,0.76657-0.04544
			c-0.30104,0.60686-0.60317,1.2138-0.90978,1.8184c0.31006,0.62131,0.62686,1.23821,0.938,1.85952
			C10.13562,13.80221,9.86507,13.78562,9.59335,13.7667z"/>
		<path d="M13.23304,13.63636h0.83721c0.27613,0,0.49988-0.17844,0.49988-0.45455s-0.22375-0.45455-0.49988-0.45455
			h-0.83721c-0.27702,0-0.50068,0.17844-0.50068,0.45455S12.95603,13.63636,13.23304,13.63636z"/>
		<path d="M13.23304,15.45455h0.83721c0.27613,0,0.49988-0.17844,0.49988-0.45455s-0.22375-0.45455-0.49988-0.45455
			h-0.83721c-0.27702,0-0.50068,0.17844-0.50068,0.45455S12.95603,15.45455,13.23304,15.45455z"/>
		<path d="M13.23304,11.81818h0.83721c0.27613,0,0.49988-0.17844,0.49988-0.45455
			c0-0.2761-0.22375-0.45455-0.49988-0.45455h-0.83721c-0.27702,0-0.50068,0.17844-0.50068,0.45455
			S12.95603,11.81818,13.23304,11.81818z"/>
		<path d="M13.23304,10h0.83721c0.27613,0,0.49988-0.17844,0.49988-0.45455c0-0.2761-0.22375-0.45455-0.49988-0.45455
			h-0.83721c-0.27702,0-0.50068,0.17844-0.50068,0.45455S12.95603,10,13.23304,10z"/>
</g>
<g id="ATTACH_PPT_48">
		<path d="M8.76674,11.0318v0.93456c0.22816,0.01745,0.45102,0.05993,0.5896-0.17575
			c0.10476-0.17786,0.09594-0.50282-0.02555-0.63948C9.17368,10.97445,8.97065,10.99962,8.76674,11.0318z"/>
		<path d="M11.82147,10.81818H11.8139v-1.9331l0.00056-1.59862L6.34664,8.27523v7.49784l5.46781,0.98877
			l-0.00056-0.38724v-1.82914h2.26421c0.24622,0,0.45413-0.20355,0.45413-0.45455c0-0.25282-0.20333-0.45455-0.45413-0.45455
			h-2.26421v-1.29411h0.00488c0.24636,0.3661,0.66484,0.60758,1.14047,0.60758c0.67633,0,1.2384-0.48728,1.35196-1.12873h-1.54807
			v-0.00225H12.733v-1.58331C12.3543,10.29841,12.02785,10.51364,11.82147,10.81818z M10.05952,11.80745
			c-0.08664,0.37034-0.3264,0.63091-0.70432,0.72252c-0.18827,0.04567-0.38974,0.03726-0.60458,0.05488v1.05466H8.17775v-3.18604
			c0.44195,0,0.88168-0.0124,1.31977,0.00835c0.11513,0.00544,0.24883,0.09075,0.33383,0.17822
			C10.1567,10.9747,10.15676,11.39163,10.05952,11.80745z"/>
		<path d="M13.18754,10.23526v1.12904h1.12332C14.21773,10.78733,13.76527,10.332,13.18754,10.23526z"/>
		<path d="M17.0762,4.43834c0,0-3.2666-3.22252-4.04854-3.994C12.83801,0.25721,12.63814,0.02871,12.27831,0H3.64209
			C3.14002,0,2.733,0.40699,2.733,0.90909v18.18182C2.733,19.5909,3.1421,20,3.64209,20h12.72727
			c0.49999,0,0.90909-0.4091,0.90909-0.90909V4.9719C17.27845,4.72543,17.18382,4.5482,17.0762,4.43834z M16.36936,19.09091H3.64209
			V0.90909h8.18182v3.86364c0,0.37501,0.30681,0.68182,0.68182,0.68182h3.86364
			C16.36937,5.45455,16.36937,19.09091,16.36936,19.09091z"/>
</g>
<g id="ATTACH_PDF_48">
		<path d="M17.0762,4.43834c0,0-3.2666-3.22252-4.04854-3.994C12.83801,0.25721,12.63814,0.02871,12.27831,0H3.64209
			C3.14002,0,2.733,0.40699,2.733,0.90909v18.18182C2.733,19.5909,3.1421,20,3.64209,20h12.72727
			c0.49999,0,0.90909-0.4091,0.90909-0.90909V4.9719C17.27845,4.72543,17.18382,4.5482,17.0762,4.43834z M16.36936,19.09091H3.64209
			V0.90909h8.18182v3.86364c0,0.37501,0.30681,0.68182,0.68182,0.68182h3.86364
			C16.36937,5.45455,16.36937,19.09091,16.36936,19.09091z"/>
		<path d="M11.59131,12.66957c-0.05904-0.06481-0.11896-0.13228-0.17978-0.20242
			c-0.40483-0.46786-0.77104-0.97301-1.08066-1.4786c0.17112-0.78835,0.26034-1.51678,0.271-2.06454l0.00222-0.1032
			c0.01465-0.62322,0.03906-1.66659-0.86293-1.85636C9.46174,6.90629,9.1843,6.96222,8.95903,7.1238
			c-0.24148,0.17312-0.40661,0.45344-0.4419,0.7504c-0.1092,0.92085,0.33225,2.12314,0.97789,3.24263
			c-0.17134,0.7089-0.40927,1.44886-0.71045,2.12269c-0.66695,0.25613-1.32946,0.60813-1.95312,1.07733
			c-1.09242,0.78702-0.98566,1.36985-0.82453,1.64684c0.14693,0.25346,0.43923,0.39373,0.75861,0.39373
			c0.15692,0,0.32027-0.03374,0.4763-0.10476c0.88712-0.40438,1.58869-1.31303,2.11648-2.38725
			c0.65252-0.22106,1.30349-0.34446,1.91428-0.39373c0.58239,0.58505,1.38539,1.22559,2.12314,1.24512
			c0.712,0.01909,1.072-0.37287,1.12038-0.76882c0.05149-0.42125-0.25391-0.95304-1.04537-1.1266
			C12.93808,12.70463,12.29355,12.64205,11.59131,12.66957z M6.91624,15.538c-0.08967,0.04173-0.17156,0.03862-0.21529,0.02752
			c0.02841-0.08833,0.16646-0.30717,0.59592-0.61657c0.27677-0.20819,0.56197-0.39107,0.85139-0.55087
			C7.79093,14.91921,7.37922,15.32715,6.91624,15.538z M9.29661,7.96675c0.00755-0.06281,0.04816-0.15359,0.11985-0.20508
			C9.44953,7.73793,9.48393,7.72661,9.5241,7.72661c0.01731,0,0.03551,0.002,0.05504,0.00621
			C9.82262,7.78409,9.8315,8.26816,9.81907,8.8026L9.81685,8.90869C9.8113,9.18701,9.784,9.51083,9.73517,9.8635
			C9.40647,9.12287,9.23979,8.44682,9.29661,7.96675z M9.76114,12.93102c0.1143-0.30229,0.2164-0.60946,0.30695-0.91531
			c0.18222,0.26056,0.37154,0.51003,0.56219,0.74263C10.34464,12.80007,10.05411,12.85733,9.76114,12.93102z M13.30296,13.58842
			c0.33558,0.07369,0.43679,0.22949,0.43457,0.26278c-0.00622,0.01465-0.08834,0.09499-0.32093,0.08079h-0.00044
			c-0.21307-0.00577-0.54732-0.14116-0.97212-0.46564C12.75475,13.48944,13.04328,13.5316,13.30296,13.58842z"/>
</g>
<g id="ATTACH_MOVIE_48">
		<path d="M7.91815,12.6705c0.06129,0,0.09971-0.01956,0.1707-0.06129l4.03001-2.34464
			c0.12385-0.07188,0.17728-0.16643,0.17728-0.26098s-0.06428-0.18954-0.1881-0.26101L8.06155,7.39837
			C7.99053,7.35664,7.98007,7.33714,7.9197,7.33714c-0.14826,0-0.19243,0.11805-0.19243,0.32091v2.34555v2.3455
			C7.72727,12.55195,7.7708,12.6705,7.91815,12.6705z"/>
		<path d="M19.09091,1.822H0.90909C0.40702,1.822,0,2.22902,0,2.73109v14.54545
			c0,0.50207,0.40702,0.90909,0.90909,0.90909h18.18182c0.50207,0,0.90909-0.40702,0.90909-0.90909V2.73109
			C20,2.22902,19.59298,1.822,19.09091,1.822z M19.09091,17.27654H0.90909V2.73109h18.18182V17.27654z"/>
</g>
<g id="ATTACH_SOUND_48">
		<path d="M19.09091,1.822H0.90909C0.40702,1.822,0,2.22899,0,2.73109v14.54545
			c0,0.50207,0.40702,0.90909,0.90909,0.90909h18.18182c0.50207,0,0.90909-0.40702,0.90909-0.90909V2.73109
			C20,2.22899,19.59298,1.822,19.09091,1.822z M19.09091,17.27654H0.90909V2.73109h18.18182V17.27654z"/>
		<path d="M11.81818,11.80993c0.25108,0,0.45455-0.20208,0.45455-0.45144V7.74624
			c0-0.24936-0.20347-0.45144-0.45455-0.45144s-0.45455,0.20208-0.45455,0.45144v3.61225
			C11.36364,11.60785,11.56711,11.80993,11.81818,11.80993z"/>
		<path d="M13.63636,11.35314c0.25108,0,0.45455-0.20205,0.45455-0.45144V9.54702
			c0-0.24936-0.20347-0.45144-0.45455-0.45144s-0.45455,0.20208-0.45455,0.45144v1.35468
			C13.18182,11.15108,13.38529,11.35314,13.63636,11.35314z"/>
		<path d="M8.18182,14.06748c0.25108,0,0.45455-0.20205,0.45455-0.45144V6.39156
			c0-0.24936-0.20347-0.45144-0.45455-0.45144c-0.25108,0-0.45455,0.20208-0.45455,0.45144v7.22448
			C7.72727,13.86543,7.93074,14.06748,8.18182,14.06748z"/>
		<path d="M10,13.16461c0.25108,0,0.45455-0.20205,0.45455-0.45144V9.10094c0-0.24936-0.20347-0.45144-0.45455-0.45144
			S9.54545,8.85158,9.54545,9.10094v3.61223C9.54545,12.96255,9.74892,13.16461,10,13.16461z"/>
		<path d="M6.36364,12.27385c0.25108,0,0.45455-0.20344,0.45455-0.45446V8.63741
			c0-0.25105-0.20347-0.45446-0.45455-0.45446c-0.25108,0-0.45455,0.20341-0.45455,0.45446v3.18198
			C5.90909,12.07041,6.11256,12.27385,6.36364,12.27385z"/>
</g>
<g id="ATTACH_ICS_48">
		<path d="M19.09091,2.72918H15V1.36555C15,1.13827,14.77273,0.911,14.54545,0.911
			c-0.22727,0-0.45455,0.22727-0.45455,0.45455v1.36364H5.90909V1.36555c0-0.22727-0.22727-0.45455-0.45455-0.45455
			C5.22727,0.911,5,1.13827,5,1.36555v1.36364H0.90909C0.4091,2.72918,0,3.13826,0,3.63827v14.54545
			c0,0.49999,0.4091,0.90909,0.90909,0.90909h18.18182c0.49999,0,0.90909-0.4091,0.90909-0.90909V3.63827
			C20,3.13826,19.5909,2.72918,19.09091,2.72918z M19.09091,18.18373H0.90909V3.63827H5v0.90909
			c0,0.22727,0.22727,0.45455,0.45455,0.45455c0.22727,0,0.45455-0.22727,0.45455-0.45455V3.63827h8.18182v0.90909
			c0,0.22727,0.22727,0.45455,0.45455,0.45455C14.77273,5.00191,15,4.77464,15,4.54736V3.63827h4.09091V18.18373z"/>
		<path d="M8.21812,10.9618l-0.44727-0.07562l1.71013-1.63517c0.26801-0.25778,0.39456-0.41124,0.39456-0.70282
			c0-0.33762-0.28914-0.45795-0.55959-0.45795H5.87323c-0.23754,0-0.43837,0.20084-0.43837,0.43837
			c0,0.23754,0.20084,0.43815,0.43837,0.43815h2.71654L6.83271,10.7376c-0.22308,0.22152-0.26845,0.35052-0.26845,0.47641
			c0,0.23754,0.20151,0.4386,0.43993,0.4386h0.24065c1.00908,0,1.6116,0.4208,1.6116,1.1254
			c0,0.65923-0.50465,1.10583-1.22705,1.10583c-0.57983,0-1.06647-0.18416-1.53131-0.57961
			c-0.11654-0.09742-0.21774-0.1379-0.34741-0.1379c-0.27624,0-0.51866,0.24243-0.51866,0.51867
			c0,0.14368,0.07784,0.28113,0.16125,0.36298l0.02291,0.01957c0.58984,0.50621,1.30756,0.7522,2.19365,0.7522
			c1.38496,0,2.31553-0.8376,2.31553-2.084C9.92536,11.7438,9.35087,11.15352,8.21812,10.9618z"/>
		<path d="M14.03615,7.9886c-0.20017,0-0.40079,0.04537-0.68592,0.12366L12.35471,8.4034
			c-0.21663,0.06294-0.35097,0.2342-0.35097,0.44749c0,0.23353,0.20951,0.43837,0.44883,0.43837
			c0.04849,0,0.13567-0.01379,0.21752-0.03425l0.82648-0.24415v5.2115c0,0.29759,0.24198,0.54002,0.53957,0.54002
			s0.54002-0.24243,0.54002-0.54002V8.52861C14.57616,8.2308,14.33373,7.9886,14.03615,7.9886z"/>
</g>
<g id="ATTACH_IMAGE_48">
	<path d="M20,2.73109C20,2.22901,19.59299,1.822,19.09091,1.822H0.90909C0.40701,1.822,0,2.22901,0,2.73109v14.54545
		c0,0.50208,0.40701,0.90909,0.90909,0.90909h18.18182c0.50208,0,0.90909-0.40701,0.90909-0.90909V2.73109z M19.09091,2.73109
		v7.75989l-3.90106-3.4295l-5.77039,5.17668L5.62814,8.78643l-4.71905,4.29332V2.73109H19.09091z M0.90909,14.42829l4.69003-4.29241
		l3.04175,2.8361l-4.70953,4.30455H0.90909V14.42829z M5.42102,17.27654l9.76883-8.80651l3.90106,3.3704v5.43611H5.42102z"/>
</g>
<g id="ATTACH_ZIP_48">
		<path d="M4.2716,15.45836H3.90669c-0.15092,0-0.27033,0.13628-0.27033,0.28675v0.36396
			c0,0.15051,0.11941,0.25837,0.27033,0.25837H4.2716c0.15176,0,0.27385-0.10787,0.27385-0.25837v-0.36396
			C4.54545,15.59464,4.42336,15.45836,4.2716,15.45836z"/>
		<path d="M3.90669,14.54927H4.2716c0.15176,0,0.27385-0.10787,0.27385-0.25837v-0.36396
			c0-0.15048-0.1221-0.28675-0.27385-0.28675H3.90669c-0.15092,0-0.27033,0.13627-0.27033,0.28675v0.36396
			C3.63636,14.44141,3.75577,14.54927,3.90669,14.54927z"/>
		<path d="M5.18108,14.54927H4.81892c-0.15098,0-0.27347,0.12207-0.27347,0.27255v0.36399
			c0,0.15045,0.12249,0.27255,0.27347,0.27255h0.36216c0.15098,0,0.27347-0.1221,0.27347-0.27255v-0.36399
			C5.45455,14.67134,5.33206,14.54927,5.18108,14.54927z"/>
		<path d="M5.18108,12.73109H4.81892c-0.15098,0-0.27347,0.12207-0.27347,0.27255v0.36399
			c0,0.15045,0.12249,0.27255,0.27347,0.27255h0.36216c0.15098,0,0.27347-0.1221,0.27347-0.27255v-0.36399
			C5.45455,12.85316,5.33206,12.73109,5.18108,12.73109z"/>
		<path d="M3.90669,12.73109H4.2716c0.15176,0,0.27385-0.10787,0.27385-0.25837v-0.36396
			c0-0.15048-0.1221-0.28675-0.27385-0.28675H3.90669c-0.15092,0-0.27033,0.13627-0.27033,0.28675v0.36396
			C3.63636,12.62322,3.75577,12.73109,3.90669,12.73109z"/>
		<path d="M5.19617,8.64018H3.90936c-0.15076,0-0.27299,0.12221-0.27299,0.27299v1.71295
			c0,0.15772,0.12903,0.28678,0.28678,0.28678h0.62231v0.65072c0,0.15051,0.1221,0.25837,0.27299,0.25837h0.36577
			c0.15092,0,0.27033-0.10787,0.27033-0.25837v-2.6651C5.45455,8.75584,5.33888,8.64018,5.19617,8.64018z"/>
		<path d="M19.09091,4.54927h-8.80859L9.17569,2.21573C9.06649,1.99379,8.88006,1.822,8.63636,1.822H0.8589
			C0.38208,1.85002,0.00291,2.24184,0.00291,2.72574v0.45455H0v14.09626c0,0.50207,0.40702,0.90909,0.90909,0.90909h18.18182
			c0.49999,0,0.90909-0.4091,0.90909-0.90909V5.45836C20,4.95627,19.59298,4.54927,19.09091,4.54927z M19.09091,17.27654H5.45455
			V16.64c0-0.15045-0.12251-0.27255-0.27344-0.27255H4.81889c-0.15092,0-0.27344,0.1221-0.27344,0.27255v0.63654H0.90909V2.73109
			H8.3718h0.03951l1.1193,2.46593c0.07488,0.1595,0.23524,0.26134,0.41143,0.26134h9.14887
			C19.09091,5.45836,19.09091,17.27654,19.09091,17.27654z"/>
</g>
<g id="SELECTED">
	<path d="M10.831,16.338c-0.492,0.385-1.185,0.385-1.677,0L0,9.4v9.585C0,19.585,0.431,20,1.077,20h17.846
		C19.554,20,20,19.585,20,18.985v-9.6L10.831,16.338z"/>
	<path d="M0.369,8.985l9.169,6.8c0.246,0.185,0.585,0.185,0.831,0l9.262-6.8c0.185-0.138,0.185-0.415,0-0.554
		l-8.923-8.2c-0.415-0.308-1-0.308-1.415,0l-8.923,8.2C0.185,8.569,0.185,8.846,0.369,8.985z"/>
</g>

<g id="TRAVEL">
		<path d="M6,7.59c-0.1-0.1-0.059-0.1-0.3-0.1H2.464c-0.1,0-0.293-0.024-0.393,0.076C1.956,7.681,2.01,7.779,2.111,7.99L4.2,11.8
			C4.282,11.924,4.4,12,4.5,12h4.6l-2.331,2.333c-0.239,0.226-0.238,0.46-0.158,0.54c0.1,0.1,0.132,0.129,0.289,0.129H11
			c0.1,0,0.096-0.004,0.2-0.1l3-2.902h2.088c0.9,0,2.182-0.359,2.182-1.8c0-1.176-1.182-1.7-2.182-1.7H6.7 M9.712,8h3.7L10.6,5.1
			C10.5,5,10.4,5,10.3,5H7.7C7.5,5,7.406,5.07,7.361,5.18C7.319,5.412,7.396,5.475,7.5,5.6L9.712,8z"/>
</g>
<g id="DOCUMENTS">
		<path d="M10.969,2.994H5.111C4.775,2.994,4.5,3.269,4.5,3.605v12.783C4.5,16.725,4.775,17,5.111,17h9.777
			c0.337,0,0.612-0.275,0.612-0.612V7.525c0-0.163-0.064-0.318-0.179-0.432l-3.92-3.92C11.286,3.058,11.13,2.994,10.969,2.994
			L10.969,2.994z M10.964,7.528V4.473l3.055,3.055H10.964z"/>
</g>
<g id="DEALS">
<path d="M16.823,9.802l-6.49-6.608C10.212,3.069,10.045,3,9.87,3H3.657C3.299,3,3.009,3.29,3.009,3.648
	v6.215c0,0.175,0.069,0.341,0.193,0.463l6.603,6.488C9.931,16.937,10.095,17,10.259,17c0.166,0,0.332-0.064,0.459-0.19l6.1-6.094
	C17.07,10.464,17.072,10.056,16.823,9.802z M6.896,8.126c-0.706,0-1.278-0.568-1.278-1.268c0-0.7,0.572-1.268,1.278-1.268
	c0.705,0,1.277,0.568,1.277,1.268C8.173,7.558,7.601,8.126,6.896,8.126z"/>
</g>
</svg>
